<svg width="30" height="18" viewBox="0 0 30 18" fill="none" xmlns="http://www.w3.org/2000/svg">
<path d="M9 0.25C13.9705 0.25 18 4.16751 18 9C18 13.8325 13.9705 17.75 9 17.75C4.02944 17.75 0 13.8325 0 9C0 4.16751 4.02944 0.25 9 0.25ZM22.5 1.70833C24.75 1.70833 26.25 4.97293 26.25 9C26.25 13.027 24.75 16.2917 22.5 16.2917C20.25 16.2917 18.75 13.027 18.75 9C18.75 4.97293 20.25 1.70833 22.5 1.70833ZM28.5 2.4375C29.0713 2.4375 29.5681 3.64341 29.8213 5.71285L29.8899 6.35925C29.9 6.47119 29.9095 6.5852 29.9183 6.70124L29.963 7.4215C29.9691 7.54549 29.9744 7.67143 29.979 7.79926L29.9976 8.58877C29.9992 8.72404 30 8.86114 30 9L29.9976 9.41123L29.979 10.2007C29.9744 10.3286 29.9691 10.4545 29.963 10.5785L29.9183 11.2988C29.9095 11.4148 29.9 11.5288 29.8899 11.6407L29.8213 12.2871C29.5681 14.3566 29.0713 15.5625 28.5 15.5625C27.9287 15.5625 27.4319 14.3566 27.1787 12.2871L27.1101 11.6407C27.1 11.5288 27.0905 11.4148 27.0817 11.2988L27.037 10.5785C27.0309 10.4545 27.0256 10.3286 27.021 10.2007L27.0024 9.41123V8.58877L27.021 7.79926C27.0256 7.67143 27.0309 7.54549 27.037 7.4215L27.0817 6.70124C27.0905 6.5852 27.1 6.47119 27.1101 6.35925L27.1787 5.71285C27.4319 3.64341 27.9287 2.4375 28.5 2.4375Z" fill="#696D99"/>
</svg>
