<svg width="30" height="25" viewBox="0 0 30 25" fill="none" xmlns="http://www.w3.org/2000/svg">
<path d="M26.9288 6.22625C26.9407 6.49722 26.9467 6.76945 26.9467 7.04288C26.9467 15.3833 20.7552 25 9.43542 25C5.95934 25 2.72373 23.9551 0 22.1643C0.482115 22.2229 0.971393 22.2528 1.46842 22.2528C4.35225 22.2528 7.0057 21.2439 9.11281 19.5507C6.41885 19.5001 4.1463 17.6752 3.36301 15.1678C3.73921 15.2417 4.12434 15.2814 4.52133 15.2814C5.082 15.2814 5.62599 15.2039 6.14269 15.0598C3.32731 14.4799 1.20529 11.9293 1.20529 8.87143C1.20529 8.84458 1.20529 8.81834 1.20593 8.79209C2.03566 9.26449 2.98445 9.54833 3.99389 9.58126C2.34218 8.44972 1.2559 6.51793 1.2559 4.32799C1.2559 3.1714 1.55883 2.08742 2.08915 1.15538C5.12479 4.9737 9.6591 7.4859 14.7744 7.74958C14.6697 7.28754 14.6149 6.80599 14.6149 6.31101C14.6149 2.82591 17.3707 0 20.7694 0C22.5408 0 24.1395 0.766602 25.2621 1.99278C26.6645 1.7102 27.9811 1.1847 29.1703 0.461382C28.7108 1.93541 27.7358 3.17194 26.4644 3.95317C27.7096 3.80056 28.8965 3.46127 30 2.95955C29.1751 4.22486 28.1311 5.3363 26.9288 6.22625Z" fill="#696D99"/>
</svg>
