<svg width="16" height="15" viewBox="0 0 16 15" fill="none" xmlns="http://www.w3.org/2000/svg">
<path fill-rule="evenodd" clip-rule="evenodd" d="M0.928673 13.7886C0.733411 13.9839 0.733411 14.3005 0.928673 14.4957C1.12394 14.691 1.44052 14.691 1.63578 14.4957L7.96215 8.16936L14.3639 14.5711C14.5591 14.7664 14.8757 14.7664 15.071 14.5711C15.2663 14.3758 15.2663 14.0593 15.071 13.864L8.66926 7.46226L15.0708 1.06071C15.2661 0.865445 15.2661 0.548862 15.0708 0.3536C14.8755 0.158338 14.559 0.158338 14.3637 0.3536L7.96215 6.75515L1.63596 0.428963C1.4407 0.233701 1.12412 0.233701 0.928857 0.428963C0.733595 0.624225 0.733594 0.940807 0.928856 1.13607L7.25504 7.46226L0.928673 13.7886Z" fill="white"/>
</svg>
