<svg width="21" height="20" viewBox="0 0 21 20" fill="none" xmlns="http://www.w3.org/2000/svg">
<path d="M3.18559 8C3.01775 8.6534 2.93308 9.32538 2.93359 10C2.93359 10.69 3.02159 11.36 3.18559 12H6.03359C5.89877 10.6701 5.89877 9.32993 6.03359 8H3.18559ZM4.00359 6H6.34959C6.61559 4.783 6.99959 3.693 7.47059 2.786C6.01877 3.48542 4.81081 4.60523 4.00359 6ZM18.6816 8H15.8336C15.9684 9.32993 15.9684 10.6701 15.8336 12H18.6816C19.0183 10.6879 19.0183 9.31208 18.6816 8ZM17.8636 6C17.0564 4.60523 15.8484 3.48542 14.3966 2.786C14.8686 3.693 15.2516 4.783 15.5176 6H17.8636ZM8.04559 8C7.97067 8.66403 7.93328 9.33176 7.93359 10C7.93359 10.685 7.97159 11.355 8.04559 12H13.8216C13.9722 10.6709 13.9722 9.32908 13.8216 8H8.04559ZM8.40359 6H13.4636C13.2816 5.2483 13.0191 4.51841 12.6806 3.823C12.0526 2.568 11.3806 2 10.9336 2C10.4856 2 9.81459 2.568 9.18659 3.823C8.87159 4.455 8.60659 5.19 8.40359 6ZM4.00359 14C4.81081 15.3948 6.01877 16.5146 7.47059 17.214C6.99859 16.307 6.61559 15.217 6.34959 14H4.00359ZM17.8636 14H15.5176C15.2516 15.217 14.8676 16.307 14.3966 17.214C15.8484 16.5146 17.0564 15.3948 17.8636 14ZM8.40359 14C8.60659 14.81 8.87159 15.545 9.18659 16.177C9.81459 17.432 10.4866 18 10.9336 18C11.3816 18 12.0526 17.432 12.6806 16.177C12.9956 15.545 13.2606 14.81 13.4636 14H8.40359ZM10.9336 20C5.41059 20 0.933594 15.523 0.933594 10C0.933594 4.477 5.41059 0 10.9336 0C16.4566 0 20.9336 4.477 20.9336 10C20.9336 15.523 16.4566 20 10.9336 20Z" fill="url(#paint0_linear_1630_116)"/>
<defs>
<linearGradient id="paint0_linear_1630_116" x1="10.9336" y1="0" x2="10.9336" y2="20" gradientUnits="userSpaceOnUse">
<stop stop-color="#FB37FF"/>
<stop offset="1" stop-color="#0094FF"/>
</linearGradient>
</defs>
</svg>
