<svg width="229" height="40" viewBox="0 0 229 40" fill="none" xmlns="http://www.w3.org/2000/svg">
<path d="M35.5726 36C44.3414 36 51.4499 28.8365 51.4499 20C51.4499 11.1634 44.3414 4 35.5726 4C26.8039 4 19.6953 11.1634 19.6953 20C19.6953 28.8365 26.8039 36 35.5726 36Z" stroke="url(#paint0_linear_1630_130)" stroke-width="1.11172"/>
<g filter="url(#filter0_f_1630_130)">
<path d="M35.5765 36C44.3453 36 51.4538 28.8365 51.4538 20C51.4538 11.1634 44.3453 4 35.5765 4C26.8078 4 19.6992 11.1634 19.6992 20C19.6992 28.8365 26.8078 36 35.5765 36Z" stroke="url(#paint1_linear_1630_130)" stroke-width="1.11172"/>
</g>
<path d="M35.5726 36C44.3414 36 51.4499 28.8365 51.4499 20C51.4499 11.1634 44.3414 4 35.5726 4C26.8039 4 19.6953 11.1634 19.6953 20C19.6953 28.8365 26.8039 36 35.5726 36Z" stroke="url(#paint2_linear_1630_130)" stroke-width="1.11172"/>
<path d="M35.5726 36C44.3414 36 51.4499 28.8365 51.4499 20C51.4499 11.1634 44.3414 4 35.5726 4C26.8039 4 19.6953 11.1634 19.6953 20C19.6953 28.8365 26.8039 36 35.5726 36Z" stroke="url(#paint3_linear_1630_130)" stroke-opacity="0.75" stroke-width="0.555858"/>
<path d="M25.4819 9.4857H30.9255M26.6908 7.96191H29.715M24.2714 10.7048H31.8319M23.0624 12.2286H32.74M22.1549 13.7524H33.6471M21.5504 14.9715H33.9498M21.2473 16.4952H34.6283M20.6429 17.7143H34.8569M20.3398 18.9334C26.1269 18.9334 29.1992 18.9334 34.9863 18.9334M20.3398 20.4571H34.8562M20.6429 21.981H34.8569M20.6429 23.2H34.8569M21.5504 24.7238H34.2523M21.8519 25.9429H33.6464M22.7593 27.1619H32.7393M23.9699 28.6857H32.1354M24.8758 30.2096H31.2267M25.7833 31.7334H30.0172" stroke="url(#paint4_linear_1630_130)" stroke-width="0.555858" stroke-linecap="round"/>
<g filter="url(#filter1_f_1630_130)">
<path d="M9.0478 8.37168C5.90644 11.2432 3.93359 15.3895 3.93359 20.0002C3.93359 24.6108 5.90644 28.7572 9.0478 31.6286V8.37168ZM10.9329 6.89622C13.3923 5.25838 16.3399 4.30493 19.5085 4.30493C28.1103 4.30493 35.0834 11.3319 35.0834 20.0002C35.0834 28.6684 28.1103 35.6954 19.5085 35.6954C16.3399 35.6954 13.3923 34.7418 10.9329 33.1041V6.89622Z" stroke="url(#paint5_linear_1630_130)" stroke-width="1.11172"/>
</g>
<path d="M9.0478 8.37168C5.90644 11.2432 3.93359 15.3895 3.93359 20.0002C3.93359 24.6108 5.90644 28.7572 9.0478 31.6286V8.37168ZM10.9329 6.89622C13.3923 5.25838 16.3399 4.30493 19.5085 4.30493C28.1103 4.30493 35.0834 11.3319 35.0834 20.0002C35.0834 28.6684 28.1103 35.6954 19.5085 35.6954C16.3399 35.6954 13.3923 34.7418 10.9329 33.1041V6.89622Z" stroke="url(#paint6_linear_1630_130)" stroke-width="1.11172"/>
<path d="M9.0478 8.37168C5.90644 11.2432 3.93359 15.3895 3.93359 20.0002C3.93359 24.6108 5.90644 28.7572 9.0478 31.6286V8.37168ZM10.9329 6.89622C13.3923 5.25838 16.3399 4.30493 19.5085 4.30493C28.1103 4.30493 35.0834 11.3319 35.0834 20.0002C35.0834 28.6684 28.1103 35.6954 19.5085 35.6954C16.3399 35.6954 13.3923 34.7418 10.9329 33.1041V6.89622Z" stroke="url(#paint7_linear_1630_130)" stroke-opacity="0.75" stroke-width="0.555858"/>
<path d="M62.3789 27.1621V10.6014H71.8255V11.6668H63.6661V18.129H70.2856V19.1944H63.6661V26.0967H72.239V27.1621H62.3789ZM83.2122 27.1621V10.6014H84.9587L94.153 25.3787V10.6014H95.371V27.1621H93.8534L84.4534 12.0373V27.1621H83.2122ZM111.089 27.1621V11.6668H105.987V10.6014H117.456V11.6668H112.354V27.1621H111.089ZM125.094 27.1621L131 10.6014H132.701L138.608 27.1621H137.321L135.505 22.0896H128.105L126.312 27.1621H125.094ZM131.804 11.6668L128.472 21.0474H135.137L131.804 11.6668ZM149.303 27.1621V10.6014H151.049L160.243 25.3787V10.6014H161.461V27.1621H159.944L150.544 12.0373V27.1621H149.303ZM180.49 27.3474C178.054 27.3474 176.13 26.5753 174.721 25.0312C173.311 23.4717 172.606 21.4566 172.606 18.9859V18.8006C172.606 16.3763 173.35 14.369 174.836 12.7785C176.322 11.1881 178.191 10.3928 180.444 10.3928C182.129 10.3928 183.577 10.8098 184.788 11.6436C185.998 12.462 186.749 13.6896 187.04 15.3263H185.753C185.462 14.0138 184.849 13.0411 183.915 12.4079C182.995 11.7594 181.845 11.4352 180.466 11.4352C178.506 11.4352 176.919 12.1223 175.709 13.4966C174.514 14.8554 173.917 16.6157 173.917 18.7775V18.9628C173.917 21.2018 174.491 22.9852 175.64 24.3132C176.789 25.6257 178.406 26.2819 180.49 26.2819C182.359 26.2819 183.785 25.7492 184.764 24.6837C185.761 23.6029 186.275 22.1282 186.304 20.2598V20.1672H181.248V19.0786H187.546V20.0282C187.546 22.3753 186.91 24.1819 185.638 25.4481C184.366 26.7143 182.65 27.3474 180.49 27.3474ZM198.691 27.1621V10.6014H199.977V26.0967H207.953V27.1621H198.691ZM218.693 27.1621V10.6014H228.139V11.6668H219.98V18.129H226.599V19.1944H219.98V26.0967H228.553V27.1621H218.693Z" fill="white"/>
<defs>
<filter id="filter0_f_1630_130" x="16.3652" y="0.664804" width="38.4219" height="38.6704" filterUnits="userSpaceOnUse" color-interpolation-filters="sRGB">
<feFlood flood-opacity="0" result="BackgroundImageFix"/>
<feBlend mode="normal" in="SourceGraphic" in2="BackgroundImageFix" result="shape"/>
<feGaussianBlur stdDeviation="1.38964" result="effect1_foregroundBlur_1630_130"/>
</filter>
<filter id="filter1_f_1630_130" x="0.599618" y="0.969735" width="37.8203" height="38.0608" filterUnits="userSpaceOnUse" color-interpolation-filters="sRGB">
<feFlood flood-opacity="0" result="BackgroundImageFix"/>
<feBlend mode="normal" in="SourceGraphic" in2="BackgroundImageFix" result="shape"/>
<feGaussianBlur stdDeviation="1.38964" result="effect1_foregroundBlur_1630_130"/>
</filter>
<linearGradient id="paint0_linear_1630_130" x1="51.7523" y1="19.8353" x2="23.1629" y2="19.8416" gradientUnits="userSpaceOnUse">
<stop offset="0.563344" stop-color="#3984E4"/>
<stop offset="1" stop-color="#040404" stop-opacity="0"/>
</linearGradient>
<linearGradient id="paint1_linear_1630_130" x1="48.8516" y1="19.8387" x2="22.9304" y2="19.8387" gradientUnits="userSpaceOnUse">
<stop stop-color="#0094FF"/>
<stop offset="0.458333" stop-color="#0094FF" stop-opacity="0.749722"/>
<stop offset="1" stop-color="#040404" stop-opacity="0"/>
</linearGradient>
<linearGradient id="paint2_linear_1630_130" x1="48.8477" y1="19.8387" x2="22.9265" y2="19.8387" gradientUnits="userSpaceOnUse">
<stop stop-color="#0094FF"/>
<stop offset="0.0001" stop-color="#0094FF"/>
<stop offset="0.458333" stop-color="#0094FF" stop-opacity="0.749722"/>
<stop offset="1" stop-color="#040404" stop-opacity="0"/>
</linearGradient>
<linearGradient id="paint3_linear_1630_130" x1="48.8477" y1="19.8387" x2="22.9265" y2="19.8387" gradientUnits="userSpaceOnUse">
<stop stop-color="white"/>
<stop offset="0.458333" stop-color="white" stop-opacity="0.749722"/>
<stop offset="1" stop-color="#040404" stop-opacity="0"/>
</linearGradient>
<linearGradient id="paint4_linear_1630_130" x1="20.5262" y1="19.582" x2="35.4613" y2="19.582" gradientUnits="userSpaceOnUse">
<stop stop-color="#FF5EBA"/>
<stop offset="0.489583" stop-color="#6831D6" stop-opacity="0.87"/>
<stop offset="1" stop-color="#0094FF"/>
</linearGradient>
<linearGradient id="paint5_linear_1630_130" x1="35.0834" y1="19.8416" x2="9.83084" y2="20.1478" gradientUnits="userSpaceOnUse">
<stop offset="0.380208" stop-color="#FB37FF"/>
<stop offset="0.734375" stop-color="#7158B6"/>
<stop offset="1" stop-color="#040404" stop-opacity="0"/>
</linearGradient>
<linearGradient id="paint6_linear_1630_130" x1="35.0834" y1="19.8416" x2="9.83084" y2="20.1478" gradientUnits="userSpaceOnUse">
<stop offset="0.380208" stop-color="#FB37FF"/>
<stop offset="0.619792" stop-color="#6831D6"/>
<stop offset="0.908382" stop-color="#040404" stop-opacity="0"/>
</linearGradient>
<linearGradient id="paint7_linear_1630_130" x1="35.0834" y1="19.8416" x2="9.83084" y2="20.1478" gradientUnits="userSpaceOnUse">
<stop offset="0.380208" stop-color="white"/>
<stop offset="0.619792" stop-color="white"/>
<stop offset="0.903365" stop-color="#040404" stop-opacity="0"/>
</linearGradient>
</defs>
</svg>
