<svg width="194" height="52" viewBox="0 0 194 52" fill="none" xmlns="http://www.w3.org/2000/svg">
<path fill-rule="evenodd" clip-rule="evenodd" d="M46.7121 42.9819L54.456 31.5114C56.972 27.6265 52.2625 19.5267 43.5513 13.82C35.0362 7.79592 25.9331 6.24071 23.2907 10.1319L15.5467 21.4056L15.6099 21.4691C13.2204 25.5508 18.0627 33.1301 26.4514 39.097C34.9034 45.1211 43.8737 46.6763 46.6489 42.9184L46.7121 42.9819ZM34.8337 26.9789C42.7104 32.546 50.9727 34.2345 53.2928 30.8638C55.4927 27.4931 50.7831 20.4216 42.9064 14.8546C35.0297 9.28755 26.7674 7.59903 24.4474 10.9697C22.0641 14.3404 26.7737 21.4055 34.8337 26.9789ZM36.7113 23.932C40.7128 26.6552 44.7776 27.4931 45.9408 25.8109C47.0976 24.1288 44.7776 20.5613 40.9088 17.9079C36.9072 15.1847 32.8424 14.3468 31.6793 16.0289C30.5161 17.7111 32.8424 21.2722 36.7113 23.932Z" fill="#9AA6BA"/>
<path d="M74.5186 44.4854C72.124 44.4854 69.6661 44.0218 67.2081 43.088C64.7502 42.1542 62.6787 40.9527 61 39.4247L64.9466 33.3583C66.3023 34.5598 67.8543 35.5589 69.5394 36.2902C71.2878 37.0216 72.9032 37.3546 74.4552 37.3546C75.7475 37.3546 76.8498 37.0869 77.686 36.6233C78.5919 36.1596 79.0416 35.487 79.0416 34.6904C79.0416 34.4227 78.9783 34.1549 78.8452 33.8937C78.7185 33.6913 78.5222 33.4301 78.2624 33.293C78.0027 33.0905 77.6796 32.9599 77.4199 32.7575C77.0335 32.5551 76.6471 32.4245 76.191 32.2939C75.6715 32.1633 75.2217 32.0261 74.8353 31.8955C74.3158 31.7649 73.733 31.5625 73.2199 31.4319C65.8525 29.5578 62.229 26.0903 62.229 20.9578C62.229 18.0258 63.3312 15.6227 65.5928 13.8923C67.8543 12.09 70.8317 11.228 74.5186 11.228C76.8434 11.228 78.9783 11.5611 80.9231 12.2924C82.8679 13.0238 84.4769 13.9576 85.7059 15.1591L82.152 21.2908C81.1828 20.4223 80.0172 19.6909 78.6615 19.1555C77.3059 18.62 75.8805 18.3588 74.4552 18.3588C73.2262 18.3588 72.1937 18.5612 71.4145 19.0249C70.6416 19.4885 70.2489 20.024 70.2489 20.7553C70.2489 21.4867 70.6986 22.0874 71.6045 22.6229C72.5104 23.0865 73.8027 23.5567 75.4181 23.955C76.0009 24.0856 76.4507 24.2228 76.9068 24.3534C77.3629 24.484 78.009 24.6864 78.8452 25.0194C79.6878 25.2872 80.3973 25.6202 81.1068 25.9532C81.7529 26.2862 82.5321 26.7499 83.2416 27.2853C83.9511 27.8208 84.5973 28.4216 85.1167 29.0876C85.6362 29.7537 86.086 30.5569 86.409 31.4188C86.7321 32.3526 86.9285 33.3517 86.9285 34.3508C86.9285 36.349 86.3457 38.086 85.2498 39.614C84.1475 41.1486 82.6652 42.3501 80.79 43.1468C78.9149 44.0153 76.7801 44.4136 74.4552 44.4136L74.5186 44.4854ZM108.727 41.7559C106.725 43.5582 104.071 44.4919 100.707 44.4919C97.4063 44.4919 94.7584 43.5582 92.6869 41.7559C90.6851 39.8883 89.6462 37.4918 89.6462 34.4227V20.2199H96.9566V33.3517C96.9566 34.488 97.2796 35.4152 97.9891 36.1531C98.6986 36.8192 99.6045 37.2175 100.707 37.2175C101.809 37.2175 102.709 36.8845 103.361 36.1531C104.071 35.487 104.394 34.5533 104.394 33.3517V20.2199H111.704V34.4161C111.704 37.4134 110.671 39.8818 108.663 41.7493H108.727V41.7559ZM124.374 44.4854C120.687 44.4854 117.393 43.2839 114.352 40.9527L117.583 36.2184C119.718 37.8836 121.916 38.6868 124.114 38.6868C125.083 38.6868 125.862 38.5562 126.439 38.2884C127.022 38.0207 127.345 37.6224 127.345 37.0869C127.345 36.5514 127.022 36.1531 126.439 35.8854C125.856 35.6176 124.887 35.3499 123.595 35.0887C122.885 34.9581 122.366 34.821 121.979 34.7557C121.46 34.6251 120.877 34.4227 120.364 34.2921C119.781 34.0896 119.262 33.8937 118.685 33.626C118.299 33.3583 117.843 33.0905 117.26 32.6922C116.81 32.3592 116.354 31.8955 116.031 31.4254C115.708 30.8899 115.448 30.361 115.321 29.7602C115.125 29.0289 114.998 28.291 114.998 27.5596C114.998 25.8944 115.448 24.4252 116.354 23.2237C117.26 22.0221 118.425 21.1602 119.844 20.5594C121.333 20.024 122.948 19.6909 124.76 19.6909C128.124 19.6909 131.291 20.69 134.072 22.76L130.842 27.4943C128.77 26.1622 126.832 25.4961 125.02 25.4961C124.177 25.4961 123.531 25.6267 123.018 25.8291C122.499 26.0316 122.245 26.4299 122.245 26.8935C122.245 27.3572 122.568 27.762 123.151 28.0298C123.734 28.2975 124.703 28.5652 125.995 28.8264C126.642 28.957 127.161 29.0942 127.611 29.1595C128.061 29.2901 128.58 29.4272 129.226 29.6231C129.872 29.8255 130.392 30.0867 130.842 30.2892C131.291 30.5569 131.748 30.8246 132.267 31.2229C132.786 31.6213 133.173 32.0196 133.496 32.4898C133.819 32.9599 134.079 33.5542 134.269 34.2202C134.459 34.8863 134.592 35.5523 134.592 36.3555C134.592 38.8892 133.623 40.8874 131.748 42.3566C129.809 43.7541 127.414 44.4854 124.374 44.4854ZM151.791 19.6256C154.376 19.6256 156.447 20.4223 158.062 22.0221C159.678 23.622 160.457 25.8226 160.457 28.4869V43.8847H153.147V31.0205C153.147 29.7537 152.824 28.7546 152.114 28.0232C151.405 27.2919 150.499 26.887 149.333 26.887C148.041 26.887 147.071 27.2853 146.292 28.0232C145.519 28.8199 145.127 29.8255 145.127 31.0923V43.8912H137.816V10.4248H145.133V22.4205C146.881 20.5529 149.08 19.6256 151.791 19.6256ZM168.54 17.6209C167.248 17.6209 166.215 17.1573 165.373 16.3541C164.53 15.4856 164.081 14.3559 164.081 13.0891C164.081 11.757 164.53 10.6926 165.373 9.82407C166.215 8.95557 167.248 8.49194 168.54 8.49194C169.833 8.49194 170.865 8.95557 171.708 9.82407C172.55 10.6926 173 11.8223 173 13.0891C173 14.3559 172.55 15.4856 171.708 16.3541C170.865 17.2226 169.839 17.6209 168.54 17.6209ZM164.923 43.8847V20.1546H172.233V43.8847H164.923Z" fill="#9AA6BA"/>
</svg>
