<svg width="194" height="52" viewBox="0 0 194 52" fill="none" xmlns="http://www.w3.org/2000/svg">
<g clip-path="url(#clip0_2087_6116)">
<path fill-rule="evenodd" clip-rule="evenodd" d="M64.4675 45.8409C70.2656 45.8409 75.4747 43.2735 79.0577 39.1945C77.3909 37.7197 74.8791 37.6301 73.1047 39.0878L72.7657 39.3663C69.5168 42.0352 64.7828 41.641 62.003 38.4702C60.4869 36.7408 57.8904 36.5643 56.1618 38.073L52.2534 41.4842C55.6009 44.2106 59.8472 45.8409 64.4675 45.8409ZM70.8117 36.1948C73.9062 33.6526 78.2558 33.7438 81.232 36.199C83.011 33.1982 84.0345 29.681 84.0345 25.9204C84.0345 21.7418 82.7708 17.8637 80.6111 14.6606C79.2189 14.3588 77.7098 14.7113 76.5643 15.7448L76.2382 16.0389C73.1138 18.8577 68.367 18.6863 65.4464 15.6495C63.8535 13.9932 61.2518 13.9388 59.5934 15.5272L55.0452 19.8834L52.5431 17.1759L57.0914 12.8196C60.1978 9.8443 65.0716 9.94618 68.0555 13.0488C69.6146 14.67 72.1486 14.7614 73.8165 13.2567L74.1425 12.9626C75.155 12.0492 76.3264 11.4334 77.5528 11.1095C74.0863 7.9331 69.4987 6 64.4675 6C54.5345 6 46.3303 13.535 45.0687 23.2968C48.0858 21.8228 51.8073 22.39 54.2672 24.9546C55.8202 26.5737 58.3208 26.7446 60.0724 25.3514L62.6154 23.3288C65.8113 20.7868 70.3293 20.9099 73.3871 23.6222L78.3381 28.0136L75.9394 30.8164L70.9885 26.425C69.2497 24.8828 66.6807 24.8128 64.8634 26.2582L62.3204 28.2808C59.1022 30.8404 54.508 30.5264 51.6548 27.5518C49.9956 25.8221 47.2821 25.7617 45.5503 27.4161L45 27.9417C45.4118 32.1024 47.0813 35.8852 49.6154 38.8901L53.7852 35.2508C57.0232 32.4246 61.8872 32.7553 64.7273 35.9949C66.2112 37.6876 68.7383 37.898 70.4727 36.4732L70.8117 36.1948Z" fill="#9AA6BA"/>
<path d="M98.1289 32.3094C98.1289 36.4776 101.343 39.2116 106.406 39.2116C111.512 39.2116 115.034 36.5673 115.034 32.399C115.034 29.1271 113.229 27.424 109.575 26.5276L105.789 25.5864C103.676 25.0486 102.619 24.0625 102.619 22.5835C102.619 20.5666 104.072 19.4013 106.67 19.4013C109.179 19.4013 110.632 20.7906 110.72 22.9868H114.683C114.594 18.8186 111.512 16.1294 106.802 16.1294C102.047 16.1294 98.7013 18.6841 98.7013 22.7179C98.7013 25.9449 100.506 27.8722 104.336 28.8134L108.123 29.7098C110.368 30.2925 111.072 31.1888 111.072 32.6679C111.072 34.6848 109.399 35.895 106.494 35.895C103.764 35.895 102.091 34.5504 102.091 32.3094H98.1289Z" fill="#9AA6BA"/>
<path d="M129.794 39.2116C135.121 39.2116 138.731 36.5673 139.787 31.8612H135.913C135.209 34.3711 133.096 35.7157 129.882 35.7157C125.787 35.7157 123.41 33.1609 123.102 28.5445L139.743 28.4997V26.931C139.743 20.4321 135.737 16.1294 129.618 16.1294C123.366 16.1294 119.096 20.8803 119.096 27.7377C119.096 34.5504 123.454 39.2116 129.794 39.2116ZM129.618 19.6702C133.272 19.6702 135.605 22.0904 135.605 25.7208H123.19C123.718 21.8664 126.007 19.6702 129.618 19.6702Z" fill="#9AA6BA"/>
<path d="M147.271 11.5577C148.767 11.5577 150 10.3027 150 8.77883C150 7.21014 148.767 6 147.271 6C145.774 6 144.541 7.21014 144.541 8.77883C144.541 10.3027 145.774 11.5577 147.271 11.5577ZM145.246 38.6737H149.384V16.7568H145.246V38.6737Z" fill="#9AA6BA"/>
</g>
<defs>
<clipPath id="clip0_2087_6116">
<rect width="105" height="40" fill="white" transform="translate(45 6)"/>
</clipPath>
</defs>
</svg>
