<svg width="194" height="52" viewBox="0 0 194 52" fill="none" xmlns="http://www.w3.org/2000/svg">
<g clip-path="url(#clip0_1681_6598)">
<path d="M25.5135 28.3161L23.1391 34.8051C23.0383 34.998 23.0383 35.1986 23.1391 35.3915L27.2904 46.5948L32.0313 43.8403L26.2972 28.3161C26.2041 27.9226 25.7075 27.9226 25.5135 28.3161Z" fill="#9AA6BA"/>
<path d="M30.2542 17.3134C30.1533 16.9199 29.6645 16.9199 29.4627 17.3134L27.0883 23.8024C26.9875 23.9953 26.9875 24.1959 27.0883 24.3888L33.8079 42.7678L38.5489 40.0133L30.2542 17.3134Z" fill="#9AA6BA"/>
<path d="M21.758 3.06238C21.8588 3.06238 21.9519 3.06238 22.0528 3.16269L40.233 13.579C40.4269 13.6793 40.5278 13.8722 40.5278 14.1654V34.998C40.5278 35.1909 40.4269 35.4918 40.233 35.5844L22.0528 46.0007C21.9519 46.101 21.8588 46.101 21.758 46.101C21.6571 46.101 21.564 46.101 21.4631 46.0007L3.28294 35.5844C3.08895 35.4841 2.98808 35.2912 2.98808 34.998V14.1654C2.98808 13.9725 3.08895 13.6716 3.28294 13.579L21.4631 3.16269C21.5562 3.06238 21.6571 3.06238 21.758 3.06238ZM21.758 0.0146484C21.0674 0.0146484 20.4699 0.207543 19.8802 0.508458L1.70003 10.9248C0.512848 11.6115 -0.177734 12.792 -0.177734 14.1654V34.998C-0.177734 36.2788 0.512848 37.5519 1.70003 38.2386L19.8802 48.6549C20.4699 48.9481 21.0674 49.1487 21.758 49.1487C22.4485 49.1487 23.046 48.9558 23.6357 48.6549L41.8159 38.2386C43.0031 37.5519 43.6936 36.3714 43.6936 34.998V14.1654C43.6936 12.8846 43.0031 11.6115 41.8159 10.9248L23.7288 0.508458C23.1391 0.215259 22.5416 0.0146484 21.8511 0.0146484H21.758Z" fill="#9AA6BA"/>
<path d="M9.80078 42.7601L11.4768 38.2386L14.8366 40.9932L11.6785 43.9406L9.80078 42.7601Z" fill="#213147"/>
<path d="M20.2759 12.6917H15.6281C15.3332 12.6917 14.9375 12.8845 14.8366 13.1855L4.95898 40.1058L9.69995 42.8604L20.5708 13.2781C20.6717 12.9849 20.4699 12.6917 20.1751 12.6917H20.2759Z" fill="#9AA6BA"/>
<path d="M28.2753 12.6917H23.6274C23.3326 12.6917 22.9368 12.8846 22.836 13.1855L11.5771 43.8403L16.3181 46.5948L28.5701 13.1855C28.671 12.8923 28.4693 12.5991 28.1744 12.5991L28.2753 12.6917Z" fill="#9AA6BA"/>
<path d="M63.2626 18.2933C63.7592 18.2933 64.1549 18.3936 64.4497 18.5865C64.7446 18.7794 65.0395 19.1729 65.3421 19.6667L71.3711 30.4766C71.472 30.5769 71.472 30.6694 71.3711 30.7698C71.3711 30.8701 71.2702 30.8701 71.0762 30.8701H68.8027C68.6088 30.8701 68.5079 30.7698 68.407 30.6772L67.1112 28.3161H58.6147L57.3267 30.6772C57.2258 30.8701 57.1327 30.8701 56.9309 30.8701H54.5566C54.3626 30.8701 54.2617 30.8701 54.2617 30.7698C54.2617 30.6694 54.2617 30.5769 54.2617 30.4766L60.1899 19.6667C60.4847 19.0803 60.7796 18.7794 61.0822 18.5865C61.3848 18.3936 61.6719 18.2933 62.0676 18.2933H63.1539H63.2626ZM59.701 26.256H65.924L63.0608 20.9476C62.9599 20.8473 62.9599 20.8473 62.8668 20.8473H62.766C62.6651 20.8473 62.572 20.8473 62.572 20.9476L59.701 26.256Z" fill="#9AA6BA"/>
<path d="M84.5079 18.2933C85.889 18.2933 86.8822 18.5865 87.4719 19.2732C88.0616 19.8596 88.3643 20.8473 88.3643 22.0278V23.0077C88.3643 24.0879 88.1703 24.8749 87.7746 25.4613C87.3788 26.0477 86.6882 26.4412 85.7028 26.6418L88.7677 30.4766C88.8686 30.5769 88.8686 30.6694 88.8686 30.7698C88.8686 30.8701 88.7677 30.9626 88.5738 30.9626H86.1994C86.0054 30.9626 85.9045 30.9626 85.9045 30.8623C85.8037 30.8623 85.8037 30.762 85.7106 30.6694L82.8474 26.935H77.0201V30.5691C77.0201 30.8623 76.9192 30.9626 76.6244 30.9626H74.6457C74.3509 30.9626 74.25 30.8623 74.25 30.5691V18.8797C74.25 18.4862 74.444 18.2933 74.8397 18.2933H84.6242H84.5079ZM76.9968 24.7746H83.9104C84.5001 24.7746 84.9967 24.6743 85.1984 24.3811C85.4933 24.0879 85.5942 23.6944 85.5942 23.2006V22.4136C85.5942 21.8272 85.4933 21.4337 85.1984 21.233C84.9036 20.9398 84.5079 20.8395 83.9104 20.8395H77.1908C76.9968 20.8395 76.9968 20.9398 76.9968 21.0324V24.7746Z" fill="#9AA6BA"/>
<path d="M103.58 18.2933C104.868 18.2933 105.753 18.5865 106.249 19.0803C106.746 19.5742 107.041 20.3612 107.041 21.3411V22.2284C107.041 23.2083 106.645 23.9953 105.854 24.4891C106.645 24.9829 107.142 25.7699 107.142 26.8501V27.9303C107.142 28.4242 107.041 28.8177 106.948 29.2112C106.855 29.6047 106.653 29.8979 106.451 30.1911C106.156 30.4843 105.861 30.6849 105.466 30.7775C105.07 30.8778 104.573 30.9704 103.984 30.9704H93.2137C92.818 30.9704 92.624 30.7775 92.624 30.384V18.8874C92.624 18.4939 92.818 18.3011 93.2137 18.3011H103.689H103.58V18.2933ZM95.3786 23.5015H102.789C103.378 23.5015 103.774 23.4012 103.976 23.2083C104.178 23.0154 104.271 22.8148 104.271 22.4213V21.8349C104.271 21.4414 104.17 21.1482 103.976 21.0479C103.782 20.855 103.386 20.7547 102.991 20.7547H95.5803C95.3864 20.7547 95.3864 20.855 95.3864 20.9476V23.5015H95.3786ZM95.3786 25.469V28.1232C95.3786 28.3161 95.4795 28.3161 95.5726 28.3161H102.983C103.479 28.3161 103.774 28.2158 103.968 28.0229C104.162 27.83 104.263 27.5291 104.263 27.2359V26.5492C104.263 26.1557 104.162 25.8625 103.968 25.6619C103.774 25.4613 103.378 25.3687 102.68 25.3687H95.2777L95.3786 25.469Z" fill="#9AA6BA"/>
<path d="M113.853 18.2933C114.148 18.2933 114.249 18.3936 114.249 18.6868V30.4766C114.249 30.7698 114.148 30.8701 113.853 30.8701H111.874C111.579 30.8701 111.479 30.7698 111.479 30.4766V18.6868C111.479 18.3936 111.579 18.2933 111.874 18.2933H113.853Z" fill="#9AA6BA"/>
<path d="M132.926 18.2933C133.221 18.2933 133.322 18.3936 133.322 18.6868V20.4538C133.322 20.747 133.221 20.8473 132.926 20.8473H127.192V30.4766C127.192 30.7698 127.091 30.8701 126.796 30.8701H124.818C124.523 30.8701 124.422 30.7698 124.422 30.4766V20.8473H118.688C118.393 20.8473 118.292 20.747 118.292 20.4538V18.6868C118.292 18.3936 118.393 18.2933 118.688 18.2933H132.817H132.926Z" fill="#9AA6BA"/>
<path d="M147.258 18.2933C148.639 18.2933 149.632 18.5865 150.222 19.2732C150.812 19.8596 151.114 20.8473 151.114 22.0278V23.0077C151.114 24.0879 150.92 24.8749 150.525 25.4613C150.129 26.0477 149.438 26.4412 148.453 26.6418L151.518 30.4766C151.619 30.5769 151.619 30.6694 151.619 30.7698C151.619 30.8701 151.518 30.9626 151.324 30.9626H148.949C148.755 30.9626 148.655 30.9626 148.655 30.8623C148.554 30.8623 148.554 30.762 148.461 30.6694L145.597 26.935H139.77V30.5691C139.77 30.8623 139.669 30.9626 139.374 30.9626H137.396C137.101 30.9626 137 30.8623 137 30.5691V18.8797C137 18.4862 137.194 18.2933 137.59 18.2933H147.374H147.258ZM139.747 24.7746H146.66C147.25 24.7746 147.747 24.6743 147.948 24.3811C148.243 24.0879 148.344 23.6944 148.344 23.2006V22.4136C148.344 21.8272 148.243 21.4337 147.948 21.233C147.654 20.9398 147.258 20.8395 146.66 20.8395H139.941C139.747 20.8395 139.747 20.9398 139.747 21.0324V24.7746Z" fill="#9AA6BA"/>
<path d="M157.437 18.2933C157.732 18.2933 157.833 18.3936 157.833 18.6868V25.8625C157.833 26.3563 157.833 26.7498 157.934 27.043C158.035 27.3362 158.128 27.6294 158.33 27.83C158.532 28.0307 158.726 28.1232 159.02 28.2235C159.315 28.3239 159.711 28.3238 160.208 28.3238H165.251C165.748 28.3238 166.143 28.3239 166.438 28.2235C166.733 28.1232 167.028 28.0307 167.129 27.83C167.323 27.6371 167.424 27.3362 167.525 27.043C167.626 26.7498 167.626 26.3563 167.626 25.8625V18.6868C167.626 18.3936 167.726 18.2933 168.021 18.2933H170C170.295 18.2933 170.396 18.3936 170.396 18.6868V26.1557C170.396 27.043 170.295 27.7297 170.101 28.3161C169.907 28.9025 169.604 29.3963 169.208 29.7898C168.813 30.1834 168.316 30.4766 167.626 30.5769C166.935 30.7698 166.244 30.8701 165.251 30.8701H160.014C159.121 30.8701 158.33 30.7698 157.639 30.5769C157.05 30.384 156.452 30.083 156.056 29.7898C155.661 29.3963 155.366 28.9025 155.164 28.3161C154.97 27.7297 154.869 26.9427 154.869 26.1557V18.6868C154.869 18.3936 154.97 18.2933 155.265 18.2933H157.243H157.437Z" fill="#9AA6BA"/>
<path d="M178.186 18.2933C178.481 18.2933 178.683 18.2933 178.877 18.3936C179.071 18.3936 179.273 18.4939 179.373 18.5865C179.474 18.6868 179.668 18.7794 179.769 18.98C179.87 19.1729 179.963 19.3735 180.165 19.6667L183.92 28.3161C184.021 28.4164 184.021 28.509 184.215 28.509H184.409C184.51 28.509 184.603 28.4087 184.704 28.3161L188.46 19.6667C188.561 19.3735 188.654 19.1729 188.855 18.98C188.956 18.7871 189.049 18.6868 189.251 18.5865C189.352 18.4862 189.546 18.3936 189.748 18.3936C189.949 18.3936 190.143 18.2933 190.438 18.2933H192.417C193.007 18.2933 193.503 18.3936 193.705 18.6868C193.899 18.98 194 19.4739 194 20.1606V30.4766C194 30.7698 193.899 30.8701 193.604 30.8701H191.726C191.431 30.8701 191.331 30.7698 191.331 30.4766V21.0479C191.331 20.9476 191.23 20.855 191.23 20.855H191.036C190.935 20.855 190.842 20.9553 190.842 20.9553L187.187 29.0106C187.086 29.3038 186.892 29.597 186.691 29.7976C186.489 29.9982 186.396 30.1911 186.194 30.384C186 30.4843 185.798 30.6772 185.604 30.6772C185.41 30.7775 185.108 30.7775 184.813 30.7775H183.92C183.626 30.7775 183.331 30.7775 183.129 30.6772C182.927 30.5769 182.733 30.4843 182.539 30.384C182.345 30.2837 182.244 30.0908 182.043 29.7976C181.849 29.6047 181.748 29.3038 181.546 29.0106L177.891 20.9553C177.891 20.855 177.791 20.855 177.697 20.855H177.503C177.403 20.855 177.403 20.9553 177.403 21.0479V30.4843C177.403 30.7775 177.302 30.8778 177.007 30.8778H175.121C174.826 30.8778 174.726 30.7775 174.726 30.4843V20.1606C174.726 19.4739 174.826 18.98 175.02 18.6868C175.214 18.3936 175.711 18.2933 176.309 18.2933H178.287H178.186Z" fill="#9AA6BA"/>
</g>
<defs>
<clipPath id="clip0_1681_6598">
<rect width="194" height="52" fill="white"/>
</clipPath>
</defs>
</svg>
