<svg width="194" height="52" viewBox="0 0 194 52" fill="none" xmlns="http://www.w3.org/2000/svg">
<path d="M111.439 39.4878L100.961 12.4321H107.422L115.094 33.6314L122.692 12.4321H128.96L118.385 39.4878H111.439Z" fill="#9AA6BA"/>
<path d="M54.1582 11.8271C62.3378 11.8271 68.2184 17.5626 68.2184 25.9842C68.2184 34.4058 62.3136 40.0928 54.1582 40.0928C46.0029 40.0928 40.1465 34.3574 40.1465 25.9842C40.1465 17.611 46.0271 11.8271 54.1582 11.8271ZM54.1582 17.006C49.6328 17.006 46.2933 20.4908 46.2933 26.0084C46.2933 31.526 49.6086 34.9382 54.1582 34.9382C58.8288 34.9382 62.0958 31.4534 62.0958 26.0084C62.0958 20.5634 58.8288 17.006 54.1582 17.006Z" fill="#9AA6BA"/>
<path d="M73.2031 14.1504C77.1961 12.65 81.4069 11.8755 85.6419 11.8271C92.5872 11.8271 97.0158 14.4408 97.0158 22.088V39.512H91.0142V22.6204C91.0142 18.6758 88.5459 17.2964 85.1821 17.2964C83.1977 17.2722 81.2133 17.5626 79.2773 18.095V39.4878H73.2031V14.1504Z" fill="#9AA6BA"/>
<path d="M175.933 25.5728L186 39.512H179.079L172.376 30.0498L165.673 39.4878H159.018L169.085 25.6212L159.623 12.4321H166.641L172.666 21.0958L178.571 12.4321H185.444L175.933 25.5728Z" fill="#9AA6BA"/>
<path d="M145.682 34.914C141.447 34.914 137.26 32.2762 136.897 27.4604V27.3394H155.846V24.2902C155.846 16.9092 152.095 11.8271 144.182 11.8271C136.68 11.8271 131.041 17.5626 131.041 26.1778C131.041 34.793 136.825 40.0928 145.295 40.0928C148.804 40.0928 152.434 39.2942 154.878 37.576L151.296 34.0186C149.481 34.6478 147.594 34.9382 145.682 34.914ZM143.988 16.9092C147.908 16.9092 150.014 19.2324 150.135 23.4432H137.115C137.89 19.3292 140.455 16.9092 143.964 16.9092H143.988Z" fill="#9AA6BA"/>
<path d="M35.136 22.8624V16.643H31.99V13.5212H25.7464V10.3994H19.5028V13.5212H13.2351V16.643H10.1133V35.3013H13.2351V38.4231H19.5028V41.5207H25.7706V38.3989H32.0384V35.2771H35.1844V29.0577H28.9166V32.1795H25.7948V35.3013H19.5028V32.2037H16.3569V19.7406H19.5028V16.6188H25.7706V19.7406H28.8924V22.8624H35.136Z" fill="#9AA6BA"/>
<path d="M25.8928 16.4736H23.7148V19.7406H25.8928V16.4736Z" fill="#9AA6BA"/>
<path d="M19.6506 10.3994H17.4727V13.6664H19.6506V10.3994Z" fill="#9AA6BA"/>
<path d="M13.3811 13.5212H11.2031V16.7882H13.3811V13.5212Z" fill="#9AA6BA"/>
<path d="M10.2842 25.9602H8.08203V35.3014H10.2842V25.9602Z" fill="#9AA6BA"/>
<path d="M10.2842 16.6189H8.08203V25.9601H10.2842V16.6189Z" fill="#9AA6BA"/>
<path d="M29.0393 19.5713H26.8613V22.8383H29.0393V19.5713Z" fill="#9AA6BA"/>
<path d="M29.0393 29.0818H26.8613V32.3488H29.0393V29.0818Z" fill="#9AA6BA"/>
<path d="M25.8928 32.1797H23.7148V35.4467H25.8928V32.1797Z" fill="#9AA6BA"/>
<path d="M19.6506 38.2537H17.4727V41.5207H19.6506V38.2537Z" fill="#9AA6BA"/>
<path d="M13.3811 35.1318H11.2031V38.3988H13.3811V35.1318Z" fill="#9AA6BA"/>
<path d="M35.136 22.8624V16.643H31.99V13.5212H25.7464V10.3994H19.5028V13.5212H13.2351V16.643H10.1133V35.3013H13.2351V38.4231H19.5028V41.5207H25.7706V38.3989H32.0384V35.2771H35.1844V29.0577H28.9166V32.1795H25.7948V35.3013H19.5028V32.2037H16.3569V19.7406H19.5028V16.6188H25.7706V19.7406H28.8924V22.8624H35.136Z" fill="#9AA6BA"/>
</svg>
