<svg width="194" height="52" viewBox="0 0 194 52" fill="none" xmlns="http://www.w3.org/2000/svg">
<g clip-path="url(#clip0_2087_6159)">
<path d="M110.891 41.4838L99.2848 12.3113C99.1936 12.0454 99.1454 11.7656 99.1422 11.4833C99.1205 10.8865 99.3252 10.3045 99.7124 9.8621C99.9116 9.65091 100.152 9.48626 100.417 9.37922C100.683 9.27216 100.967 9.22518 101.252 9.24141C101.683 9.24724 102.102 9.39168 102.45 9.65479C102.815 9.93602 103.101 10.3137 103.277 10.7484L114.313 39.3002L125.349 10.7484C125.525 10.3137 125.81 9.93602 126.176 9.65479C126.524 9.39168 126.942 9.24724 127.374 9.24141C127.658 9.22518 127.943 9.27216 128.208 9.37922C128.474 9.48626 128.714 9.65091 128.913 9.8621C129.301 10.3055 129.506 10.8889 129.483 11.4871C129.48 11.7693 129.432 12.0491 129.341 12.3151L117.734 41.4875C117.536 42.1291 117.148 42.6904 116.627 43.093C116.105 43.4956 115.476 43.7194 114.825 43.7332H113.799C113.148 43.7189 112.519 43.4943 111.997 43.0911C111.476 42.6878 111.089 42.1258 110.891 41.4838Z" fill="#9AA6BA"/>
<path d="M134.416 42.8418C134.219 42.6362 134.064 42.3914 133.962 42.1222C133.859 41.8528 133.809 41.5647 133.817 41.2752V11.7228C133.807 11.1298 134.022 10.5563 134.416 10.1264C134.609 9.91287 134.844 9.74448 135.104 9.6325C135.365 9.52053 135.646 9.46757 135.928 9.47718H154.783C155.049 9.46947 155.314 9.52087 155.56 9.62791C155.806 9.73495 156.027 9.89518 156.208 10.0979C156.402 10.2875 156.555 10.5168 156.658 10.7711C156.761 11.0255 156.812 11.2993 156.807 11.5751C156.814 11.8471 156.765 12.1176 156.661 12.3677C156.558 12.6178 156.403 12.8417 156.208 13.0238C156.02 13.2146 155.797 13.3649 155.552 13.4663C155.308 13.5677 155.046 13.6181 154.783 13.6147H138.095V24.3738H153.096C153.362 24.3661 153.627 24.4175 153.873 24.5246C154.119 24.6316 154.34 24.7918 154.521 24.9945C154.712 25.1858 154.864 25.4154 154.967 25.6694C155.07 25.9233 155.122 26.1963 155.12 26.4717C155.128 26.7437 155.078 27.0141 154.975 27.2642C154.871 27.5144 154.717 27.7383 154.521 27.9204C154.333 28.1111 154.11 28.2615 153.865 28.3628C153.621 28.4643 153.359 28.5147 153.096 28.5113H138.095V39.3274H154.783C155.049 39.3197 155.314 39.371 155.56 39.4781C155.806 39.5852 156.027 39.7454 156.208 39.9481C156.402 40.1377 156.555 40.367 156.658 40.6213C156.761 40.8757 156.812 41.1495 156.807 41.4254C156.814 41.6974 156.765 41.9677 156.661 42.2179C156.558 42.468 156.403 42.692 156.208 42.8741C156.02 43.0647 155.797 43.2152 155.552 43.3165C155.308 43.4179 155.046 43.4683 154.783 43.465H135.928C135.647 43.4863 135.365 43.4414 135.103 43.3334C134.841 43.2255 134.606 43.0573 134.416 42.8418Z" fill="#9AA6BA"/>
<path d="M101.906 40.6558L90.2995 11.4834C90.1001 10.8425 89.7127 10.282 89.1913 9.88013C88.6698 9.47825 88.0404 9.25497 87.3907 9.24146H86.364C85.7138 9.25523 85.084 9.47906 84.5625 9.88165C84.0412 10.2842 83.654 10.8455 83.4552 11.4871L78.408 24.1951H74.5863C74.0351 24.1983 73.5072 24.4268 73.1175 24.8306C72.7277 25.2345 72.5072 25.7815 72.5041 26.3526V26.3824C72.5072 26.9536 72.7277 27.5005 73.1175 27.9045C73.5072 28.3083 74.0351 28.5367 74.5863 28.5399H76.6397L71.82 40.657C71.7289 40.9231 71.6807 41.2028 71.6775 41.485C71.6548 42.0831 71.8596 42.6666 72.2477 43.11C72.4468 43.3212 72.6872 43.4859 72.9527 43.5929C73.2183 43.6999 73.5028 43.747 73.7872 43.7307C74.2182 43.7249 74.6368 43.5805 74.9852 43.3173C75.3504 43.0361 75.6359 42.6584 75.8118 42.2237L81.1167 28.5412H84.767C85.3183 28.538 85.8461 28.3095 86.2359 27.9057C86.6256 27.5018 86.8461 26.9548 86.8492 26.3837V26.3228C86.8461 25.7517 86.6256 25.2047 86.2359 24.8008C85.8461 24.397 85.3183 24.1685 84.767 24.1653H82.7999L86.8732 13.6744L97.9093 42.2261C98.0853 42.6609 98.3708 43.0386 98.736 43.3198C99.0843 43.583 99.5029 43.7273 99.934 43.7332C100.219 43.7494 100.503 43.7024 100.769 43.5954C101.034 43.4884 101.274 43.3236 101.473 43.1125C101.862 42.6691 102.066 42.0856 102.044 41.4875C102.057 41.2032 102.01 40.9193 101.906 40.6558Z" fill="#9AA6BA"/>
<path d="M67.2301 40.6558L55.6237 11.4834C55.4244 10.8425 55.0369 10.282 54.5155 9.88013C53.994 9.47825 53.3646 9.25497 52.7149 9.24146H51.6882C51.0381 9.25523 50.4083 9.47906 49.8868 9.88165C49.3653 10.2842 48.9782 10.8455 48.7794 11.4871L43.7322 24.1951H39.9105C39.3592 24.1983 38.8315 24.4268 38.4417 24.8306C38.0519 25.2345 37.8315 25.7815 37.8283 26.3526V26.3824C37.8315 26.9536 38.0519 27.5005 38.4417 27.9045C38.8315 28.3083 39.3592 28.5367 39.9105 28.5399H41.9639L37.1443 40.6558C37.0531 40.9218 37.0049 41.2015 37.0017 41.4838C36.9791 42.0819 37.1838 42.6653 37.572 43.1088C37.771 43.3199 38.0114 43.4847 38.2769 43.5917C38.5424 43.6987 38.8269 43.7457 39.1114 43.7295C39.5424 43.7236 39.9611 43.5792 40.3094 43.3161C40.6746 43.0349 40.9601 42.6572 41.1361 42.2224L46.4409 28.5399H50.12C50.6712 28.5367 51.1991 28.3083 51.5889 27.9045C51.9786 27.5005 52.1991 26.9536 52.2022 26.3824V26.3228C52.1991 25.7517 51.9786 25.2047 51.5889 24.8008C51.1991 24.397 50.6712 24.1685 50.12 24.1653H48.1517L52.201 13.6744L63.2371 42.2261C63.4131 42.6609 63.6986 43.0386 64.0638 43.3198C64.4121 43.583 64.8307 43.7273 65.2618 43.7332C65.5463 43.7494 65.8308 43.7024 66.0963 43.5954C66.3618 43.4884 66.6021 43.3236 66.8012 43.1125C67.1894 42.6691 67.3941 42.0856 67.3715 41.4875C67.3832 41.2029 67.3351 40.9191 67.2301 40.6558Z" fill="#9AA6BA"/>
</g>
<defs>
<clipPath id="clip0_2087_6159">
<rect width="121" height="36" fill="white" transform="translate(37 8)"/>
</clipPath>
</defs>
</svg>
