<svg width="194" height="52" viewBox="0 0 194 52" fill="none" xmlns="http://www.w3.org/2000/svg">
<path fill-rule="evenodd" clip-rule="evenodd" d="M97 52C111.359 52 123 40.3594 123 26C123 11.6406 111.359 0 97 0C82.6406 0 71 11.6406 71 26C71 40.3594 82.6406 52 97 52ZM89.4184 32.9056C87.8688 32.9056 86.6 32.5416 85.612 31.8136C84.6344 31.0752 84.1456 30.0144 84.1456 28.652C84.1456 28.3608 84.1768 28.0176 84.2392 27.6016C84.4056 26.6656 84.6448 25.5424 84.9568 24.2216C85.8408 20.644 88.1288 18.8552 91.8104 18.8552C92.8088 18.8552 93.7136 19.0216 94.504 19.3648C95.2944 19.6872 95.9184 20.1864 96.376 20.852C96.8336 21.5072 97.0624 22.2872 97.0624 23.192C97.0624 23.4624 97.0312 23.8056 96.9688 24.2216C96.7712 25.376 96.5424 26.5096 96.2616 27.6016C95.804 29.38 95.024 30.7216 93.9008 31.6056C92.788 32.4792 91.2904 32.9056 89.4184 32.9056ZM89.6992 30.0976C90.4272 30.0976 91.0408 29.8792 91.5504 29.4528C92.0704 29.0264 92.4448 28.3712 92.6632 27.4768C92.9648 26.2496 93.1936 25.1888 93.3496 24.2736C93.4016 24.0032 93.4328 23.7224 93.4328 23.4312C93.4328 22.2456 92.8192 21.6528 91.5816 21.6528C90.8536 21.6528 90.2296 21.8712 89.7096 22.2976C89.2 22.724 88.836 23.3792 88.6176 24.2736C88.3784 25.1472 88.1496 26.208 87.9104 27.4768C87.8584 27.7368 87.8272 28.0072 87.8272 28.2984C87.8168 29.5048 88.4512 30.0976 89.6992 30.0976ZM97.6344 32.5832C97.7176 32.6768 97.8216 32.7184 97.9672 32.7184H100.619C100.754 32.7184 100.879 32.6768 100.994 32.5832C101.118 32.4896 101.181 32.3752 101.212 32.2296L102.106 27.9552H104.738C106.443 27.9552 107.785 27.6016 108.762 26.884C109.761 26.1664 110.416 25.064 110.738 23.5664C110.811 23.2128 110.853 22.8696 110.853 22.5472C110.853 21.4136 110.406 20.5504 109.522 19.9472C108.648 19.3544 107.494 19.0528 106.048 19.0528H100.858C100.723 19.0528 100.598 19.0944 100.484 19.188C100.359 19.2816 100.286 19.396 100.266 19.5416L97.572 32.2296C97.5512 32.3648 97.572 32.4792 97.6344 32.5832ZM106.298 24.8144C105.892 25.116 105.424 25.2616 104.873 25.2616H102.637L103.375 21.7672H105.715C106.246 21.7672 106.63 21.8712 106.849 22.0792C107.067 22.2768 107.182 22.568 107.182 22.9424C107.182 23.1088 107.161 23.3064 107.119 23.5248C106.984 24.0864 106.714 24.5128 106.298 24.8144Z" fill="#9AA6BA"/>
</svg>
