<svg width="194" height="52" viewBox="0 0 194 52" fill="none" xmlns="http://www.w3.org/2000/svg">
<g clip-path="url(#clip0_1681_6684)">
<path d="M30.0172 34.7449C29.9965 34.7619 29.9758 34.7769 29.9551 34.792C29.9343 34.807 29.9117 34.8221 29.891 34.8372C29.8496 34.8654 29.8082 34.8936 29.7667 34.92L29.7517 34.9294C29.7178 34.952 29.682 34.9727 29.6462 34.9934C29.5935 35.0254 29.5426 35.0555 29.488 35.0838C29.1246 35.2852 28.7442 35.449 28.3544 35.592C27.9872 35.7276 27.6143 35.8443 27.2396 35.9497C26.701 36.1003 26.1549 36.2245 25.6069 36.3337C25.0721 36.441 24.5372 36.5314 23.9987 36.6104C23.4601 36.6895 22.9196 36.7535 22.3792 36.81C22.2021 36.8288 22.0251 36.8458 21.8462 36.8627C21.4903 36.8947 21.1344 36.9229 20.7785 36.9474C20.5996 36.9587 20.4226 36.97 20.2437 36.9813C19.8444 37.0039 19.4452 37.0208 19.046 37.034C18.9744 37.0359 18.901 37.0396 18.8275 37.0415C18.7616 37.0434 18.6938 37.0453 18.6279 37.0472C18.7918 36.8458 18.9556 36.6443 19.1044 36.4316C19.1251 36.4053 19.1477 36.3789 19.1684 36.3507C19.5055 35.897 19.8294 35.4339 20.1382 34.9614C20.1702 34.9614 20.2004 34.9576 20.2324 34.9558C20.4282 34.9445 20.6241 34.9332 20.8218 34.9181C20.9706 34.9087 21.1193 34.8974 21.2681 34.8861C22.3076 34.8052 23.3433 34.6903 24.3753 34.5284C24.6747 34.4814 24.9741 34.4306 25.2717 34.376C25.9666 34.2461 26.6577 34.0936 27.3375 33.8978C27.4863 33.8545 27.635 33.8093 27.7838 33.7642C27.8591 33.7416 27.9326 33.7171 28.006 33.6926C28.1171 33.7115 28.2207 33.7585 28.3243 33.798C28.4165 33.8319 28.5088 33.8677 28.6011 33.9035C28.8609 34.007 29.1171 34.1218 29.3656 34.2517C29.4636 34.3025 29.5596 34.3571 29.6538 34.4155C29.7799 34.4927 29.9023 34.5717 30.0172 34.664C30.0511 34.6903 30.0605 34.7016 30.0473 34.7167C30.0417 34.7242 30.0323 34.7317 30.0153 34.7449H30.0172Z" fill="#A8B6CC"/>
<path d="M20.3813 39.532C20.3606 39.5452 20.338 39.5452 20.3154 39.5376C20.3211 39.5339 20.3267 39.532 20.3305 39.5301C20.3399 39.5264 20.3474 39.5264 20.3568 39.5264C20.3643 39.5264 20.3737 39.5282 20.3813 39.532Z" fill="#5E93FF"/>
<path d="M20.2927 39.5378C20.2664 39.549 20.2382 39.5509 20.21 39.5415C20.2363 39.5246 20.2645 39.5265 20.2927 39.5378Z" fill="#5E93FF"/>
<path d="M20.1873 39.5415C20.161 39.5528 20.1328 39.5547 20.1064 39.5472C20.1328 39.5302 20.161 39.5321 20.1873 39.5415Z" fill="#5E93FF"/>
<path d="M20.0838 39.5472C20.0575 39.5603 20.0293 39.5603 20.0029 39.5509C20.0029 39.5509 20.0048 39.5509 20.0067 39.5509C20.033 39.5378 20.0594 39.5378 20.0857 39.5472H20.0838Z" fill="#5E93FF"/>
<path d="M19.9237 39.5452C19.9407 39.5415 19.9595 39.5452 19.9783 39.5509C19.9519 39.564 19.9237 39.564 19.8955 39.5546C19.9049 39.549 19.9124 39.5471 19.9218 39.5452H19.9237Z" fill="#5E93FF"/>
<path d="M19.8315 39.5491C19.8447 39.5491 19.8597 39.551 19.8729 39.5566C19.8465 39.5679 19.8202 39.5698 19.792 39.5604C19.8052 39.5528 19.8183 39.5491 19.8315 39.5491Z" fill="#5E93FF"/>
<path d="M19.7486 39.5547C19.7486 39.5547 19.7618 39.5585 19.7674 39.5604C19.7411 39.5735 19.7147 39.5735 19.6865 39.5641C19.7053 39.5529 19.726 39.551 19.7448 39.5547H19.7486Z" fill="#5E93FF"/>
<path d="M19.6623 39.5642C19.6303 39.5773 19.5983 39.5773 19.5645 39.5679C19.5964 39.5529 19.6284 39.5548 19.6623 39.5642Z" fill="#5E93FF"/>
<path d="M19.5408 39.5679C19.5145 39.581 19.4882 39.5791 19.46 39.5716C19.4863 39.5566 19.5126 39.5566 19.5408 39.5679Z" fill="#5E93FF"/>
<path d="M26.4956 33.2446C26.5088 33.2464 26.5238 33.2464 26.537 33.2483C26.5558 33.2483 26.5727 33.254 26.5859 33.2709C26.5501 33.2671 26.5144 33.2596 26.4824 33.2427C26.4843 33.2427 26.4862 33.2427 26.4899 33.2427C26.4918 33.2427 26.4937 33.2427 26.4956 33.2427V33.2446Z" fill="#5E93FF"/>
<path d="M11.398 41.9829C11.398 41.9829 11.4037 41.9942 11.4056 41.9998H10.8525C10.8525 41.9998 10.8582 41.9904 10.8619 41.9829C10.9071 41.9829 10.9504 41.9829 10.9955 41.9829C11.1291 41.9829 11.2626 41.9829 11.3962 41.9829H11.398Z" fill="#3180F4"/>
<path d="M28.0065 33.6928C27.933 33.7172 27.8577 33.7417 27.7842 33.7643C27.6355 33.8113 27.4867 33.8565 27.3379 33.8979C26.6581 34.0918 25.967 34.2462 25.2721 34.3761C24.9746 34.4307 24.6752 34.4815 24.3758 34.5286C23.3457 34.6905 22.3099 34.8053 21.2686 34.8862C21.1198 34.8975 20.971 34.9088 20.8223 34.9182C20.6264 34.9314 20.4306 34.9446 20.2328 34.9559C20.2008 34.9559 20.1707 34.9596 20.1387 34.9615C20.3515 34.6359 20.5586 34.3064 20.7601 33.9714C21.0501 33.4876 21.3251 32.9962 21.5887 32.4993C22.0896 32.5426 22.5905 32.5934 23.0914 32.6555C23.1291 32.6593 23.1649 32.6668 23.2026 32.6725C23.4266 32.6894 23.6489 32.7233 23.8692 32.7553C24.1535 32.7967 24.4379 32.8419 24.7222 32.8908C25.1045 32.9548 25.4868 33.0264 25.8672 33.1092C26.0725 33.1544 26.2777 33.1995 26.483 33.2447C26.515 33.2617 26.5508 33.2692 26.5866 33.273C27.0253 33.3859 27.4622 33.5026 27.8916 33.6457C27.9311 33.6589 27.9763 33.6626 28.0065 33.6965V33.6928Z" fill="#777F8B"/>
<path d="M7.77352 40.8686C7.76019 40.8686 7.74877 40.8648 7.73926 40.8535C7.73926 40.8535 7.74116 40.8535 7.74306 40.8535C7.74306 40.8535 7.74687 40.8535 7.74878 40.8535C7.74878 40.8535 7.75258 40.8535 7.75449 40.8535H7.75829C7.75829 40.8535 7.7621 40.8554 7.764 40.8573H7.76591C7.76591 40.8573 7.76971 40.8629 7.77162 40.8648L7.77352 40.8686Z" fill="#404A5A"/>
<path d="M7.74032 40.8537C7.72699 40.8537 7.71367 40.8518 7.70605 40.8386C7.70605 40.8386 7.71367 40.8386 7.71557 40.8386C7.71557 40.8386 7.7327 40.8443 7.73841 40.8537H7.74032Z" fill="#404A5A"/>
<path d="M7.7045 40.8371L7.70215 40.8347L7.7045 40.8371Z" fill="#404A5A"/>
<path d="M7.70413 40.8365C7.68891 40.8365 7.67558 40.8365 7.66797 40.8196C7.6832 40.8196 7.69462 40.8215 7.70223 40.8346L7.70413 40.8365Z" fill="#404A5A"/>
<path d="M7.67032 40.8203H7.66797V40.8179L7.67032 40.8203Z" fill="#404A5A"/>
<path d="M7.67032 40.8203L7.66797 40.8179H7.67032V40.8203Z" fill="#404A5A"/>
<path d="M7.67 40.8177C7.65478 40.8177 7.63955 40.8214 7.63574 40.8026C7.65097 40.7989 7.66429 40.8026 7.67191 40.8177H7.67Z" fill="#404A5A"/>
<path d="M7.53241 40.7312C7.54182 40.7368 7.5531 40.7425 7.56439 40.7481C7.57191 40.7519 7.58132 40.7556 7.58884 40.7594C7.60201 40.7669 7.61518 40.7744 7.62458 40.7876C7.62834 40.7914 7.63022 40.797 7.63399 40.8027C7.58696 40.7989 7.54746 40.7801 7.51172 40.75L7.53429 40.7312H7.53241Z" fill="#404A5A"/>
<path d="M10.7111 39.2386C10.6734 39.2442 10.6339 39.2517 10.5962 39.2555C10.4474 39.2762 10.2987 39.2875 10.1499 39.2913C10.099 39.2913 10.0501 39.2913 9.99924 39.2913C9.9484 39.2913 9.89943 39.2894 9.84859 39.2875C9.82599 39.2875 9.80528 39.2837 9.78456 39.2818C9.76385 39.28 9.74125 39.2762 9.72053 39.2743C9.69417 39.2724 9.67157 39.2611 9.65086 39.2423C9.59248 39.1877 9.5341 39.1331 9.47949 39.0767C9.89002 39.1369 10.3005 39.1896 10.7111 39.2386Z" fill="#F1ECE2"/>
<path d="M17.1683 32.311C16.8726 32.311 16.5769 32.3148 16.2832 32.3204C15.7917 33.0828 15.2606 33.817 14.6825 34.5173C14.5601 34.6641 14.4377 34.8091 14.3115 34.9521C13.9933 35.3136 13.6637 35.6618 13.3153 35.995C13.0122 36.2868 12.6977 36.5654 12.3681 36.8271C12.112 37.0323 11.8484 37.228 11.5734 37.4087C11.0669 37.7438 10.5377 38.0318 9.9671 38.2427C9.6771 38.3481 9.38144 38.4347 9.07826 38.4855C9.06131 38.4893 9.04436 38.4949 9.0293 38.5006C9.0293 38.5062 9.03118 38.5119 9.03306 38.5156C9.03306 38.5194 9.03306 38.5213 9.03683 38.525C9.05943 38.5589 9.08014 38.5909 9.10274 38.6229C9.14793 38.6869 9.19501 38.7509 9.24398 38.8131C9.31742 38.9053 9.39651 38.9938 9.47749 39.0804C9.88801 39.1406 10.2985 39.1933 10.7091 39.2423C10.8183 39.2253 10.9275 39.2046 11.0367 39.1783C11.2872 39.118 11.532 39.0408 11.7693 38.9486C11.8879 38.9015 12.0066 38.8526 12.1233 38.7999C12.2401 38.7472 12.3549 38.6888 12.4679 38.6305C12.5169 38.6041 12.5658 38.5778 12.6148 38.5514C12.9557 38.3632 13.2833 38.1542 13.5959 37.9283C13.9104 37.7024 14.2117 37.4577 14.5036 37.2017C14.545 37.164 14.5865 37.1283 14.6279 37.0906C14.658 37.0624 14.6882 37.0341 14.7202 37.0059C14.9085 36.8346 15.0911 36.6576 15.27 36.4769C15.3397 36.4073 15.4075 36.3357 15.4772 36.2642C15.7013 36.0289 15.9216 35.7879 16.1344 35.5413C16.2625 35.3926 16.3868 35.2439 16.511 35.0914C16.5261 35.0726 16.5412 35.0538 16.5562 35.0368C16.641 34.9314 16.7238 34.826 16.8067 34.7187C17.0666 34.3817 17.3189 34.0373 17.56 33.6871C17.6899 33.497 17.8179 33.3069 17.9441 33.113C18.0138 33.0038 18.0835 32.8946 18.1513 32.7854C18.2454 32.6348 18.3377 32.4842 18.43 32.3317C18.0081 32.3223 17.5882 32.3167 17.1664 32.3167L17.1683 32.311Z" fill="#A8B6CC"/>
<path d="M5.92498 40.0442C5.91166 40.0461 5.90024 40.0442 5.89453 40.0292C5.90976 40.0254 5.92118 40.0292 5.92498 40.0442Z" fill="#C18B00"/>
<path d="M14.6662 32.3732C14.4553 32.3826 14.2444 32.3939 14.0335 32.4071C13.8018 32.7346 13.5627 33.0565 13.3141 33.3709C13.0693 33.6796 12.8188 33.9827 12.5552 34.2764C12.4064 34.4439 12.2539 34.6077 12.1013 34.7715C11.9921 34.8863 11.881 35.0011 11.768 35.1122C11.3142 35.5546 10.8396 35.9743 10.3293 36.3508C10.2446 36.413 10.1598 36.4751 10.0713 36.5353C9.78507 36.7349 9.48754 36.9193 9.18058 37.085C8.95837 37.2055 8.72863 37.3128 8.49512 37.4107C8.49512 37.422 8.49512 37.4333 8.49888 37.4446C8.5309 37.5349 8.56668 37.6234 8.60434 37.71C8.642 37.7985 8.68155 37.8832 8.72298 37.9698C8.80584 38.1411 8.89811 38.3067 9.00168 38.4686C9.00922 38.4818 9.02052 38.4893 9.02993 38.4987C9.04688 38.4931 9.06194 38.4874 9.07889 38.4837C9.38396 38.4328 9.67962 38.3463 9.96774 38.2408C10.5383 38.0319 11.0694 37.742 11.5741 37.4069C11.849 37.2243 12.1126 37.0304 12.3687 36.8252C12.6964 36.5636 13.0109 36.285 13.316 35.9932C13.6644 35.66 13.9939 35.3117 14.3122 34.9503C14.4383 34.8072 14.5607 34.6623 14.6831 34.5154C15.2613 33.817 15.7923 33.081 16.2838 32.3186C15.7452 32.328 15.2048 32.345 14.6662 32.3713V32.3732Z" fill="#777F8B"/>
<path d="M25.2677 24.2614C25.2847 24.2614 25.3035 24.2614 25.2922 24.2351C25.2997 24.2351 25.3091 24.237 25.3166 24.2389C25.311 24.2389 25.3072 24.2389 25.3054 24.2426C25.2978 24.2483 25.2978 24.2596 25.2997 24.2708C25.2884 24.2708 25.279 24.2708 25.2677 24.269C25.2621 24.269 25.2546 24.269 25.2489 24.269C25.2358 24.269 25.2226 24.2671 25.2094 24.2652C25.1793 24.2614 25.1492 24.2558 25.1191 24.2483C25.1699 24.2445 25.2188 24.2633 25.2677 24.2652V24.2614Z" fill="#E7AA24"/>
<path d="M11.781 32.6008C11.732 32.6065 11.683 32.6121 11.6341 32.6159C11.1463 33.2352 10.6247 33.8263 10.0616 34.3816C10.0259 34.4174 9.99008 34.4513 9.95242 34.487C9.96937 34.4889 9.98632 34.4927 10.0014 34.4964C9.98443 34.4946 9.96748 34.4908 9.95054 34.4889C9.53624 34.888 9.10312 35.2626 8.63987 35.6052C8.47038 35.7295 8.30278 35.8556 8.12012 35.961C8.12012 35.9817 8.122 36.0005 8.12577 36.0212C8.12577 36.0269 8.12577 36.0325 8.12577 36.0382C8.12953 36.0608 8.13518 36.0834 8.13895 36.106C8.14272 36.1248 8.1446 36.1417 8.14836 36.1605C8.15778 36.2057 8.16531 36.2528 8.17473 36.298C8.22746 36.5596 8.2896 36.8175 8.36869 37.0717C8.40447 37.1865 8.43272 37.3032 8.48921 37.4086C8.72272 37.3107 8.95247 37.2034 9.17468 37.083C9.48352 36.9173 9.77917 36.7328 10.0654 36.5333C10.152 36.473 10.2387 36.4128 10.3234 36.3488C10.8337 35.9723 11.3083 35.5544 11.7621 35.1101C11.8751 34.9991 11.9862 34.8842 12.0954 34.7694C12.2499 34.6075 12.4005 34.4419 12.5493 34.2743C12.8129 33.9807 13.0634 33.6776 13.3082 33.3689C13.5568 33.0545 13.7959 32.7326 14.0275 32.405C13.2762 32.4502 12.5248 32.5142 11.7772 32.597L11.781 32.6008Z" fill="#4E545C"/>
<path d="M10.0018 34.4947C9.98458 34.4928 9.96739 34.489 9.9502 34.4871C9.96739 34.489 9.98458 34.4928 9.99986 34.4947H10.0018Z" fill="#F1ECE2"/>
<path d="M9.95362 34.4853C9.9326 34.4815 9.91159 34.4777 9.88867 34.4739L9.95362 34.4853Z" fill="#FF1100"/>
<path d="M23.37 24.0017C23.7655 24.0507 24.1591 24.0977 24.5545 24.1467C24.5527 24.1504 24.5489 24.1542 24.5451 24.158C24.3003 24.1278 24.0536 24.0996 23.8088 24.0676C23.7373 24.0582 23.6657 24.0525 23.5941 24.045C23.5226 24.0375 23.451 24.0299 23.3813 24.0149C23.3776 24.0111 23.3738 24.0055 23.3682 24.0017H23.37Z" fill="#007FFF"/>
<path d="M32.7762 33.1523C32.7762 32.6102 32.7762 32.068 32.7762 31.524C32.7404 31.3734 32.6952 31.2247 32.6105 31.0929C32.4749 30.8783 32.3129 30.6882 32.1114 30.5319C31.9005 30.3681 31.684 30.2138 31.4504 30.0839C31.1303 29.9051 30.797 29.7526 30.4637 29.602C30.4034 29.5756 30.3432 29.5624 30.2829 29.538C29.5278 29.2424 28.75 29.0203 27.9629 28.8302C27.4582 28.7078 26.9516 28.6024 26.4413 28.5064C25.8688 28.3991 25.2944 28.3068 24.7182 28.2278C24.3209 28.1732 23.9235 28.1242 23.5243 28.0791C23.3473 28.0602 23.1703 28.0395 22.9914 28.0226C22.4886 27.9736 21.9876 27.9285 21.4848 27.8927C21.1873 27.8701 20.8916 27.8513 20.5941 27.8362C20.3418 27.8231 20.0894 27.8099 19.8371 27.7986C19.4397 27.7798 19.0424 27.7666 18.6451 27.7572C18.6168 27.7572 18.5867 27.7572 18.5584 27.7553C17.9313 27.7421 17.3024 27.7383 16.6753 27.7421C16.6659 27.7421 16.6546 27.7421 16.6451 27.7421C15.9992 27.7478 15.3533 27.7628 14.7074 27.7892C14.6678 27.7892 14.6302 27.7929 14.5925 27.7948C13.828 27.8268 13.0653 27.8758 12.3045 27.9398C11.1859 28.0339 10.0711 28.1619 8.96003 28.337C8.93366 28.3407 8.9073 28.3445 8.88094 28.3501C8.83762 28.5007 8.79996 28.6532 8.74535 28.8001C8.70769 28.9506 8.67002 29.1012 8.63236 29.2518C8.53067 29.6509 8.4384 30.0538 8.35742 30.4566L8.5269 30.4284C8.60035 30.4152 8.67567 30.4039 8.74912 30.3907C8.85834 30.3719 8.96944 30.355 9.07867 30.338C9.47601 30.2759 9.87524 30.2213 10.2745 30.1705C10.6737 30.1197 11.0729 30.0764 11.474 30.0349C11.7414 30.0086 12.0088 29.9841 12.2762 29.9615C12.6811 29.9276 13.086 29.8994 13.4928 29.8731C13.875 29.8505 14.2554 29.8298 14.6377 29.8147C14.7356 29.8109 14.8336 29.8053 14.9315 29.8015C15.0765 29.7959 15.2234 29.7921 15.3703 29.7865C15.4644 29.7846 15.5586 29.7808 15.6527 29.7789C15.9973 29.7714 16.3401 29.7658 16.6847 29.762C16.8146 29.762 16.9427 29.762 17.0726 29.7601C17.2948 29.7601 17.517 29.7601 17.7374 29.762C17.8183 29.762 17.8974 29.762 17.9784 29.7639C18.065 29.7639 18.1517 29.7658 18.2383 29.7676C18.4737 29.7714 18.7072 29.777 18.9426 29.7846C19.178 29.7921 19.4115 29.7996 19.6469 29.8091C19.6864 29.8091 19.7241 29.8128 19.7636 29.8147C20.016 29.826 20.2664 29.8373 20.5188 29.8523C20.7127 29.8636 20.9048 29.8749 21.0988 29.8881C21.3888 29.9069 21.6788 29.9276 21.9688 29.9521C22.2362 29.9747 22.5017 29.9992 22.7691 30.0255C22.7786 30.0255 22.788 30.0255 22.7974 30.0274C22.9895 30.0462 23.1797 30.0651 23.3717 30.0839C23.6787 30.114 23.9838 30.1517 24.2907 30.1912C24.5958 30.2307 24.9009 30.2759 25.2059 30.3211C25.3321 30.3399 25.4602 30.3587 25.5863 30.3794C25.9648 30.4397 26.3452 30.5093 26.7219 30.5827C26.9441 30.626 27.1644 30.6712 27.3866 30.7202C27.6069 30.7691 27.8273 30.8181 28.0476 30.8726C28.3809 30.9555 28.7142 31.0421 29.0419 31.14C29.4807 31.2698 29.9138 31.4129 30.3394 31.5823C30.4467 31.6237 30.5522 31.6689 30.6576 31.7141C30.8177 31.7838 30.9759 31.8591 31.1322 31.9362C31.1699 31.9551 31.2094 31.9739 31.2471 31.9946C31.2772 32.0097 31.3073 32.0247 31.3375 32.0398C31.377 32.0586 31.4165 32.0793 31.4561 32.1019C31.5051 32.1282 31.554 32.1565 31.6011 32.1885C31.7781 32.3108 31.9589 32.4257 32.1227 32.565C32.1604 32.597 32.1981 32.6309 32.2338 32.6647C32.2771 32.7005 32.3167 32.7382 32.3562 32.7777C32.4203 32.8417 32.4805 32.9114 32.5333 32.9848C32.5596 33.0205 32.5841 33.0563 32.6048 33.0958C32.6236 33.1278 32.6425 33.1617 32.6594 33.1956C32.6764 33.2295 32.6914 33.2653 32.7065 33.301C32.7216 33.3368 32.7348 33.3726 32.7461 33.4102C32.7536 33.4366 32.763 33.4629 32.7705 33.4893C32.7705 33.4893 32.7705 33.4893 32.7705 33.493V33.4893C32.7912 33.3801 32.7781 33.269 32.7799 33.158L32.7762 33.1523Z" fill="#A8B6CC"/>
<path d="M32.7817 31.3096C32.7817 30.8992 32.7817 30.487 32.7817 30.0766C32.7817 29.8865 32.7798 29.6963 32.7779 29.5081C32.7459 29.4008 32.7233 29.2916 32.6725 29.1881C32.5482 28.932 32.3636 28.725 32.1489 28.5424C31.9154 28.341 31.6556 28.1734 31.3844 28.0247C30.9908 27.8082 30.5822 27.6237 30.1622 27.4675C29.6745 27.2868 29.1792 27.1268 28.6783 26.9912C28.2941 26.8877 27.91 26.7917 27.5221 26.7032C27.0814 26.6034 26.637 26.515 26.1926 26.4378C25.7293 26.3568 25.2679 26.2797 24.8009 26.2157C24.5806 26.1855 24.3603 26.1554 24.1399 26.1291C23.6465 26.0651 23.1513 26.0105 22.656 25.9672C22.5637 25.9596 22.4733 25.9446 22.3811 25.9389C22.0063 25.9107 21.6316 25.8825 21.2587 25.8561C21.206 25.8523 21.1514 25.8486 21.0986 25.8448C20.8482 25.826 20.5996 25.809 20.3492 25.7959C20.0234 25.7789 19.6995 25.7676 19.3737 25.7563C19.3699 25.7563 19.368 25.7563 19.3643 25.7563C19.0253 25.745 18.6845 25.7319 18.3455 25.7262C18.0461 25.7206 17.7466 25.7187 17.4472 25.7168C17.3154 25.7168 17.1836 25.7168 17.0518 25.7168C16.5264 25.7168 16.0029 25.7243 15.4775 25.7394C15.4699 25.7394 15.4624 25.7394 15.4549 25.7394C14.8391 25.7582 14.2233 25.7827 13.6094 25.8222C13.1367 25.8523 12.664 25.8787 12.1914 25.9182C12.0012 25.9352 11.8091 25.9578 11.6189 25.9766C10.9541 26.0425 10.2913 26.1196 9.6284 26.2138C9.62087 26.2138 9.61333 26.2157 9.6058 26.2175C9.34216 26.9009 9.103 27.5955 8.89397 28.3014C8.88832 28.3184 8.88456 28.3372 8.87891 28.3541C8.90527 28.3504 8.93163 28.3447 8.958 28.341C10.0672 28.1659 11.182 28.0379 12.3025 27.9438C13.0651 27.8797 13.8278 27.8327 14.5905 27.7988C14.6282 27.7988 14.6677 27.795 14.7054 27.7932C15.3513 27.7668 15.9972 27.7517 16.6431 27.7461C16.6525 27.7461 16.6638 27.7461 16.6732 27.7461C17.3022 27.7404 17.9293 27.7461 18.5564 27.7593C18.5846 27.7593 18.6129 27.7593 18.643 27.7612C19.0404 27.7706 19.4377 27.7837 19.8351 27.8026C20.0874 27.8139 20.3397 27.827 20.5921 27.8402C20.8896 27.8572 21.1853 27.876 21.4828 27.8967C21.9856 27.9325 22.4884 27.9776 22.9893 28.0266C23.1663 28.0435 23.3434 28.0623 23.5223 28.0831C23.9215 28.1282 24.3188 28.1772 24.7162 28.2318C25.2924 28.3108 25.8668 28.4031 26.4392 28.5104C26.9496 28.6064 27.4561 28.7099 27.9608 28.8342C28.748 29.0262 29.5257 29.2483 30.2809 29.542C30.3411 29.5646 30.4014 29.5796 30.4616 29.606C30.795 29.7566 31.1283 29.9072 31.4484 30.0879C31.6819 30.2178 31.8966 30.3721 32.1094 30.5359C32.3109 30.6921 32.4729 30.8842 32.6084 31.0969C32.6932 31.2305 32.7403 31.3774 32.7742 31.528C32.7873 31.4564 32.7798 31.3849 32.7798 31.3134L32.7817 31.3096Z" fill="#777F8B"/>
<path d="M21.1295 15.7754C21.4026 16.2028 21.6003 16.664 21.751 17.1478C21.7981 17.2984 21.8395 17.449 21.8772 17.5996C21.9393 17.8518 21.9883 18.1078 22.0278 18.3657C22.0391 18.441 22.0504 18.5163 22.0598 18.5916C22.0786 18.7422 22.0956 18.8947 22.1088 19.0472C22.1144 19.1225 22.122 19.1996 22.1257 19.2749C22.154 19.6891 22.1653 20.1032 22.154 20.5174C22.1427 20.9522 22.1163 21.3852 22.073 21.8182C22.0297 22.2492 21.9694 22.6766 21.8979 23.102C21.8546 23.358 21.8075 23.6121 21.7566 23.8663C21.3461 23.8343 20.9356 23.806 20.5251 23.7853C20.3273 23.7759 20.1296 23.7665 19.9319 23.7552C20.0656 23.1811 20.1786 22.6013 20.2671 22.0177C20.365 21.3701 20.4328 20.7207 20.4591 20.0693C20.4799 19.514 20.478 18.9587 20.4328 18.4034C20.3951 17.9403 20.333 17.4828 20.2332 17.0292C20.1221 16.519 19.9639 16.0239 19.7379 15.5514C19.6494 15.3632 19.5439 15.1844 19.4385 15.0074C19.5251 14.9792 19.6155 14.9773 19.7021 14.9679C19.7492 14.9622 19.7944 14.9585 19.8415 14.9566C19.881 14.9547 19.9206 14.9528 19.9601 14.9509C20.0241 14.9509 20.0882 14.9509 20.1522 14.9509C20.1974 14.9509 20.2426 14.9547 20.2878 14.9566C20.3217 14.9566 20.3575 14.9603 20.3913 14.9622C20.397 14.9622 20.4026 14.9622 20.4083 14.9641C20.4196 14.966 20.429 14.9698 20.4384 14.9735C20.4478 14.9773 20.4573 14.9829 20.4667 14.9886C20.4799 14.9961 20.493 15.0074 20.5043 15.0187C20.5345 15.0469 20.5646 15.0752 20.5928 15.1034C20.6512 15.1618 20.7077 15.2201 20.7623 15.2822C20.8979 15.4366 21.0203 15.6004 21.1314 15.7736L21.1295 15.7754Z" fill="#A8B6CC"/>
<path d="M20.2283 17.0312C20.3281 17.4849 20.3902 17.9423 20.4279 18.4054C20.4731 18.9607 20.4768 19.516 20.4542 20.0714C20.4298 20.7246 20.3601 21.374 20.2622 22.0197C20.1736 22.6052 20.0607 23.1831 19.927 23.7572C19.7763 23.7497 19.6275 23.7422 19.4769 23.7365C19.1341 23.7233 18.7914 23.7158 18.4487 23.7083C18.3206 23.7064 18.1926 23.7026 18.0664 23.7007C18.1907 23.2301 18.3018 22.7558 18.396 22.2776C18.4675 21.9199 18.5297 21.5604 18.5843 21.199C18.6201 20.958 18.6521 20.7152 18.6784 20.4723C18.7067 20.2182 18.7293 19.9641 18.7462 19.708C18.7632 19.4351 18.7745 19.1621 18.7801 18.8892C18.7858 18.524 18.7745 18.1588 18.7481 17.7936C18.7312 17.5526 18.7067 17.3135 18.6765 17.0726C18.6351 16.745 18.5749 16.4194 18.4976 16.0994C18.4355 15.8415 18.3639 15.5873 18.2698 15.3388C18.3357 15.2974 18.411 15.2767 18.4826 15.2504C18.6295 15.1958 18.7782 15.1487 18.927 15.1073C19.0777 15.0659 19.2302 15.032 19.3846 15.0056C19.3959 15.0038 19.4053 15.0019 19.4166 15C19.4223 15 19.4298 15 19.4355 15.0019C19.5409 15.1807 19.6464 15.3596 19.7349 15.5459C19.9609 16.0184 20.119 16.5135 20.2301 17.0236L20.2283 17.0312Z" fill="#777F8B"/>
<path d="M24.5382 16.1922C24.5382 16.1922 24.5342 16.1882 24.5342 16.1861C24.5342 16.1861 24.5342 16.1841 24.5342 16.1821L24.5402 16.1861V16.1922H24.5382Z" fill="#3180F4"/>
<path d="M32.7738 35.4377C32.7738 35.4113 32.7775 35.3869 32.7775 35.3605C32.7775 34.937 32.7775 34.5115 32.7775 34.088C32.7775 33.9054 32.7738 33.7209 32.7738 33.5383C32.7738 33.527 32.7794 33.5157 32.7775 33.5044C32.7775 33.5044 32.77 33.4912 32.7681 33.4856C32.7606 33.4592 32.7512 33.4329 32.7436 33.4065C32.7323 33.3689 32.7192 33.3331 32.7041 33.2973C32.689 33.2616 32.674 33.2258 32.657 33.1919C32.6401 33.158 32.6212 33.1242 32.6024 33.0921C32.5798 33.0545 32.5553 33.0169 32.5308 32.9811C32.4781 32.9077 32.4197 32.8399 32.3538 32.774C32.3143 32.7345 32.2747 32.6968 32.2314 32.6611C32.1956 32.6253 32.1599 32.5933 32.1203 32.5613C31.9565 32.422 31.7757 32.3072 31.5987 32.1848C31.5516 32.1528 31.5045 32.1246 31.4537 32.0982C31.4141 32.0775 31.3765 32.0568 31.335 32.0361C31.3049 32.021 31.2748 32.006 31.2447 31.9909C31.207 31.9721 31.1674 31.9533 31.1298 31.9326C30.9735 31.8554 30.8153 31.7801 30.6552 31.7104C30.5498 31.6652 30.4443 31.6219 30.337 31.5786C29.9114 31.4092 29.4783 31.2643 29.0395 31.1363C28.7099 31.0384 28.3785 30.9518 28.0452 30.869C27.8249 30.8144 27.6064 30.7635 27.3842 30.7165C27.1639 30.6694 26.9417 30.6224 26.7195 30.5791C26.3428 30.5038 25.9624 30.436 25.5839 30.3758C25.4577 30.355 25.3316 30.3362 25.2035 30.3174C24.8984 30.2722 24.5934 30.227 24.2883 30.1875C23.9832 30.1461 23.6763 30.1103 23.3693 30.0802C23.1773 30.0614 22.9871 30.0426 22.795 30.0237C22.7856 30.0237 22.7761 30.0237 22.7667 30.0219C22.4993 29.9955 22.2338 29.971 21.9664 29.9484C21.6764 29.9258 21.3864 29.9051 21.0964 29.8844C20.9024 29.8713 20.7103 29.86 20.5164 29.8487C20.264 29.8355 20.0136 29.8223 19.7612 29.811C19.7217 29.811 19.684 29.8073 19.6445 29.8054C19.4091 29.796 19.1756 29.7865 18.9402 29.7809C18.7048 29.7734 18.4713 29.7677 18.2359 29.764C18.1493 29.764 18.0626 29.7621 17.976 29.7602C17.895 29.7602 17.8159 29.7602 17.735 29.7583C17.5127 29.7583 17.2905 29.7564 17.0702 29.7564C16.9403 29.7564 16.8103 29.7564 16.6823 29.7583C16.3377 29.7602 15.9949 29.7658 15.6503 29.7752C15.5562 29.7771 15.462 29.779 15.3678 29.7828C15.221 29.7865 15.076 29.7922 14.9291 29.7978C14.8311 29.8016 14.7332 29.8054 14.6353 29.811C14.253 29.828 13.8726 29.8468 13.4903 29.8694C13.0855 29.8938 12.6787 29.924 12.2738 29.9578C12.0064 29.9804 11.739 30.0049 11.4716 30.0313C11.0705 30.0708 10.6713 30.116 10.272 30.1668C9.87282 30.2176 9.4736 30.2722 9.07625 30.3343C8.96515 30.3513 8.85592 30.3701 8.7467 30.387C8.67326 30.3983 8.59793 30.4115 8.52449 30.4247L8.35501 30.4529C8.43598 30.0482 8.52826 29.6472 8.62995 29.2482C8.66761 29.0976 8.70527 28.947 8.74294 28.7964C8.79755 28.6495 8.83521 28.4971 8.87852 28.3465C8.88417 28.3295 8.88794 28.3107 8.89359 28.2937C9.10262 27.5897 9.34178 26.8951 9.60542 26.2099C9.77302 25.775 9.95191 25.3458 10.1402 24.9204C10.2664 24.6342 10.3982 24.3519 10.5338 24.0695C10.9839 23.1414 11.481 22.2397 12.0347 21.3644C12.5507 20.5455 13.1137 19.7605 13.7295 19.0132C13.7427 18.9981 13.7521 18.9812 13.7634 18.9643C13.948 18.7515 14.1306 18.5369 14.3208 18.3299C14.9385 17.6465 15.6014 17.0159 16.3377 16.4606C16.5184 16.325 16.7068 16.1952 16.8913 16.0634C16.9083 16.0521 16.929 16.0502 16.9497 16.0483C16.9591 16.022 16.9836 16.0107 17.0043 15.9956C17.3847 15.7528 17.7783 15.5363 18.1944 15.3631C18.2095 15.3575 18.2227 15.3499 18.2396 15.3443C18.2434 15.3443 18.2491 15.3424 18.2547 15.3405C18.2604 15.3405 18.2641 15.3405 18.2698 15.3405C18.3357 15.2991 18.411 15.2784 18.4826 15.252C18.6295 15.1974 18.7782 15.1504 18.927 15.109C19.0776 15.0676 19.2302 15.0337 19.3846 15.0073C19.3959 15.0054 19.4053 15.0036 19.4166 15.0017C19.4223 15.0017 19.4298 15.0017 19.4354 15.0036C19.5221 14.9753 19.6125 14.9734 19.6991 14.964C19.7462 14.9584 19.7914 14.9546 19.8384 14.9527C19.878 14.9508 19.9175 14.949 19.9571 14.9471C20.0211 14.9471 20.0851 14.9471 20.1492 14.9471C20.1943 14.9471 20.2395 14.9508 20.2847 14.9527C20.3186 14.9527 20.3544 14.9565 20.3883 14.9584C20.394 14.9584 20.3996 14.9584 20.4053 14.9603C20.4166 14.9621 20.426 14.9659 20.4354 14.9697C20.4448 14.9734 20.4542 14.9791 20.4636 14.9847C20.4768 14.9923 20.49 15.0036 20.5013 15.0149C20.5314 15.0431 20.5616 15.0713 20.5898 15.0996C20.6482 15.1579 20.7047 15.2163 20.7593 15.2784C20.8949 15.4328 21.0173 15.5965 21.1284 15.7697C21.4014 16.197 21.5992 16.6582 21.7498 17.142C21.7969 17.2926 21.8383 17.4432 21.876 17.5938C21.9381 17.8461 21.9871 18.1021 22.0267 18.36C22.038 18.4353 22.0492 18.5106 22.0587 18.5859C22.0775 18.7365 22.0944 18.889 22.1076 19.0414C22.1133 19.1167 22.1208 19.1939 22.1246 19.2692C22.1528 19.6834 22.1641 20.0975 22.1528 20.5116C22.1415 20.9465 22.1152 21.3795 22.0718 21.8124C22.0285 22.2435 21.9683 22.6708 21.8967 23.0963C21.8534 23.3523 21.8063 23.6064 21.7555 23.8605C21.8214 23.8662 21.8873 23.87 21.9551 23.8756C22.4315 23.9151 22.908 23.9622 23.3825 24.0074C23.3788 24.0036 23.375 23.998 23.3693 23.9942C23.7648 24.0431 24.1584 24.0902 24.5538 24.1392C24.552 24.1429 24.5482 24.1467 24.5444 24.1504C24.5689 24.1542 24.5915 24.158 24.616 24.1599C24.6951 23.7702 24.7666 23.3786 24.8269 22.9852C24.8815 22.6332 24.9267 22.2793 24.9644 21.9235C25.0001 21.5922 25.0303 21.259 25.0453 20.9258C25.0529 20.7658 25.0623 20.6039 25.0717 20.4439C25.0717 20.4232 25.0623 20.3949 25.0943 20.3855C25.0943 20.0862 25.0943 19.7869 25.0924 19.4876C25.0755 19.4819 25.0755 19.4669 25.0736 19.4518C25.0698 19.3916 25.0623 19.3313 25.0604 19.2711C25.0491 18.8363 25.0077 18.4052 24.9493 17.9741C24.8853 17.4978 24.7892 17.0272 24.6574 16.566C24.6254 16.4512 24.5971 16.3326 24.5463 16.2234L24.535 16.1839C24.535 16.1839 24.5312 16.1801 24.5312 16.1782C24.5312 16.1782 24.5312 16.1763 24.5312 16.1744C24.5275 16.1613 24.5256 16.1462 24.5218 16.133C24.3297 15.5815 24.0812 15.0581 23.7365 14.5819C23.4051 14.1244 23.0059 13.7385 22.5144 13.4543C22.3298 13.347 22.1302 13.2717 21.94 13.1757C21.9231 13.1682 21.9005 13.1682 21.8816 13.1644C21.8647 13.1418 21.8383 13.1362 21.8157 13.1267C21.3694 12.9291 20.9231 12.7314 20.4749 12.5338C20.4166 12.5093 20.3657 12.4698 20.2998 12.4622C20.2885 12.4585 20.2791 12.4547 20.2678 12.4509C20.1925 12.4265 20.1134 12.4095 20.0399 12.3738C20.0343 12.3719 20.0267 12.37 20.0211 12.3662C20.0173 12.3662 20.0136 12.3643 20.0117 12.3625H20.0098C20.0098 12.3625 19.9966 12.3643 19.991 12.3568C19.8479 12.321 19.7028 12.2928 19.5578 12.2721C19.4524 12.257 19.3469 12.2457 19.2415 12.2401C19.2057 12.2382 19.1699 12.2363 19.136 12.2363C19.0306 12.2345 18.9251 12.2363 18.8197 12.2401C18.6803 12.2457 18.5409 12.2589 18.4035 12.2777C18.1606 12.3116 17.9214 12.3625 17.6841 12.4283C17.6502 12.4378 17.6163 12.4472 17.5824 12.4585C17.1361 12.5902 16.7086 12.771 16.2981 12.9818C16.1607 13.0533 16.0251 13.1267 15.8914 13.2039C15.769 13.2736 15.6484 13.347 15.5279 13.4223C15.4884 13.4468 15.4488 13.4731 15.4093 13.4976C15.3697 13.5239 15.3302 13.5484 15.2925 13.5748C15.2134 13.6275 15.1362 13.6802 15.0609 13.7367C15.0232 13.7649 14.9856 13.7912 14.946 13.8195C14.946 13.8214 14.946 13.8251 14.946 13.827C14.946 13.8289 14.9441 13.8308 14.9423 13.8327C14.9404 13.8345 14.9347 13.8364 14.9291 13.8364V13.8421C14.9291 13.8421 14.9272 13.8477 14.9253 13.8496C14.9253 13.8496 14.9215 13.8496 14.9178 13.8496C14.9178 13.8496 14.9159 13.8496 14.914 13.8496C14.7464 13.9663 14.5826 14.0906 14.4225 14.2186C14.3509 14.275 14.2813 14.3334 14.2116 14.3918C14.2003 14.4012 14.189 14.4106 14.1796 14.42C14.108 14.4802 14.0365 14.5424 13.9668 14.6045C13.9668 14.6045 13.9668 14.6082 13.9668 14.6101C13.9668 14.6139 13.9649 14.6177 13.9611 14.6214C13.9611 14.6214 13.9611 14.6214 13.9574 14.6214C13.9555 14.6214 13.9536 14.6214 13.9498 14.6214C13.948 14.6252 13.9442 14.6289 13.9423 14.6327C13.9385 14.6365 13.9348 14.6402 13.931 14.644C13.9254 14.6478 13.9178 14.6515 13.9103 14.6534C13.9103 14.6628 13.9084 14.6666 13.9046 14.6704C13.899 14.6741 13.8877 14.6704 13.8802 14.6722C13.8538 14.7005 13.8255 14.7268 13.7992 14.7551C13.7992 14.757 13.7954 14.7588 13.7935 14.7607C13.7935 14.7607 13.7935 14.7626 13.7935 14.7645C13.7935 14.7682 13.7917 14.7701 13.7898 14.7739C13.7898 14.7739 13.7841 14.7777 13.7785 14.7758C13.754 14.7946 13.7295 14.8134 13.705 14.8341C13.7031 14.8341 13.7013 14.8379 13.6994 14.8398C13.6109 14.9226 13.5242 15.0054 13.4376 15.0883C13.432 15.0939 13.4263 15.0996 13.4207 15.1052C13.3943 15.1316 13.3661 15.1579 13.3378 15.1824C13.2681 15.2464 13.1966 15.3085 13.1307 15.3763C13.0949 15.4121 13.0591 15.4497 13.0233 15.4855C12.8162 15.6944 12.6128 15.9053 12.4151 16.1236C12.1627 16.4022 11.9179 16.6846 11.6806 16.9745C11.6467 17.0159 11.6129 17.0573 11.579 17.0987C11.5733 17.1044 11.5677 17.1119 11.5639 17.1194C11.5564 17.1289 11.5507 17.1402 11.5432 17.1496C11.5338 17.1627 11.5262 17.1778 11.5168 17.1891C11.5093 17.1985 11.5036 17.2079 11.4961 17.2173C11.4942 17.2192 11.4923 17.223 11.4886 17.2249C11.4773 17.2362 11.466 17.2475 11.4528 17.2569C11.4528 17.2587 11.4528 17.2606 11.4509 17.2625C11.4509 17.2644 11.4509 17.2663 11.449 17.2682C11.449 17.2682 11.4471 17.27 11.4453 17.2719C11.4453 17.2719 11.4415 17.2738 11.4377 17.2757C11.4321 17.3039 11.4095 17.3171 11.3906 17.3359C11.3906 17.3359 11.3888 17.3378 11.3869 17.3397C11.3812 17.3453 11.3775 17.351 11.3718 17.3566C11.3718 17.3604 11.368 17.3623 11.368 17.366C11.368 17.3698 11.3643 17.3736 11.3643 17.3773C11.3643 17.3773 11.3643 17.3811 11.3643 17.383C11.3643 17.3886 11.3624 17.3905 11.3586 17.3943H11.353L11.3492 17.398C11.3059 17.4526 11.2607 17.5072 11.2174 17.5618C11.2155 17.5656 11.2136 17.5675 11.2099 17.5712C11.2099 17.5788 11.2099 17.5844 11.2099 17.5901C11.2099 17.5938 11.208 17.5976 11.2042 17.6014V17.6051C11.2042 17.6051 11.1948 17.6127 11.191 17.6145C11.1873 17.6183 11.1797 17.6202 11.1741 17.6221C11.1665 17.6296 11.1609 17.6371 11.1534 17.6447C11.1515 17.6465 11.1477 17.6503 11.1458 17.6522C11.1402 17.6578 11.1345 17.6654 11.1289 17.671C11.0159 17.8216 10.9048 17.9722 10.7918 18.1228C10.7918 18.1266 10.7899 18.1303 10.7861 18.1341H10.7843C10.7843 18.1341 10.7786 18.1397 10.7767 18.1397C10.6995 18.2489 10.6204 18.3562 10.5432 18.4673C10.5282 18.4899 10.5131 18.5106 10.498 18.5332C10.3832 18.7007 10.2777 18.872 10.1609 19.0396C10.1044 19.1224 10.0498 19.2071 9.99334 19.2918C9.93873 19.3765 9.88224 19.4612 9.82198 19.5422C9.72594 19.6739 9.64308 19.817 9.55834 19.9582C9.52256 20.0184 9.48489 20.0787 9.44912 20.1389C9.04236 20.8147 8.64689 21.4981 8.30981 22.2115C8.29098 22.2529 8.26838 22.2925 8.2439 22.3301C8.2213 22.3696 8.19682 22.4073 8.17799 22.4487C8.06312 22.6802 7.95013 22.9118 7.84279 23.1452C7.80136 23.2318 7.76182 23.3203 7.72227 23.4069C7.66954 23.5217 7.6187 23.6365 7.56785 23.7514C7.50382 23.8982 7.4398 24.0431 7.37577 24.1919C7.34941 24.254 7.32304 24.3161 7.29668 24.3782C7.26278 24.4554 7.23077 24.5326 7.19875 24.6117C7.08577 24.8865 6.97654 25.1632 6.87109 25.4418C6.84096 25.5228 6.80894 25.6056 6.77881 25.6865C6.70537 25.8842 6.63569 26.0837 6.56602 26.2814C6.54907 26.3285 6.53212 26.3755 6.51517 26.4245C6.50199 26.4621 6.49069 26.4998 6.47751 26.5355C6.4455 26.6297 6.41348 26.7257 6.38524 26.8198C6.34946 26.9365 6.31368 27.0513 6.2779 27.168C6.25153 27.2509 6.22705 27.3337 6.1988 27.4165C6.13854 27.601 6.06698 27.7855 6.04439 27.9813C6.04439 27.9907 6.0312 28.0001 6.02555 28.0095C5.99542 28.0904 5.97848 28.1733 5.95776 28.258C5.94835 28.2975 5.93516 28.337 5.92386 28.3766C5.91257 28.4161 5.89938 28.4556 5.88808 28.4952C5.84289 28.6665 5.79769 28.8378 5.75626 29.0091C5.7186 29.1634 5.68094 29.3197 5.64516 29.4759C5.60561 29.651 5.56795 29.8261 5.53217 30.003C5.50016 30.1574 5.47003 30.3099 5.44178 30.4661C5.41918 30.5885 5.39658 30.7108 5.37587 30.8332C5.35704 30.9405 5.34009 31.0497 5.32314 31.157C5.30054 31.2944 5.27983 31.4318 5.261 31.5692C5.24405 31.6935 5.2271 31.8158 5.21204 31.9401C5.17061 32.2789 5.13671 32.6197 5.11035 32.9623C5.10281 33.0601 5.09716 33.158 5.09151 33.2559C5.08586 33.3538 5.08021 33.4517 5.07645 33.5496C5.06892 33.7454 5.06327 33.9411 5.05762 34.1369C5.05762 34.1821 5.05762 34.2254 5.05762 34.2706C5.05762 34.2837 5.05762 34.2969 5.05762 34.312C5.05762 34.5624 5.06703 34.8127 5.07457 35.0612C5.07457 35.0725 5.07457 35.0838 5.07457 35.0951C5.07457 35.1403 5.07833 35.1836 5.0821 35.2287C5.09151 35.4095 5.10658 35.5902 5.12541 35.769C5.13859 35.8914 5.15177 36.0137 5.16872 36.1361C5.17061 36.153 5.17437 36.1719 5.17626 36.1888C5.21015 36.4354 5.24781 36.682 5.29678 36.9286C5.38717 37.386 5.50769 37.836 5.67152 38.2727C5.67341 38.2802 5.67717 38.2877 5.68094 38.2953C5.80334 38.6191 5.94646 38.9334 6.12159 39.2327C6.40972 39.7259 6.76186 40.1608 7.21005 40.5091C7.26278 40.5505 7.31739 40.59 7.37389 40.6295C7.4285 40.6672 7.48499 40.6992 7.54149 40.7331C7.5509 40.7387 7.5622 40.7444 7.5735 40.75C7.58103 40.7538 7.59045 40.7575 7.59798 40.7613C7.61116 40.7688 7.62435 40.7764 7.63376 40.7895C7.63753 40.7933 7.63941 40.799 7.64318 40.8046C7.65824 40.8008 7.67142 40.8046 7.67896 40.8197C7.69402 40.8197 7.70532 40.8234 7.71285 40.8366C7.71662 40.8366 7.72039 40.8366 7.72227 40.8366C7.72227 40.8366 7.73922 40.8423 7.74487 40.8517C7.74487 40.8517 7.74675 40.8517 7.74863 40.8517C7.74863 40.8517 7.7524 40.8517 7.75428 40.8517C7.75428 40.8517 7.75805 40.8517 7.75993 40.8517H7.7637C7.7637 40.8517 7.76746 40.8535 7.76935 40.8554H7.77123C7.77123 40.8554 7.775 40.8611 7.77688 40.863C7.79571 40.8837 7.82208 40.8893 7.84467 40.8987C8.33994 41.119 8.83521 41.3373 9.33048 41.5557C9.57529 41.6649 9.81821 41.7778 10.0781 41.8494C10.3361 41.9209 10.5997 41.968 10.869 41.9793C10.9142 41.9793 10.9575 41.9793 11.0027 41.9793C11.1364 41.9793 11.2701 41.9793 11.4038 41.9793C11.5338 41.9755 11.6618 41.9586 11.7899 41.9397C12.3096 41.8625 12.8105 41.7082 13.2926 41.5011C14.1758 41.1209 14.9743 40.6032 15.7238 40.0027C15.8876 39.8709 16.0495 39.7354 16.2077 39.5979C16.7633 39.6074 17.3188 39.6111 17.8743 39.6055C18.4035 39.5998 18.9345 39.5904 19.4637 39.5697C19.4901 39.5546 19.5164 39.5546 19.5447 39.5659H19.5691C19.6012 39.5509 19.6332 39.5528 19.6671 39.5622H19.6915C19.7104 39.5509 19.7311 39.549 19.7499 39.5528H19.7537C19.7537 39.5528 19.7669 39.5565 19.7725 39.5584H19.797C19.8102 39.5509 19.8234 39.5471 19.8366 39.5471C19.8497 39.5471 19.8648 39.549 19.878 39.5546C19.8855 39.5546 19.893 39.5546 19.9025 39.5546C19.9119 39.549 19.9194 39.5471 19.9288 39.5452C19.9458 39.5415 19.9646 39.5452 19.9834 39.5509C19.991 39.5509 19.9985 39.5509 20.006 39.5509C20.006 39.5509 20.0079 39.5509 20.0098 39.5509C20.0362 39.5377 20.0625 39.5377 20.0889 39.5471C20.0964 39.5471 20.104 39.5471 20.1115 39.5471C20.1379 39.5302 20.1661 39.5321 20.1925 39.5415H20.2151C20.2414 39.5245 20.2697 39.5264 20.2979 39.5377C20.3055 39.5377 20.313 39.5377 20.3205 39.5377C20.3262 39.5339 20.3318 39.5321 20.3356 39.5302C20.345 39.5264 20.3525 39.5264 20.3619 39.5264C20.3695 39.5264 20.3789 39.5283 20.3864 39.5321C20.507 39.5264 20.6275 39.5226 20.748 39.5151C21.6726 39.4605 22.5972 39.3871 23.5181 39.2855C24.9173 39.1311 26.3089 38.9203 27.6817 38.6078C28.6177 38.395 29.5404 38.139 30.433 37.7795C30.9113 37.5856 31.3765 37.3653 31.8058 37.0754C32.0657 36.9004 32.3049 36.7046 32.4969 36.4542C32.6175 36.2942 32.7154 36.1229 32.7549 35.9234C32.77 35.9083 32.7757 35.8876 32.7775 35.8688C32.787 35.7257 32.7926 35.5826 32.7775 35.4396L32.7738 35.4377ZM14.6334 37.0849C14.592 37.1225 14.5506 37.1583 14.5091 37.1959C14.2172 37.4519 13.9159 37.6967 13.6015 37.9226C13.287 38.1484 12.9612 38.3574 12.6203 38.5456C12.5714 38.572 12.5224 38.5984 12.4734 38.6247C12.3605 38.6849 12.2456 38.7414 12.1288 38.7941C12.0121 38.8468 11.8953 38.8977 11.7748 38.9428C11.5356 39.0351 11.2927 39.1123 11.0423 39.1725C10.933 39.1989 10.8238 39.2196 10.7146 39.2365C10.6769 39.2422 10.6374 39.2497 10.5997 39.2535C10.4509 39.2742 10.3022 39.2855 10.1534 39.2892C10.1026 39.2892 10.0536 39.2892 10.0028 39.2892C9.95191 39.2892 9.90295 39.2873 9.85211 39.2855C9.82951 39.2855 9.8088 39.2817 9.78808 39.2798C9.76737 39.2779 9.74477 39.2742 9.72405 39.2723C9.69769 39.2704 9.67509 39.2591 9.65438 39.2403C9.596 39.1857 9.53762 39.1311 9.48301 39.0746C9.40015 38.9899 9.32294 38.8995 9.2495 38.8073C9.20054 38.7452 9.15346 38.6812 9.10827 38.6172C9.08567 38.5852 9.06307 38.5513 9.04236 38.5193C9.04047 38.5174 9.04047 38.5136 9.03859 38.5099C9.03859 38.5042 9.03671 38.4986 9.03482 38.4948C9.02541 38.4854 9.01411 38.4779 9.00658 38.4666C8.90489 38.3028 8.81261 38.1353 8.72787 37.9658C8.68644 37.8793 8.64689 37.7945 8.60923 37.7061C8.57157 37.6176 8.53579 37.5291 8.50378 37.4406C8.50001 37.4293 8.50001 37.418 8.50001 37.4068C8.44351 37.2995 8.41338 37.1827 8.37949 37.0698C8.3004 36.8157 8.23825 36.5559 8.18552 36.2961C8.17611 36.249 8.16669 36.2039 8.15916 36.1587C8.15539 36.1399 8.15351 36.1229 8.14974 36.1041C8.14598 36.0815 8.14033 36.0589 8.13656 36.0363C8.13656 36.0307 8.13656 36.025 8.13656 36.0194C8.13468 35.9987 8.1328 35.9798 8.13091 35.9591C8.09702 35.8123 8.08195 35.6636 8.065 35.5168C8.00663 35.0424 7.98591 34.568 7.98403 34.0917C7.98403 33.9129 7.98591 33.7322 7.99156 33.5515C7.99533 33.4442 7.99909 33.3388 8.00474 33.2315C8.39644 33.1373 8.79001 33.0564 9.18736 32.9811C9.86341 32.8531 10.5432 32.7495 11.2249 32.6648C11.2362 32.6648 11.2475 32.6611 11.2569 32.6611C11.2701 32.6611 11.2814 32.6573 11.2946 32.6592C11.3021 32.6592 11.3097 32.6592 11.3172 32.6629C11.4245 32.6404 11.5319 32.6291 11.6392 32.6178C11.6882 32.6121 11.7371 32.6084 11.7861 32.6027C12.5356 32.5199 13.2851 32.4559 14.0365 32.4107C14.2474 32.3975 14.4583 32.3862 14.6692 32.3768C15.2078 32.3505 15.7482 32.3335 16.2868 32.3241C16.5825 32.3185 16.8781 32.3147 17.1719 32.3147C17.5937 32.3147 18.0137 32.3203 18.4355 32.3298C18.3451 32.4822 18.2509 32.6328 18.1568 32.7834C18.089 32.8926 18.0193 33.0018 17.9496 33.111C17.8235 33.3049 17.6954 33.495 17.5655 33.6851C17.3244 34.0353 17.0721 34.3798 16.8122 34.7167C16.7294 34.824 16.6465 34.9294 16.5618 35.0349C16.5467 35.0537 16.5316 35.0725 16.5166 35.0894C16.3942 35.2419 16.268 35.3925 16.1399 35.5394C15.9271 35.786 15.7087 36.0269 15.4827 36.2622C15.4149 36.3338 15.3452 36.4053 15.2756 36.4749C15.0967 36.6557 14.9121 36.8307 14.7257 37.0039C14.6956 37.0321 14.6654 37.0604 14.6334 37.0886V37.0849ZM30.0489 34.7167C30.0489 34.7167 30.0338 34.7318 30.0168 34.745C29.9961 34.7619 29.9754 34.777 29.9547 34.792C29.934 34.8071 29.9114 34.8221 29.8907 34.8372C29.8492 34.8654 29.8078 34.8937 29.7664 34.92L29.7513 34.9294C29.7174 34.952 29.6816 34.9727 29.6459 34.9934C29.5931 35.0254 29.5423 35.0556 29.4877 35.0838C29.1242 35.2852 28.7438 35.449 28.354 35.5921C27.9868 35.7276 27.6139 35.8443 27.2392 35.9497C26.7006 36.1003 26.1545 36.2246 25.6065 36.3338C25.0717 36.4411 24.5369 36.5314 23.9983 36.6105C23.4597 36.6895 22.9193 36.7535 22.3788 36.81C22.2018 36.8288 22.0248 36.8458 21.8459 36.8627C21.49 36.8947 21.134 36.923 20.7781 36.9474C20.5992 36.9587 20.4222 36.97 20.2433 36.9813C19.8441 37.0039 19.4449 37.0209 19.0456 37.034C18.9741 37.0359 18.9006 37.0397 18.8272 37.0416C18.7613 37.0434 18.6935 37.0453 18.6276 37.0472C18.7914 36.8458 18.9552 36.6444 19.104 36.4316C19.1247 36.4053 19.1473 36.3789 19.168 36.3507C19.4882 35.9196 19.7951 35.481 20.0908 35.033C20.1077 35.0085 20.1887 34.8824 20.2132 34.8447C20.3996 34.5567 20.5823 34.2649 20.7593 33.9694C21.0493 33.4856 21.3242 32.9943 21.5879 32.4973C22.0888 32.5406 22.5897 32.5914 23.0906 32.6535C23.1283 32.6573 23.1641 32.6648 23.2017 32.6705C23.4258 32.6874 23.648 32.7213 23.8684 32.7533C24.1527 32.7947 24.4371 32.8399 24.7214 32.8888C25.1037 32.9528 25.486 33.0244 25.8664 33.1072C26.0717 33.1524 26.2769 33.1976 26.4822 33.2427C26.4841 33.2427 26.4859 33.2427 26.4897 33.2427C26.4916 33.2427 26.4935 33.2427 26.4954 33.2427C26.5085 33.2446 26.5236 33.2446 26.5368 33.2465C26.5556 33.2465 26.5726 33.2522 26.5857 33.2691C27.0245 33.382 27.4614 33.4988 27.8908 33.6418C27.9303 33.655 27.9755 33.6588 28.0056 33.6927C28.1167 33.7115 28.2203 33.7585 28.3239 33.7981C28.4162 33.832 28.5084 33.8677 28.6007 33.9035C28.8606 34.007 29.1167 34.1219 29.3653 34.2517C29.4632 34.3026 29.5592 34.3572 29.6534 34.4155C29.7796 34.4927 29.902 34.5718 30.0168 34.664C30.0507 34.6904 30.0602 34.7017 30.047 34.7167H30.0489Z" fill="#9AA6BA"/>
<path d="M32.7836 27.5747C32.7723 27.3375 32.6819 27.1286 32.5444 26.9384C32.3505 26.6674 32.1 26.4565 31.8269 26.2702C31.3637 25.9539 30.8571 25.7205 30.3393 25.5115C30.0511 25.3967 29.7574 25.2913 29.4636 25.1972C29.0135 25.0522 28.5578 24.928 28.0983 24.8169C27.524 24.6757 26.9477 24.5534 26.3658 24.4479C26.0118 24.3839 25.6578 24.3218 25.3018 24.2691C25.2905 24.2691 25.2811 24.2691 25.2698 24.2672C25.2642 24.2672 25.2566 24.2672 25.251 24.2672C25.2378 24.2672 25.2246 24.2653 25.2115 24.2635C25.1813 24.2597 25.1512 24.254 25.1211 24.2465C25.0156 24.2296 24.9102 24.2126 24.8047 24.1957C24.7426 24.1882 24.6823 24.1787 24.6201 24.1693C24.5957 24.1656 24.5731 24.1618 24.5486 24.1599C24.3038 24.1298 24.0571 24.1016 23.8123 24.0696C23.7407 24.0601 23.6692 24.0545 23.5976 24.047C23.526 24.0394 23.4545 24.0319 23.3848 24.0169C22.9084 23.9736 22.4338 23.9246 21.9574 23.8851C21.8915 23.8794 21.8237 23.8738 21.7578 23.87C21.3472 23.838 20.9367 23.8098 20.5262 23.7891C20.3285 23.7797 20.1307 23.7702 19.933 23.759C19.7823 23.7514 19.6336 23.7439 19.4829 23.7382C19.1402 23.7251 18.7975 23.7175 18.4547 23.71C18.3267 23.7081 18.1986 23.7044 18.0724 23.7025C18.0724 23.7025 18.3078 22.7575 18.402 22.2793C18.4736 21.9217 18.5357 21.5621 18.5903 21.2007C18.6261 20.9597 18.6581 20.7169 18.6845 20.4741C18.7127 20.2199 18.7353 19.9658 18.7523 19.7098C18.7692 19.4368 18.7805 19.1639 18.7862 18.8909C18.7918 18.5257 18.7805 18.1605 18.7541 17.7953C18.7372 17.5544 18.7127 17.3153 18.6826 17.0743C18.6412 16.7468 18.5809 16.4211 18.5037 16.1011C18.4415 15.8432 18.37 15.5891 18.2758 15.3406C18.2702 15.3406 18.2664 15.3406 18.2608 15.3406C18.2551 15.3406 18.2513 15.3406 18.2457 15.3443C18.2306 15.35 18.2156 15.3575 18.2005 15.3632C17.7843 15.5382 17.3907 15.7547 17.0104 15.9957C16.9896 16.0089 16.9652 16.0201 16.9557 16.0484C17.0461 16.6244 17.0894 17.2023 17.0951 17.7859C17.1026 18.6198 17.0405 19.4481 16.9275 20.2726C16.8409 20.8938 16.7279 21.5113 16.5885 22.1212C16.468 22.6521 16.3287 23.1773 16.1742 23.6987C15.7995 23.7025 15.4266 23.7138 15.0519 23.727C14.5547 23.7439 14.0576 23.7665 13.5604 23.7985C13.1217 23.8267 12.6829 23.855 12.246 23.8926C11.6773 23.9416 11.1086 23.998 10.5436 24.0677C10.408 24.3482 10.2762 24.6324 10.15 24.9186C9.96173 25.344 9.78283 25.7751 9.61523 26.208C9.62277 26.208 9.6303 26.2062 9.63783 26.2043C10.2988 26.1102 10.9617 26.033 11.6283 25.9671C11.8185 25.9483 12.0087 25.9257 12.2008 25.9087C12.6716 25.8692 13.1461 25.8428 13.6188 25.8127C14.2327 25.7732 14.8485 25.7487 15.4643 25.7299C15.4718 25.7299 15.4794 25.7299 15.4869 25.7299C16.0123 25.7148 16.5358 25.7073 17.0612 25.7073C17.193 25.7073 17.3248 25.7073 17.4567 25.7073C17.7561 25.7073 18.0555 25.7111 18.3549 25.7167C18.6939 25.7224 19.0347 25.7355 19.3737 25.7468C19.3756 25.7468 19.3793 25.7468 19.3831 25.7468C19.7089 25.7581 20.0328 25.7694 20.3586 25.7864C20.609 25.7977 20.8595 25.8165 21.1081 25.8353C21.1608 25.8391 21.2154 25.8428 21.2681 25.8466C21.6429 25.873 22.0176 25.9012 22.3905 25.9294C22.4828 25.937 22.5732 25.9501 22.6654 25.9577C23.1607 26.001 23.656 26.0574 24.1494 26.1196C24.3697 26.1478 24.59 26.176 24.8103 26.2062C25.2755 26.2702 25.7387 26.3473 26.202 26.4283C26.6464 26.5055 27.0908 26.5939 27.5315 26.6937C27.9194 26.7822 28.3036 26.8782 28.6877 26.9817C29.1905 27.1173 29.6839 27.2773 30.1717 27.458C30.5935 27.6142 31.0002 27.7987 31.3938 28.0152C31.665 28.1639 31.923 28.3315 32.1584 28.5329C32.3712 28.7174 32.5576 28.9225 32.6819 29.1786C32.7309 29.2802 32.7535 29.3913 32.7874 29.4986C32.7874 29.2859 32.7911 29.0731 32.7911 28.8604C32.7911 28.5442 32.7911 28.2279 32.7911 27.9117C32.7911 27.7968 32.7949 27.682 32.7911 27.5672L32.7836 27.5747Z" fill="#4E545C"/>
<path d="M20.2696 12.4602C20.1944 12.4358 20.1154 12.4188 20.042 12.3831C20.042 12.3737 20.042 12.3624 20.0439 12.353C20.1342 12.3812 20.2207 12.4188 20.3016 12.4715C20.2903 12.4677 20.2809 12.464 20.2696 12.4602Z" fill="#404A5A"/>
<path d="M20.0048 12.3682C20.0048 12.3682 20.0106 12.372 20.0144 12.3739H20.0125C20.0125 12.3739 19.999 12.3758 19.9932 12.3682C19.997 12.3682 20.0009 12.3682 20.0048 12.3682Z" fill="#404A5A"/>
<path d="M10.7889 18.1304C10.7889 18.1304 10.787 18.138 10.7831 18.1418H10.7812C10.7812 18.1418 10.7754 18.1476 10.7734 18.1476V18.1437C10.7734 18.1437 10.7773 18.1342 10.7812 18.1323C10.7812 18.1323 10.785 18.1323 10.787 18.1304H10.7889Z" fill="#404A5A"/>
<path d="M11.1979 17.6113C11.1979 17.6113 11.1902 17.619 11.1863 17.6209C11.1825 17.6247 11.1747 17.6266 11.1689 17.6285C11.1689 17.6247 11.1689 17.6228 11.1689 17.619C11.1689 17.617 11.1689 17.6132 11.1689 17.6113C11.1689 17.6113 11.1728 17.6018 11.1767 17.598C11.1805 17.5941 11.1844 17.5903 11.1883 17.5865C11.1921 17.5827 11.1979 17.5808 11.2037 17.5789C11.2037 17.5865 11.2037 17.5922 11.2037 17.598C11.2037 17.6018 11.2018 17.6056 11.1979 17.6094V17.6132V17.6113Z" fill="#404A5A"/>
<path d="M11.3534 17.4H11.3476L11.3438 17.4039C11.3438 17.4039 11.3534 17.3905 11.3592 17.3848C11.3592 17.3848 11.3592 17.3886 11.3592 17.3905C11.3592 17.3962 11.3573 17.3981 11.3534 17.402V17.4Z" fill="#215CB5"/>
<path d="M11.4326 17.2797C11.4326 17.2797 11.4365 17.2702 11.4403 17.2683C11.4423 17.2683 11.4442 17.2683 11.4461 17.2664C11.4461 17.2683 11.4461 17.2702 11.4442 17.2721C11.4442 17.274 11.4442 17.2759 11.4423 17.2778C11.4423 17.2778 11.4403 17.2797 11.4384 17.2816C11.4384 17.2816 11.4345 17.2835 11.4307 17.2855C11.4307 17.2855 11.4307 17.2816 11.4307 17.2797H11.4326Z" fill="#215CB5"/>
<path d="M18.4697 11.666C18.4888 11.6585 18.5021 11.666 18.5116 11.6811C18.4945 11.6848 18.4773 11.6886 18.4697 11.666Z" fill="#FEC35E"/>
<path d="M13.7715 14.7836C13.7715 14.7836 13.7831 14.774 13.7889 14.7683C13.7889 14.7683 13.7889 14.7702 13.7889 14.7721C13.7889 14.7759 13.7869 14.7779 13.785 14.7817C13.785 14.7817 13.7792 14.7855 13.7734 14.7836H13.7715Z" fill="#404A5A"/>
<path d="M13.8884 14.6665C13.8884 14.6665 13.8998 14.6628 13.9074 14.6609C13.9074 14.6703 13.9055 14.6741 13.9017 14.6778C13.896 14.6816 13.8846 14.6778 13.877 14.6797C13.8808 14.6741 13.8846 14.6703 13.8903 14.6665H13.8884Z" fill="#404A5A"/>
<path d="M13.9617 14.6177C13.9617 14.6177 13.9598 14.6254 13.9559 14.6292C13.9559 14.6292 13.9559 14.6292 13.9521 14.6292C13.9501 14.6292 13.9482 14.6292 13.9443 14.6292C13.9501 14.6235 13.9559 14.6158 13.9598 14.6101C13.9598 14.6101 13.9598 14.6139 13.9598 14.6158L13.9617 14.6177Z" fill="#404A5A"/>
<path d="M14.9451 13.8404C14.9451 13.8404 14.9432 13.8442 14.9413 13.8461C14.9393 13.848 14.9335 13.8499 14.9277 13.8499C14.9335 13.8442 14.9393 13.8385 14.9451 13.8328C14.9451 13.8347 14.9451 13.8385 14.9451 13.8404Z" fill="#404A5A"/>
<path d="M14.9276 13.8496V13.8534C14.9276 13.8534 14.9256 13.8592 14.9237 13.8611C14.9218 13.863 14.9198 13.8611 14.916 13.8611C14.916 13.8611 14.914 13.8611 14.9121 13.8611C14.9179 13.8572 14.9237 13.8553 14.9295 13.8515L14.9276 13.8496Z" fill="#404A5A"/>
<path d="M20.0384 12.3474C19.5488 12.129 19.0573 11.9125 18.5677 11.6923C18.5488 11.6829 18.5281 11.6923 18.5112 11.6791C18.4942 11.6829 18.4773 11.6866 18.4697 11.664C18.449 11.6734 18.4302 11.664 18.4113 11.6584C17.982 11.5285 17.5432 11.489 17.0969 11.5134C16.5056 11.5436 15.9369 11.6885 15.387 11.9012C15.2138 11.9671 15.0443 12.0405 14.8767 12.1196C14.8353 12.1403 14.7938 12.1591 14.7524 12.1798C14.7034 12.2043 14.6564 12.2288 14.6074 12.2532C14.5434 12.2852 14.4793 12.3191 14.4153 12.3549C14.0801 12.5375 13.7581 12.7408 13.4436 12.9592C13.3777 13.0043 13.3137 13.0514 13.2478 13.0966L13.2101 13.1248C13.0557 13.2378 12.905 13.3526 12.7544 13.4712C12.3815 13.7667 12.0237 14.083 11.6791 14.4124C10.7187 15.3292 9.86563 16.3401 9.08412 17.4131C9.06341 17.4413 9.04458 17.4696 9.02386 17.4978C9.02386 17.4978 9.02386 17.5053 9.0201 17.5072C9.01821 17.5091 9.01445 17.511 9.01068 17.511C8.94101 17.6107 8.87133 17.7105 8.80165 17.8103C8.6849 17.9759 8.57003 18.1435 8.45704 18.3129C8.3497 18.4729 8.24424 18.6367 8.13879 18.7986C8.05593 18.9285 7.97495 19.0583 7.89398 19.1882C7.82242 19.305 7.75086 19.4217 7.68118 19.5384C7.58137 19.704 7.48345 19.8716 7.38741 20.0391C7.33845 20.1238 7.29137 20.2067 7.24429 20.2914C7.23864 20.3008 7.23299 20.3102 7.22546 20.3196C7.22546 20.3309 7.22169 20.3403 7.21793 20.3478C7.21416 20.3535 7.21039 20.361 7.20663 20.3667C7.16143 20.4457 7.11812 20.5267 7.07481 20.6057C6.91097 20.9069 6.74902 21.21 6.59461 21.515C6.52869 21.6449 6.46467 21.7729 6.40064 21.9028C6.05791 22.6049 5.73966 23.3165 5.44777 24.0393C5.29147 24.4234 5.14458 24.8093 5.00335 25.1989C4.9299 25.406 4.85646 25.6131 4.7849 25.8202C4.65496 26.2042 4.53633 26.592 4.41957 26.9798C4.37249 27.1398 4.32541 27.2998 4.28022 27.4598C4.28022 27.4636 4.27833 27.4673 4.27645 27.4711C4.20677 27.7233 4.14086 27.9756 4.07872 28.2297C4.02223 28.4575 3.96762 28.6872 3.91677 28.9168C3.87346 29.1126 3.83391 29.3102 3.79437 29.5079C3.78495 29.555 3.77553 29.602 3.768 29.6491C3.76424 29.6679 3.76047 29.6867 3.7567 29.7056C3.7567 29.7131 3.75482 29.7206 3.75294 29.7263C3.7454 29.7639 3.73787 29.8016 3.73034 29.8392C3.67384 30.1479 3.623 30.4567 3.57969 30.7673C3.53637 31.0666 3.49871 31.3678 3.46858 31.669C3.46105 31.7367 3.4554 31.8045 3.44975 31.8704C3.44975 31.876 3.44975 31.8798 3.44975 31.8855C3.4441 31.9363 3.44222 31.9739 3.43845 32.0097C3.42527 32.1772 3.41209 32.3448 3.40267 32.5123C3.39326 32.6799 3.38572 32.8493 3.38007 33.0168C3.38007 33.0394 3.38007 33.0601 3.37819 33.0827C3.36878 33.4065 3.36689 33.7303 3.37631 34.0522C3.38572 34.3571 3.40267 34.6621 3.43092 34.9652C3.45917 35.2682 3.49683 35.5713 3.54956 35.8725C3.57404 36.0193 3.60417 36.1662 3.6343 36.3111C3.73975 36.8025 3.88099 37.2844 4.07495 37.7493C4.08814 37.7813 4.10132 37.8133 4.11638 37.8472C4.12957 37.8792 4.14463 37.9112 4.1597 37.9432C4.19359 38.0185 4.22937 38.0938 4.26515 38.1672C4.3273 38.2896 4.39132 38.4101 4.461 38.5268C4.6512 38.8468 4.87529 39.1461 5.14082 39.4153C5.21049 39.4868 5.28205 39.5546 5.35738 39.6186C5.49673 39.741 5.6455 39.852 5.80368 39.9518C5.83381 39.9706 5.86771 39.9819 5.89031 40.0102C5.89407 40.0139 5.89596 40.0196 5.89784 40.0233C5.91291 40.0196 5.9242 40.0233 5.92797 40.0384C5.99011 40.0535 6.03908 40.0949 6.09557 40.1194C6.39687 40.253 6.69818 40.3867 6.9976 40.5203C7.16896 40.5956 7.34221 40.6709 7.51358 40.7462L7.53618 40.7274C7.47968 40.6935 7.42319 40.6596 7.36858 40.6239C7.31208 40.5843 7.25747 40.5448 7.20474 40.5034C6.75656 40.1551 6.40441 39.7203 6.11629 39.2271C5.94115 38.9278 5.79803 38.6134 5.67563 38.2896C5.67186 38.2821 5.66998 38.2745 5.66621 38.267C5.50238 37.8303 5.38186 37.3804 5.29147 36.9229C5.24251 36.6782 5.20484 36.4316 5.17095 36.1831C5.16906 36.1662 5.1653 36.1474 5.16341 36.1304C5.14647 36.0081 5.13328 35.8857 5.1201 35.7633C5.10127 35.5826 5.0862 35.4038 5.07679 35.2231C5.07491 35.1779 5.07114 35.1346 5.06926 35.0894C5.06926 35.0781 5.06926 35.0668 5.06926 35.0555C5.05984 34.8052 5.05042 34.5567 5.05231 34.3063C5.05231 34.2931 5.05231 34.2781 5.05231 34.2649C5.05231 34.2197 5.05231 34.1764 5.05231 34.1312C5.05796 33.9355 5.06361 33.7397 5.07114 33.5439C5.07491 33.446 5.08056 33.3481 5.0862 33.2502C5.09185 33.1524 5.0975 33.0545 5.10504 32.9566C5.1314 32.6159 5.1653 32.2751 5.20673 31.9344C5.22179 31.8102 5.23874 31.6878 5.25569 31.5636C5.27452 31.4261 5.29523 31.2887 5.31783 31.1513C5.33478 31.0421 5.35361 30.9348 5.37056 30.8275C5.39127 30.7052 5.41387 30.5828 5.43647 30.4604C5.46472 30.3061 5.49673 30.1517 5.52686 29.9973C5.56264 29.8223 5.6003 29.6453 5.63985 29.4703C5.67563 29.314 5.71329 29.1596 5.75096 29.0034C5.79238 28.8321 5.83758 28.6608 5.88278 28.4895C5.89407 28.45 5.90537 28.4104 5.91856 28.3709C5.92985 28.3314 5.94304 28.2918 5.95245 28.2523C5.97317 28.1695 5.99011 28.0848 6.02024 28.0038C6.02778 27.9944 6.03719 27.9869 6.03908 27.9756C6.06356 27.7798 6.13323 27.5972 6.19349 27.4108C6.21986 27.328 6.24622 27.2452 6.27259 27.1624C6.30837 27.0456 6.34415 26.9308 6.37993 26.8141C6.41006 26.7181 6.44019 26.624 6.4722 26.5298C6.48538 26.4922 6.49668 26.4545 6.50986 26.4188C6.52681 26.3717 6.54376 26.3228 6.56071 26.2757C6.63227 26.0781 6.70194 25.8785 6.7735 25.6809C6.80363 25.5999 6.83376 25.5171 6.86578 25.4361C6.97123 25.1575 7.08046 24.8808 7.19345 24.606C7.22546 24.5269 7.25747 24.4497 7.29137 24.3725C7.31773 24.3104 7.3441 24.2483 7.37046 24.1862C7.43449 24.0393 7.49852 23.8925 7.56254 23.7457C7.61339 23.6309 7.66423 23.516 7.71696 23.4012C7.75651 23.3127 7.79605 23.2261 7.83748 23.1395C7.9467 22.9061 8.05781 22.6727 8.17268 22.443C8.1934 22.4035 8.21599 22.364 8.23859 22.3244C8.26119 22.2849 8.28379 22.2472 8.3045 22.2058C8.64158 21.4924 9.03705 20.809 9.44381 20.1332C9.47959 20.073 9.51725 20.0128 9.55303 19.9525C9.63777 19.8113 9.71874 19.6683 9.81667 19.5365C9.87693 19.4555 9.93154 19.3708 9.98803 19.2861C10.0426 19.2014 10.0973 19.1167 10.1556 19.0339C10.2705 18.8663 10.3778 18.695 10.4927 18.5275C10.5078 18.5068 10.5228 18.4842 10.5379 18.4616C10.6151 18.3524 10.6942 18.2432 10.7714 18.1341V18.1303C10.7714 18.1303 10.7752 18.1209 10.779 18.119C10.779 18.119 10.7827 18.119 10.7846 18.1171C10.8957 17.9665 11.0087 17.8159 11.1217 17.6653C11.1273 17.6578 11.133 17.6521 11.1386 17.6465C11.1405 17.6446 11.1443 17.6409 11.1462 17.639C11.1537 17.6314 11.1594 17.6239 11.1669 17.6164C11.1669 17.6126 11.1669 17.6107 11.1669 17.607C11.1669 17.6051 11.1669 17.6013 11.1669 17.5994C11.1669 17.5994 11.1707 17.59 11.1744 17.5863C11.1782 17.5825 11.1819 17.5787 11.1857 17.575C11.1895 17.5712 11.1951 17.5693 11.2008 17.5674C11.2027 17.5656 11.2064 17.5618 11.2083 17.558C11.2516 17.5034 11.2968 17.4488 11.3401 17.3943C11.3458 17.3886 11.3495 17.3811 11.3552 17.3754C11.3552 17.3717 11.3571 17.3679 11.359 17.3641C11.359 17.3604 11.3627 17.3585 11.3627 17.3547C11.3665 17.3491 11.3721 17.3434 11.3778 17.3378C11.3778 17.3378 11.3797 17.3359 11.3816 17.334C11.4004 17.3171 11.4249 17.302 11.4286 17.2738C11.4286 17.2738 11.4286 17.27 11.4286 17.2681C11.4286 17.2625 11.4324 17.2587 11.4362 17.2568C11.4381 17.2568 11.4399 17.2568 11.4418 17.2549C11.455 17.2455 11.4663 17.2342 11.4776 17.2229C11.4795 17.2211 11.4814 17.2173 11.4851 17.2154C11.4927 17.206 11.5002 17.1966 11.5059 17.1872C11.5153 17.174 11.5247 17.1608 11.5322 17.1476C11.5397 17.1382 11.5454 17.1269 11.5529 17.1175C11.5586 17.11 11.5623 17.1044 11.568 17.0968C11.6019 17.0554 11.6358 17.014 11.6697 16.9726C11.907 16.6827 12.1518 16.3984 12.4041 16.1217C12.6018 15.9033 12.8052 15.6925 13.0124 15.4836C13.0481 15.4478 13.0839 15.4101 13.1197 15.3744C13.1875 15.3066 13.2572 15.2445 13.3269 15.1805C13.3551 15.156 13.3815 15.1296 13.4097 15.1033C13.4154 15.0976 13.421 15.092 13.4267 15.0864C13.5133 15.0035 13.6018 14.9207 13.6884 14.8379C13.6884 14.8379 13.6922 14.8341 13.6941 14.8322C13.7167 14.8115 13.743 14.7927 13.7675 14.7739C13.7732 14.7682 13.7788 14.7645 13.7845 14.7588C13.7845 14.7588 13.7882 14.755 13.7901 14.7532C13.8165 14.7249 13.8447 14.6986 13.8711 14.6703C13.8748 14.6647 13.8786 14.6609 13.8843 14.6571C13.8899 14.6534 13.8956 14.6534 13.9031 14.6515C13.9106 14.6515 13.9182 14.6477 13.9238 14.6421C13.9276 14.6383 13.9313 14.6346 13.9351 14.6308C13.9389 14.627 13.9408 14.6233 13.9426 14.6195C13.9483 14.6139 13.9539 14.6063 13.9577 14.6007C14.0274 14.5386 14.0989 14.4764 14.1705 14.4162C14.1818 14.4068 14.1912 14.3974 14.2025 14.388C14.2722 14.3296 14.3419 14.2712 14.4134 14.2148C14.5735 14.0868 14.7373 13.9625 14.9049 13.8458C14.9106 13.842 14.9162 13.8402 14.9219 13.8364C14.9219 13.8364 14.9332 13.8232 14.9388 13.8176C14.9765 13.7893 15.0142 13.7611 15.0537 13.7347C15.1309 13.6802 15.2081 13.6256 15.2853 13.5729C15.3249 13.5465 15.3644 13.5201 15.4021 13.4957C15.4416 13.4693 15.4812 13.4448 15.5207 13.4204C15.6412 13.3451 15.7618 13.2717 15.8842 13.202C16.0179 13.1248 16.1535 13.0495 16.2909 12.9799C16.7033 12.7672 17.1289 12.5883 17.5752 12.4565C17.6091 12.4471 17.643 12.4377 17.6769 12.4264C17.9142 12.3605 18.1534 12.3097 18.3963 12.2758C18.5338 12.257 18.6731 12.2438 18.8125 12.2382C18.9179 12.2325 19.0234 12.2325 19.1288 12.2344C19.1646 12.2344 19.1985 12.2363 19.2343 12.2382C19.3397 12.2438 19.4452 12.2551 19.5507 12.2702C19.6957 12.2909 19.8407 12.3172 19.9838 12.3549C19.9875 12.3549 19.9913 12.3549 19.9951 12.3549C19.9988 12.3549 20.0007 12.3587 20.0045 12.3605C20.0083 12.3605 20.0101 12.3624 20.0139 12.3643C20.0196 12.3662 20.0271 12.3681 20.0327 12.3718C20.0327 12.3624 20.0327 12.3511 20.0346 12.3417C20.0327 12.3398 20.0309 12.338 20.0271 12.3361L20.0384 12.3474Z" fill="#A8B6CC"/>
<path d="M18.4698 11.666C18.4622 11.6359 18.434 11.6321 18.4114 11.6227C17.9895 11.4344 17.5658 11.2481 17.1421 11.0617C17.0291 11.0128 16.9199 10.9544 16.8032 10.9149C16.79 10.9224 16.7768 10.9224 16.7617 10.9168C16.4717 10.8208 16.1704 10.7737 15.8654 10.7549C15.5867 10.7379 15.3079 10.7549 15.0311 10.7925C14.8033 10.8245 14.5792 10.8716 14.357 10.9299C13.9257 11.0448 13.5114 11.2029 13.1122 11.4006C12.9578 11.4759 12.809 11.5624 12.6584 11.6434C12.6075 11.6697 12.5548 11.6942 12.5058 11.7225C12.0708 11.9804 11.6509 12.259 11.2517 12.5696C11.1518 12.6467 11.0483 12.722 10.956 12.8068C10.8957 12.8613 10.8374 12.9159 10.7714 12.963C10.7583 12.9724 10.747 12.9799 10.7319 12.9894C10.7206 12.9988 10.7093 13.0082 10.6999 13.0176C10.6961 13.0326 10.6905 13.0439 10.6829 13.0515C10.6792 13.0552 10.6735 13.0571 10.6679 13.059C10.6641 13.059 10.6622 13.059 10.6585 13.059H10.6566C10.6566 13.059 10.6509 13.059 10.6472 13.0571C10.6434 13.0571 10.6415 13.0609 10.6396 13.0628C10.6057 13.0872 10.585 13.1305 10.5549 13.155C10.5492 13.1588 10.5455 13.1625 10.5398 13.1644C10.457 13.2077 10.4061 13.2868 10.3327 13.3395C10.2611 13.3903 10.2027 13.46 10.1368 13.5202C9.81293 13.8176 9.50597 14.1339 9.20279 14.4539C9.11051 14.5518 9.02577 14.6572 8.93726 14.7589C8.88642 14.8172 8.82804 14.868 8.7772 14.9264C8.63973 15.0845 8.50602 15.2445 8.37044 15.4046C8.27063 15.5231 8.17459 15.6436 8.0842 15.7697C8.01264 15.8695 7.9279 15.958 7.85257 16.0559C7.62094 16.3514 7.4025 16.6564 7.18405 16.9613C6.96749 17.2625 6.76976 17.5731 6.5645 17.8819C6.37995 18.1586 6.21047 18.4447 6.03534 18.7271C5.97131 18.8325 5.91293 18.9417 5.8489 19.0452C5.73591 19.226 5.63234 19.4104 5.53442 19.5987C5.47227 19.6721 5.43649 19.7606 5.38942 19.8434C5.29149 20.0147 5.19922 20.1898 5.11448 20.3686C5.08811 20.4251 5.04857 20.4759 5.02032 20.5324C4.94123 20.6924 4.86213 20.8524 4.78116 21.0105C4.5759 21.4077 4.39511 21.8181 4.20868 22.2247C4.0053 22.6652 3.8264 23.1151 3.64751 23.5669C3.52698 23.8719 3.40458 24.1787 3.30854 24.4931C3.29347 24.5439 3.26334 24.591 3.24451 24.6418C3.15224 24.9129 3.05808 25.184 2.96957 25.4569C2.88671 25.7073 2.80951 25.9595 2.73606 26.2137C2.6645 26.4565 2.59671 26.7012 2.5308 26.9459C2.40275 27.4203 2.28599 27.8985 2.18618 28.3785C2.15982 28.5065 2.13534 28.6345 2.10897 28.7625C2.02423 29.1974 1.94891 29.636 1.88676 30.0746C1.82839 30.4925 1.78131 30.9123 1.74364 31.3321C1.73988 31.3716 1.738 31.4093 1.73423 31.4488C1.7154 31.6784 1.70222 31.91 1.6928 32.1415C1.6815 32.407 1.67962 32.6705 1.67773 32.9359C1.67773 33.0621 1.69092 33.1882 1.68903 33.3143C1.68903 33.5082 1.7041 33.7002 1.7154 33.8922C1.71916 33.9638 1.72293 34.0334 1.73046 34.1049C1.73046 34.1181 1.73235 34.1294 1.73423 34.1426C1.75683 34.3271 1.77189 34.5134 1.79826 34.6979C1.82274 34.8768 1.84722 35.0556 1.88111 35.2344C1.92819 35.481 1.97339 35.7295 2.0506 35.9705C2.07508 36.0458 2.08826 36.1248 2.10897 36.202C2.15417 36.3714 2.20878 36.5371 2.26904 36.7009C2.35567 36.9362 2.45359 37.1658 2.56281 37.3917C2.72853 37.7381 2.93379 38.0619 3.17484 38.3612C3.4027 38.6454 3.66257 38.8958 3.96199 39.1066C3.97517 39.1142 3.98647 39.1236 3.99965 39.1311C4.02037 39.1462 4.04297 39.1594 4.06556 39.1725C4.07686 39.1801 4.09005 39.1876 4.10323 39.1951C4.14466 39.2215 4.18609 39.2478 4.22563 39.2761C4.23693 39.2874 4.25011 39.2949 4.26141 39.3043C4.26141 39.3062 4.26329 39.3081 4.26518 39.31C4.27271 39.3194 4.28589 39.3213 4.29719 39.325C4.81129 39.5528 5.32727 39.7806 5.84325 40.0084C5.86397 40.0178 5.8828 40.0309 5.90916 40.0253C5.90728 40.0196 5.90352 40.0159 5.90163 40.0121C5.87903 39.9839 5.84514 39.9726 5.81501 39.9538C5.65682 39.854 5.50805 39.741 5.3687 39.6206C5.29338 39.5566 5.22182 39.4888 5.15214 39.4173C4.88662 39.1481 4.66252 38.8488 4.47232 38.5287C4.40265 38.412 4.33674 38.2915 4.27648 38.1692C4.23881 38.0958 4.20492 38.0224 4.16914 37.9471C4.15407 37.9151 4.14089 37.883 4.12582 37.851C4.11264 37.819 4.09758 37.787 4.0844 37.7532C3.89043 37.2882 3.7492 36.8063 3.64374 36.315C3.61173 36.17 3.58348 36.0232 3.559 35.8763C3.50627 35.5752 3.46861 35.2721 3.44036 34.969C3.41211 34.6659 3.39516 34.361 3.38575 34.056C3.37633 33.7322 3.37822 33.4084 3.38763 33.0865C3.38763 33.0639 3.38763 33.0432 3.38951 33.0206C3.39516 32.8531 3.4027 32.6837 3.41211 32.5161C3.42153 32.3486 3.43471 32.1811 3.44789 32.0135C3.45166 31.9778 3.45542 31.9401 3.45919 31.8893C3.45919 31.8836 3.45919 31.8799 3.45919 31.8742C3.46484 31.8065 3.47237 31.7387 3.47802 31.6728C3.51004 31.3716 3.5477 31.0723 3.58913 30.7711C3.63432 30.4605 3.68329 30.1518 3.73978 29.843C3.74731 29.8054 3.75484 29.7677 3.76238 29.7301C3.76238 29.7226 3.76426 29.715 3.76614 29.7094C3.76991 29.6906 3.77368 29.6717 3.77744 29.6529C3.78686 29.6059 3.79439 29.5588 3.80381 29.5117C3.84335 29.3141 3.8829 29.1183 3.92621 28.9206C3.97706 28.691 4.03167 28.4613 4.08816 28.2335C4.15031 27.9794 4.21622 27.7272 4.28589 27.4749C4.28589 27.4711 4.28589 27.4674 4.28966 27.4636C4.33485 27.3036 4.38005 27.1436 4.42901 26.9836C4.54577 26.5939 4.6644 26.208 4.79434 25.824C4.86402 25.6169 4.93746 25.4098 5.01279 25.2028C5.15402 24.8131 5.30091 24.4272 5.45721 24.0432C5.7491 23.3203 6.06735 22.6087 6.41008 21.9066C6.47411 21.7767 6.53814 21.6468 6.60405 21.5188C6.75846 21.2138 6.91853 20.9108 7.08425 20.6096C7.12756 20.5286 7.17276 20.4496 7.21607 20.3705C7.21983 20.3648 7.2236 20.3573 7.22737 20.3517C7.23302 20.3423 7.23678 20.3347 7.2349 20.3234C7.24055 20.314 7.24808 20.3046 7.25373 20.2952C7.30081 20.2105 7.34977 20.1277 7.39685 20.0429C7.49289 19.8754 7.59081 19.7079 7.69062 19.5422C7.7603 19.4255 7.83186 19.3088 7.90342 19.1921C7.98439 19.0622 8.06537 18.9323 8.14823 18.8024C8.2518 18.6386 8.35914 18.4767 8.46648 18.3167C8.57947 18.1473 8.69434 17.9816 8.81109 17.8141C8.88077 17.7143 8.95045 17.6146 9.02012 17.5148C9.02012 17.5129 9.02012 17.511 9.02012 17.5091C9.02012 17.5091 9.02012 17.5073 9.02201 17.5054C9.02389 17.5035 9.02765 17.5016 9.03142 17.5016C9.05214 17.4734 9.07097 17.4451 9.09168 17.4169C9.87319 16.3439 10.7263 15.333 11.6867 14.4163C12.0313 14.0868 12.3891 13.7706 12.7619 13.475C12.9107 13.3564 13.0632 13.2416 13.2177 13.1287L13.2553 13.1004C13.3193 13.0534 13.3853 13.0082 13.4512 12.963C13.7657 12.7446 14.0896 12.5413 14.4229 12.3587C14.4869 12.3248 14.5509 12.291 14.615 12.2571C14.6639 12.2326 14.711 12.2081 14.76 12.1837C14.8014 12.1629 14.8428 12.1441 14.8842 12.1234C15.0518 12.0444 15.2213 11.9709 15.3946 11.9051C15.9463 11.6923 16.5132 11.5474 17.1045 11.5173C17.5508 11.4928 17.9895 11.5323 18.4189 11.6622C18.4377 11.6679 18.4566 11.6773 18.4773 11.6679L18.4698 11.666ZM1.72293 33.5628C1.72293 33.5628 1.72293 33.5816 1.72293 33.591C1.72293 33.5816 1.72293 33.5722 1.72293 33.5628Z" fill="#777F8B"/>
<path d="M9.01078 17.5017C9.01078 17.5017 9.0167 17.4978 9.02064 17.4978C9.02064 17.5017 9.02064 17.5056 9.0167 17.5075C9.01472 17.5095 9.01078 17.5114 9.00684 17.5114C9.00684 17.5095 9.00684 17.5075 9.00684 17.5056C9.00684 17.5056 9.00684 17.5036 9.00881 17.5017H9.01078Z" fill="#C18B00"/>
<path d="M10.6551 13.029C10.6551 13.029 10.6684 13.0176 10.678 13.0176C10.6837 13.0176 10.6914 13.0176 10.699 13.0195C10.6952 13.0348 10.6894 13.0462 10.6818 13.0539C10.678 13.0577 10.6722 13.0596 10.6665 13.0615C10.6627 13.0615 10.6608 13.0615 10.657 13.0615H10.6551C10.6551 13.0615 10.6493 13.0615 10.6455 13.0596C10.6474 13.0481 10.6512 13.0386 10.657 13.0309L10.6551 13.029Z" fill="#C18B00"/>
<path d="M16.711 10.8753C16.3288 10.704 15.9427 10.5384 15.5604 10.3633C15.1235 10.1637 14.6697 10.0414 14.1895 10.0188C14.069 10.0188 13.9466 10.0188 13.8261 10.0188C13.779 10.0188 13.7319 10.0188 13.6848 10.0188C13.4438 10.032 13.2046 10.0677 12.9673 10.1186C12.2687 10.2673 11.619 10.5402 10.9957 10.8828C10.3686 11.2273 9.78483 11.6396 9.23118 12.0914C9.15962 12.1497 9.0843 12.2025 9.02404 12.2702C9.01839 12.2721 9.01462 12.2759 9.01086 12.2815V12.2872H9.00332C8.98826 12.3003 8.97131 12.3116 8.95624 12.3248C8.34234 12.85 7.77175 13.4204 7.23317 14.0209C6.5929 14.7363 6.00159 15.4911 5.44983 16.2761C4.62689 17.4451 3.89811 18.6725 3.25031 19.945C2.81342 20.8034 2.41419 21.6788 2.05451 22.5748C1.67977 23.5085 1.33892 24.4535 1.06209 25.4211C1.03196 25.5284 0.994301 25.6338 0.962288 25.7411C0.73631 26.5393 0.540463 27.3431 0.387928 28.1582C0.257991 28.8491 0.152535 29.5418 0.0847416 30.2421C0.0338966 30.7504 0 31.2586 0 31.7688C0 32.0003 0 32.2319 0.00188315 32.4653C0.00564944 32.4973 0.00564944 32.5293 0.00753259 32.5613C0.00753259 32.6102 0.00753259 32.6592 0.00564944 32.7081C0.00753259 32.9905 0.0320135 33.271 0.0583775 33.5515C0.103573 34.0089 0.173249 34.4645 0.273056 34.9125C0.399227 35.4754 0.572477 36.0213 0.821052 36.5446C1.08658 37.1037 1.42178 37.612 1.87561 38.0374C2.13925 38.2859 2.43114 38.4948 2.75881 38.6473C3.0507 38.7847 3.34635 38.9127 3.64012 39.0426C3.84162 39.1311 4.04123 39.2271 4.24838 39.3081C4.23708 39.2986 4.2239 39.2892 4.2126 39.2798C4.17305 39.2497 4.13162 39.2233 4.09019 39.197C4.07701 39.1895 4.06571 39.1819 4.05253 39.1744C4.02993 39.1612 4.00922 39.148 3.98662 39.133C3.97344 39.1255 3.96214 39.116 3.94896 39.1085C3.64954 38.8977 3.38966 38.6473 3.1618 38.3631C2.92076 38.0637 2.7155 37.74 2.54978 37.3936C2.44244 37.1677 2.34263 36.938 2.25601 36.7027C2.23341 36.682 2.21081 36.6594 2.1901 36.6387C2.2127 36.6613 2.23341 36.682 2.25601 36.7027C2.19575 36.5389 2.14114 36.3733 2.09594 36.2039C2.07523 36.1267 2.06205 36.0476 2.03756 35.9723C1.96036 35.7314 1.91704 35.4829 1.86808 35.2363C1.83418 35.0593 1.8097 34.8786 1.78522 34.6998C1.75886 34.5153 1.74379 34.3289 1.7212 34.1445C1.7212 34.1313 1.71931 34.12 1.71743 34.1068C1.71743 34.344 1.71743 34.5812 1.71743 34.8165C1.71743 34.5793 1.71743 34.3421 1.71743 34.1068C1.7099 34.0372 1.70801 33.9656 1.70236 33.8941C1.69295 33.7021 1.676 33.5101 1.676 33.3162C1.676 33.19 1.66282 33.0639 1.6647 32.9378C1.66658 32.6724 1.66847 32.4088 1.67977 32.1434C1.68918 31.9119 1.70236 31.6822 1.7212 31.4506C1.72496 31.4111 1.72685 31.3735 1.73061 31.3339C1.76827 30.9141 1.81535 30.4944 1.87373 30.0765C1.93399 29.636 2.0112 29.1992 2.09594 28.7644C2.12042 28.6364 2.14679 28.5084 2.17315 28.3803C2.27296 27.8984 2.38971 27.4222 2.51777 26.9478C2.58368 26.7031 2.65147 26.4584 2.72303 26.2155C2.79647 25.9614 2.87556 25.7091 2.95654 25.4588C3.04505 25.1858 3.13921 24.9147 3.23148 24.6437C3.24843 24.5928 3.27856 24.5458 3.29551 24.4949C3.39343 24.1806 3.51395 23.8737 3.63447 23.5688C3.81337 23.1189 3.99227 22.6671 4.19565 22.2266C4.38208 21.82 4.56286 21.4096 4.76813 21.0124C4.8491 20.8543 4.93008 20.6943 5.00729 20.5342C5.03553 20.4778 5.07508 20.4288 5.10144 20.3705C5.18619 20.1916 5.27846 20.0166 5.37638 19.8453C5.42346 19.7624 5.45924 19.674 5.52139 19.6005C5.61931 19.4123 5.72288 19.2278 5.83587 19.0471C5.90178 18.9436 5.95828 18.8325 6.0223 18.729C6.19743 18.4466 6.36692 18.1605 6.55147 17.8837C6.75673 17.575 6.95446 17.2644 7.17102 16.9632C7.38947 16.6582 7.6098 16.3533 7.83954 16.0577C7.91486 15.9617 7.99961 15.8733 8.07117 15.7716C8.16156 15.6455 8.25571 15.5231 8.3574 15.4064C8.49299 15.2464 8.62669 15.0864 8.76416 14.9283C8.81501 14.8699 8.8715 14.8191 8.92423 14.7607C9.01274 14.6591 9.09748 14.5537 9.18975 14.4558C9.49294 14.1357 9.79989 13.8195 10.1238 13.5221C10.1897 13.4618 10.2481 13.3941 10.3196 13.3413C10.3931 13.2886 10.4439 13.2096 10.5268 13.1663C10.5324 13.1625 10.5381 13.1606 10.5419 13.1569C10.5739 13.1324 10.5927 13.0891 10.6266 13.0646C10.6285 13.0627 10.6322 13.0609 10.6341 13.059C10.636 13.0477 10.6398 13.0383 10.6454 13.0307C10.6511 13.0232 10.6586 13.0194 10.668 13.0194C10.6737 13.0194 10.6812 13.0194 10.6887 13.0213C10.7 13.0119 10.7113 13.0025 10.7208 12.9931C10.7358 12.9837 10.7471 12.9743 10.7603 12.9667C10.8262 12.9197 10.8846 12.8651 10.9448 12.8105C11.039 12.7258 11.1407 12.6505 11.2405 12.5733C11.6397 12.2627 12.0616 11.9841 12.4947 11.7262C12.5436 11.6961 12.5964 11.6735 12.6472 11.6471C12.7979 11.5662 12.9466 11.4796 13.101 11.4043C13.5003 11.2066 13.9146 11.0485 14.3458 10.9337C14.568 10.8753 14.7921 10.8283 15.02 10.7963C15.2968 10.7586 15.5755 10.7435 15.8542 10.7586C16.1574 10.7774 16.4587 10.8245 16.7506 10.9205C16.7657 10.9243 16.7788 10.9261 16.792 10.9186C16.7675 10.8923 16.7299 10.8923 16.6997 10.8772L16.711 10.8753Z" fill="#4E545C"/>
<path d="M10.6672 12.9187C10.6672 12.9187 10.6604 12.9143 10.6582 12.9121C10.6604 12.9121 10.6649 12.9165 10.6672 12.9187Z" fill="#FF1100"/>
<path d="M10.6133 12.8857C10.6247 12.8914 10.6342 12.897 10.6437 12.9027C10.6342 12.897 10.6228 12.8914 10.6133 12.8857Z" fill="#FF1100"/>
<path d="M14.1894 10.0188H13.8263C13.7793 10.0188 13.7323 10.0188 13.6853 10.0188C13.6834 10.0132 13.6796 10.0075 13.6777 10C13.8508 10 14.0238 10 14.195 10C14.195 10.0056 14.1913 10.0113 14.1894 10.0188Z" fill="#FEC35E"/>
<path d="M9.00643 12.2903H9.00195V12.2815H9.01091V12.2881H9.00643V12.2903Z" fill="#C18B00"/>
<path d="M43.6617 21.5171L48.3696 33.5366L53.0455 21.5171H55.9399L49.6106 37.4484H46.9384L40.5771 21.5171H43.6636H43.6617Z" fill="#9AA6BA"/>
<path d="M62.0145 34.3648C62.9052 34.937 63.9862 35.2872 65.1311 35.2872C68.3438 35.2872 70.8578 32.7119 70.8578 29.4685H73.594C73.594 34.1106 69.8409 37.7682 65.069 37.7682C60.2971 37.7682 56.7021 34.1426 56.7021 29.5645C56.7021 24.9863 60.4553 21.2007 65.2272 21.2007C67.5811 21.2007 70.2533 22.0911 72.0027 24.4122L62.0145 34.3648ZM60.2971 32.5839L68.2496 24.6023C67.3269 23.998 66.278 23.6799 65.133 23.6799C61.9524 23.6799 59.4384 26.2551 59.4384 29.4666C59.4384 30.6111 59.7566 31.6917 60.2971 32.5821V32.5839Z" fill="#9AA6BA"/>
<path d="M76.6484 14.2356H79.6389V37.4483H76.6484V14.2356Z" fill="#9AA6BA"/>
<path d="M83.0098 29.4665C83.0098 24.7604 86.6367 21.1987 91.4387 21.1987C96.2408 21.1987 99.8997 24.7604 99.8997 29.4665C99.8997 34.1727 96.2728 37.7663 91.4387 37.7663C86.6047 37.7663 83.0098 34.2047 83.0098 29.4665ZM91.4387 35.0951C94.6194 35.0951 97.0053 32.678 97.0053 29.4665C97.0053 26.255 94.6194 23.8379 91.4387 23.8379C88.2581 23.8379 85.9042 26.287 85.9042 29.4665C85.9042 32.646 88.2901 35.0951 91.4387 35.0951Z" fill="#9AA6BA"/>
<path d="M110.843 37.4483C105.691 37.4483 102.254 34.2688 102.254 29.4666C102.254 24.6644 105.689 21.517 110.843 21.517H113.515V14.2356H116.506V37.4483H110.843ZM110.843 34.777H113.515V24.1562H110.843C107.47 24.1562 105.244 26.2871 105.244 29.4666C105.244 32.6461 107.47 34.777 110.843 34.777Z" fill="#9AA6BA"/>
<path d="M120.896 21.5169H123.886V26.127L128.816 21.1987L130.694 23.0755L123.886 29.8487V37.4482H120.896V21.5169Z" fill="#9AA6BA"/>
<path d="M130.884 29.4665C130.884 24.7604 134.511 21.1987 139.313 21.1987C144.115 21.1987 147.774 24.7604 147.774 29.4665C147.774 34.1727 144.147 37.7663 139.313 37.7663C134.479 37.7663 130.884 34.2047 130.884 29.4665ZM139.313 35.0951C142.493 35.0951 144.879 32.678 144.879 29.4665C144.879 26.255 142.493 23.8379 139.313 23.8379C136.132 23.8379 133.778 26.287 133.778 29.4665C133.778 32.646 136.164 35.0951 139.313 35.0951Z" fill="#9AA6BA"/>
<path d="M151.145 21.5169H154.072V23.4238C156.648 21.4849 157.761 21.1987 159.224 21.1987C161.134 21.1987 162.787 22.1851 163.582 23.7739C166.508 21.5169 167.685 21.1987 169.212 21.1987C171.949 21.1987 174.11 23.1697 174.11 26.159V37.4482H171.12V26.4772C171.12 25.0145 170.071 23.9339 168.734 23.9339C167.715 23.9339 166.953 24.1561 164.122 26.5092V37.4482H161.132V26.4772C161.132 25.0145 160.083 23.9339 158.746 23.9339C157.729 23.9339 156.964 24.1561 154.134 26.5092V37.4482H151.144V21.5169H151.145Z" fill="#9AA6BA"/>
<path d="M182.638 34.3648C183.528 34.937 184.609 35.2872 185.754 35.2872C188.967 35.2872 191.481 32.7119 191.481 29.4685H194.217C194.217 34.1106 190.464 37.7682 185.692 37.7682C180.92 37.7682 177.325 34.1426 177.325 29.5645C177.325 24.9863 181.078 21.2007 185.85 21.2007C188.204 21.2007 190.876 22.0911 192.626 24.4122L182.638 34.3648ZM180.92 32.5839L188.873 24.6023C187.95 23.998 186.901 23.6799 185.756 23.6799C182.575 23.6799 180.061 26.2551 180.061 29.4666C180.061 30.6111 180.38 31.6917 180.92 32.5821V32.5839Z" fill="#9AA6BA"/>
</g>
<defs>
<clipPath id="clip0_1681_6684">
<rect width="194" height="52" fill="white"/>
</clipPath>
</defs>
</svg>
