<svg width="194" height="52" viewBox="0 0 194 52" fill="none" xmlns="http://www.w3.org/2000/svg">
<path d="M22.713 0.027832L0 13.0246V39.0107L22.713 52L45.4033 39.0107V13.0246L22.713 0.027832ZM38.6777 35.1648L22.713 44.3007L6.73312 35.1648V16.863L22.713 7.72714L38.6853 16.863V35.1648H38.6777Z" fill="#9AA6BA"/>
<path d="M33.3036 32.0894L22.6982 38.1501L12.0928 32.0894V19.9531L22.6982 13.8774L33.3036 19.9531L28.8878 22.4746L22.6982 18.928L16.5161 22.4746V29.5529L22.6982 33.0995L28.8878 29.5529L33.3036 32.0894Z" fill="#9AA6BA"/>
<path d="M62.2057 27.9817V27.9143C62.1906 26.5376 62.4548 25.1683 62.9756 23.8963C63.504 22.6243 64.2739 21.4646 65.2628 20.4919C66.2441 19.5192 67.414 18.7485 68.6973 18.2322C69.9805 17.7084 71.3618 17.454 72.7507 17.469C74.2755 17.4166 75.7927 17.701 77.1892 18.307C78.5856 18.9131 79.8311 19.811 80.8275 20.9558L77.9214 24.031C76.5098 22.5869 75.0152 21.5244 72.7205 21.5244C69.354 21.5244 66.8706 24.4051 66.8706 27.8994V27.9742C66.8706 31.5358 69.354 34.379 72.9092 34.379C73.9132 34.3641 74.902 34.1321 75.8154 33.7056C76.7212 33.2791 77.5288 32.6731 78.1855 31.9174L80.9784 34.6559C79.5895 36.302 77.7251 37.4842 75.6417 38.0454C73.5584 38.6066 71.3467 38.5242 69.3087 37.8059C67.2706 37.0876 65.5043 35.7633 64.2437 34.0199C62.9832 32.2765 62.2963 30.1889 62.2661 28.049L62.2057 27.9817Z" fill="#9AA6BA"/>
<path d="M85.123 17.8583H89.7879V22.3701C91.0561 19.3772 93.3809 17.327 96.9438 17.4767V22.3402H96.6796C92.6186 22.3402 89.7879 24.9515 89.7879 30.2565V37.881H85.123V17.8583Z" fill="#9AA6BA"/>
<path d="M99.1701 27.9817V27.9144C99.238 25.1384 100.4 22.4897 102.401 20.5443C104.401 18.5989 107.096 17.5065 109.896 17.4915C112.704 17.484 115.399 18.554 117.414 20.4844C119.43 22.4149 120.615 25.0486 120.705 27.8321V27.9069C120.705 29.3061 120.426 30.6828 119.875 31.9698C119.324 33.2567 118.524 34.424 117.513 35.3967C116.501 36.3694 115.308 37.1326 113.995 37.6414C112.682 38.1502 111.285 38.3971 109.874 38.3597C108.477 38.3971 107.088 38.1502 105.79 37.6414C104.492 37.1326 103.307 36.3769 102.303 35.4042C101.306 34.4389 100.514 33.2792 99.9702 31.9997C99.4418 30.7427 99.1625 29.3659 99.1701 27.9817ZM116.078 27.9817V27.9144C116.116 27.0838 115.98 26.2533 115.686 25.4751C115.391 24.697 114.939 23.9861 114.365 23.3801C113.791 22.774 113.089 22.2951 112.319 21.9659C111.549 21.6367 110.719 21.4646 109.881 21.4571C106.167 21.4571 103.79 24.3378 103.79 27.8321V27.9069C103.759 28.7299 103.895 29.553 104.19 30.3237C104.484 31.0943 104.929 31.7977 105.503 32.3963C106.077 32.9949 106.764 33.4737 107.526 33.8029C108.288 34.1322 109.111 34.3043 109.942 34.3117C113.708 34.3192 116.078 31.431 116.078 27.9817Z" fill="#9AA6BA"/>
<path d="M125.378 17.8582H130.028V20.9334C130.685 19.8634 131.613 18.973 132.723 18.367C133.832 17.7534 135.078 17.4392 136.346 17.4541C140.898 17.4541 143.532 20.4845 143.532 25.1085V37.8883H138.897V26.5002C138.897 23.3876 137.335 21.6143 134.572 21.6143C131.809 21.6143 130.02 23.4774 130.02 26.5825V37.9108H125.355L125.378 17.8582Z" fill="#9AA6BA"/>
<path d="M148.038 27.9817V27.9144C148.106 25.1384 149.269 22.4897 151.269 20.5443C153.269 18.5989 155.964 17.5065 158.764 17.4915C161.572 17.484 164.267 18.554 166.283 20.4844C168.298 22.4149 169.483 25.0486 169.574 27.8321V27.9069C169.574 29.3061 169.294 30.6828 168.743 31.9698C168.192 33.2567 167.392 34.424 166.381 35.3967C165.369 36.3694 164.177 37.1326 162.863 37.6414C161.55 38.1502 160.146 38.3971 158.742 38.3597C157.345 38.3971 155.956 38.1502 154.658 37.6414C153.36 37.1326 152.175 36.3769 151.171 35.4042C150.174 34.4389 149.382 33.2792 148.838 31.9997C148.31 30.7427 148.031 29.3659 148.038 27.9817ZM164.947 27.9817V27.9144C164.984 27.0838 164.848 26.2533 164.554 25.4751C164.26 24.697 163.807 23.9861 163.233 23.3801C162.652 22.774 161.957 22.2951 161.187 21.9659C160.418 21.6367 159.587 21.4646 158.749 21.4571C155.036 21.4571 152.658 24.3378 152.658 27.8321V27.9069C152.628 28.7299 152.763 29.553 153.058 30.3237C153.352 31.0943 153.798 31.7977 154.371 32.3963C154.945 32.9949 155.632 33.4737 156.394 33.8029C157.157 34.1322 157.979 34.3043 158.81 34.3117C162.546 34.3192 164.947 31.431 164.947 27.9817Z" fill="#9AA6BA"/>
<path d="M172.631 35.2621L174.699 32.1494C176.586 33.6459 178.904 34.5063 181.319 34.6186C183.312 34.6186 184.459 33.7506 184.459 32.4562V32.3814C184.459 30.8325 182.323 30.3013 179.953 29.5755C176.964 28.7075 173.635 27.5253 173.635 23.7393V23.6645C173.635 19.8335 176.813 17.5215 180.836 17.5215C183.478 17.5739 186.044 18.3595 188.256 19.7961L186.422 23.0584C184.723 21.9435 182.761 21.2926 180.73 21.1654C178.971 21.1654 177.9 22.0408 177.9 23.1332V23.208C177.9 24.6895 180.081 25.2881 182.451 26.0513C185.395 26.9642 188.724 28.2885 188.724 31.895V31.9624C188.724 36.1824 185.425 38.2625 181.221 38.2625C178.088 38.24 175.077 37.185 172.631 35.2621Z" fill="#9AA6BA"/>
</svg>
