<svg width="194" height="52" viewBox="0 0 194 52" fill="none" xmlns="http://www.w3.org/2000/svg">
<g clip-path="url(#clip0_1681_6686)">
<path d="M105.485 16.0813L101.727 24.6064C101.396 25.3367 101.005 25.8583 100.554 26.216C100.103 26.5588 99.5466 26.7227 98.8848 26.7227C98.4641 26.7227 98.0429 26.678 97.6222 26.5737V25.1727C98.103 25.2174 98.4039 25.2323 98.5242 25.2323C98.9151 25.2323 99.2458 25.1578 99.5163 24.9939C99.7868 24.8448 100.013 24.5467 100.208 24.1295L100.524 23.4141L97.4268 16.1111H99.216L101.441 21.7001L103.726 16.1111L105.485 16.0813Z" fill="#9AA6BA"/>
<path d="M110.943 15.9473C112.026 15.9473 112.943 16.3199 113.664 17.08C114.386 17.8401 114.747 18.8089 114.747 19.9267C114.747 21.0445 114.386 22.0132 113.679 22.7733C112.972 23.5335 112.07 23.906 110.988 23.906C110.432 23.906 109.906 23.8017 109.424 23.5782C108.958 23.3546 108.583 23.0565 108.297 22.669V23.7421H106.748V12.0425H108.402V17.0204C109.019 16.2901 109.89 15.9175 111.003 15.9175L110.943 15.9473ZM110.702 22.4454C111.379 22.4454 111.905 22.1921 112.371 21.7301C112.822 21.268 113.048 20.657 113.048 19.9118C113.048 19.1815 112.822 18.6002 112.371 18.1084C111.92 17.6463 111.349 17.4079 110.673 17.4079C110.026 17.4079 109.485 17.6315 109.019 18.0637C108.552 18.4959 108.342 19.1219 108.342 19.9416C108.342 20.7613 108.583 21.4022 109.034 21.8195C109.485 22.2368 110.041 22.4454 110.687 22.4454H110.702Z" fill="#9AA6BA"/>
<path d="M93.5778 32.0732C94.4647 32.0732 95.1867 32.3713 95.6979 32.9228C96.2091 33.4742 96.4647 34.2045 96.4647 35.1435V39.9426H94.8108V35.367C94.8108 34.8454 94.6601 34.3983 94.3447 34.0853C94.0289 33.7574 93.623 33.5934 93.1268 33.5934C92.6156 33.5934 92.1946 33.7574 91.8638 34.0853C91.5331 34.4132 91.3827 34.8305 91.3827 35.3372V39.9426H89.7139V32.2521H91.2624V33.0122C91.8488 32.3862 92.6156 32.0881 93.5778 32.0881V32.0732Z" fill="#9AA6BA"/>
<path d="M105.666 36.6041H99.9078C100.013 37.2449 100.299 37.7368 100.75 38.1094C101.201 38.467 101.772 38.631 102.448 38.631C103.246 38.631 104.012 38.3329 104.704 37.7368L105.486 38.8545C104.614 39.6743 103.576 40.0767 102.404 40.0767C101.216 40.0767 100.208 39.6892 99.4265 38.9291C98.6448 38.169 98.2539 37.2002 98.2539 36.0824C98.2539 34.9646 98.6448 34.0108 99.4116 33.2357C100.178 32.4607 101.126 32.0732 102.238 32.0732C103.26 32.0732 104.117 32.4011 104.794 33.0718C105.47 33.7425 105.816 34.592 105.816 35.6055C105.816 35.5757 105.802 36.2166 105.666 36.6041ZM102.178 33.4593C101.637 33.4593 101.156 33.6232 100.734 33.966C100.329 34.3088 100.058 34.756 99.9377 35.3521H104.148C104.132 34.7709 103.937 34.3237 103.561 33.966C103.185 33.6232 102.719 33.4593 102.148 33.4593H102.178Z" fill="#9AA6BA"/>
<path d="M123.543 20.4632H117.785C117.89 21.104 118.176 21.5959 118.627 21.9685C119.078 22.3262 119.649 22.4901 120.325 22.4901C121.123 22.4901 121.889 22.192 122.581 21.5959L123.363 22.7137C122.491 23.5334 121.453 23.9358 120.281 23.9358C119.093 23.9358 118.085 23.5483 117.303 22.7882C116.522 22.0281 116.131 21.0593 116.131 19.9415C116.131 18.8237 116.522 17.8699 117.289 17.0949C118.055 16.3199 119.003 15.9324 120.115 15.9324C121.137 15.9324 121.994 16.2602 122.671 16.9309C123.347 17.6016 123.693 18.4511 123.693 19.4646C123.693 19.4348 123.693 20.0608 123.543 20.4632ZM120.055 17.3184C119.514 17.3184 119.032 17.4824 118.612 17.8252C118.205 18.168 117.935 18.6151 117.815 19.2112H122.025C122.01 18.6299 121.814 18.1829 121.438 17.8252C121.062 17.4824 120.596 17.3184 120.025 17.3184H120.055Z" fill="#9AA6BA"/>
<path d="M111.619 38.5865C111.86 38.5865 112.176 38.5418 112.627 38.4971V39.898C112.116 40.0024 111.65 40.062 111.243 40.062C110.357 40.062 109.65 39.8384 109.154 39.4062C108.658 38.974 108.402 38.3033 108.402 37.409V33.6681H107.154V32.2374H108.402V30.2253H110.071V32.2374H112.371V33.6681H110.071V37.26C110.071 37.7369 110.191 38.0797 110.447 38.2884C110.702 38.4971 111.078 38.5865 111.575 38.5865H111.619Z" fill="#9AA6BA"/>
<path d="M126.114 32.2372L122.685 40.0767H122.129L119.709 34.9795L117.288 40.0767H116.731L113.304 32.2372H115.077L117.107 37.2449L119.453 32.0583H120.009L122.384 37.1704L124.385 32.2223H126.143V32.2372H126.114Z" fill="#9AA6BA"/>
<path d="M133.796 33.2059C132.999 32.4459 132.037 32.0732 130.91 32.0732C129.767 32.0732 128.805 32.4607 128.008 33.2209C127.226 33.9809 126.835 34.9497 126.835 36.0526C126.835 37.1704 127.226 38.1243 128.008 38.8844C128.789 39.6444 129.767 40.0319 130.91 40.0469C132.037 40.0469 132.999 39.6594 133.811 38.8844C134.608 38.1094 134.999 37.1406 134.999 36.0377C135.014 34.9348 134.608 33.966 133.796 33.2059ZM132.593 37.8262C132.142 38.2882 131.571 38.5266 130.894 38.5266C130.203 38.5266 129.647 38.2882 129.181 37.8262C128.73 37.3641 128.504 36.768 128.504 36.0526C128.504 35.3372 128.73 34.7559 129.181 34.2641C129.632 33.8021 130.203 33.5637 130.894 33.5487H130.91C131.586 33.5637 132.142 33.8021 132.608 34.2641C133.059 34.7262 133.285 35.3223 133.285 36.0526C133.285 36.7531 133.044 37.3641 132.593 37.8262Z" fill="#9AA6BA"/>
<path d="M140.697 32.1626C140.938 32.1626 141.133 32.1924 141.328 32.2371V33.6977H140.817C140.171 33.6977 139.645 33.8766 139.209 34.2491C138.787 34.6217 138.562 35.1285 138.562 35.8141V39.9425H136.908V32.252H138.457V33.2506C138.998 32.5352 139.75 32.1775 140.727 32.1775L140.697 32.1626Z" fill="#9AA6BA"/>
<path d="M129.511 16.0366C129.751 16.0366 129.947 16.0664 130.142 16.1112V17.5717H129.646C129 17.5717 128.473 17.7506 128.038 18.1232C127.617 18.4958 127.391 19.0026 127.391 19.6881V23.8165H125.737V16.1261H127.286V17.1246C127.827 16.4092 128.579 16.0516 129.556 16.0516L129.511 16.0366Z" fill="#9AA6BA"/>
<path d="M142.968 28.1982H144.622V39.9426H142.968V28.1982ZM150.034 39.9426H148.049L144.682 35.6055L147.704 32.2522H149.749L146.636 35.6204L150.034 39.9426Z" fill="#9AA6BA"/>
<path d="M89.7139 12.0574H91.3677V23.7868H89.7139V12.0574ZM96.7805 23.8017H94.7959L91.4278 19.4647L94.4498 16.1112H96.4946L93.3674 19.4796L96.7805 23.8017Z" fill="#9AA6BA"/>
<path d="M58.7266 25.9924L78.3171 37.1257C78.9937 37.5132 79.8658 37.0214 79.8658 36.2464V15.7385C79.8658 14.9635 79.0088 14.4717 78.3171 14.8592L58.7266 25.9924Z" fill="#9AA6BA"/>
<path d="M77.1744 10.0602L64.1692 0.208693C63.5678 -0.238426 62.6957 0.0745574 62.5304 0.804852L57.7793 22.7435L77.0692 11.7593C77.7157 11.3867 77.7759 10.5074 77.1744 10.0602Z" fill="#9AA6BA"/>
<path d="M64.1692 51.7916L77.2045 41.925C77.7909 41.4779 77.7308 40.5985 77.0993 40.2259L57.7793 29.2566L62.5454 51.1951C62.6807 51.9257 63.5527 52.2387 64.1692 51.7916Z" fill="#9AA6BA"/>
<path d="M53.7049 25.9925L58.8319 2.35479C59.0273 1.43074 57.9599 0.745165 57.1931 1.34132L44.0675 11.2823C43.3909 11.789 43 12.5938 43 13.4285V38.6013C43 39.4359 43.3909 40.2407 44.0675 40.7474L57.1931 50.6735C57.9448 51.2399 59.0273 50.5692 58.8319 49.66L53.7049 25.9925Z" fill="#9AA6BA"/>
</g>
<defs>
<clipPath id="clip0_1681_6686">
<rect width="108" height="52" fill="white" transform="translate(43)"/>
</clipPath>
</defs>
</svg>
