<svg width="194" height="52" viewBox="0 0 194 52" fill="none" xmlns="http://www.w3.org/2000/svg">
<g clip-path="url(#clip0_1681_6806)">
<path d="M46.312 26.1154C46.0744 15.4616 37.3768 6.82617 26.656 6.82617C15.7768 6.82617 7 15.6202 7 26.5047C7 34.3616 11.6584 41.4401 18.808 44.5469C19.7368 43.1485 20.5144 41.5122 20.9824 39.8832C21.3712 38.874 21.8392 37.8576 22.228 36.9278C22.7752 37.0864 23.3944 37.1584 24.0136 37.1584C25.648 37.1584 27.196 36.5385 28.3624 35.3708L28.4416 35.2915C27.7432 35.0608 27.0448 34.9023 26.3464 34.9023C25.0288 34.9023 23.704 35.3708 22.6168 36.1493C23.164 34.9815 23.7832 33.8931 24.3232 32.8047C24.9424 33.0353 25.6408 33.1939 26.3464 33.1939C27.9016 33.1939 29.3776 32.6461 30.4648 31.5576L30.544 31.4783C29.7664 31.1684 28.9888 31.0098 28.1392 31.0098C26.8936 31.0098 25.7344 31.3991 24.7192 32.019C25.3384 31.0098 25.9648 29.9934 26.584 29.1429C27.1312 29.3015 27.592 29.3735 28.1392 29.3735C29.8456 29.3735 31.5592 28.6743 32.7256 27.348L32.8048 27.2687C32.1856 27.0381 31.5592 26.9588 30.94 26.9588C29.6944 26.9588 28.456 27.348 27.4408 28.0472C27.52 27.9679 27.52 27.8886 27.5992 27.8166C27.988 27.2687 28.3768 26.8074 28.8448 26.3389C31.408 25.4811 33.2728 23.3042 33.7408 20.6588V20.5939C31.0984 21.2931 29.0824 23.3907 28.5352 26.1154C28.1464 26.584 27.7576 27.0453 27.3688 27.5931C27.5992 26.8939 27.7576 26.1947 27.7576 25.4162C27.7576 24.4071 27.448 23.3186 26.98 22.4608L26.9008 22.5401C26.1232 23.6286 25.7344 24.8756 25.7344 26.1947C25.7344 27.1246 25.9648 28.1409 26.4328 28.9915C25.8136 29.8493 25.1872 30.7791 24.6472 31.7162C24.7264 31.327 24.7264 30.9377 24.7264 30.5485C24.7264 28.9915 24.1072 27.4345 23.02 26.3461V26.4254C22.7104 27.1246 22.552 27.9031 22.552 28.6815C22.552 30.1592 23.0992 31.5576 24.028 32.7254C23.4808 33.7345 22.9408 34.7509 22.3936 35.8393C22.4728 35.5294 22.4728 35.1401 22.4728 34.8302C22.4728 33.1218 21.7744 31.4856 20.608 30.3178V30.3971C20.3776 31.0963 20.2984 31.7955 20.2984 32.4947C20.2984 34.131 20.9176 35.6807 22.0048 36.8485C21.6952 37.627 21.3064 38.3262 20.9968 39.1047C20.9176 39.0254 20.8384 38.9461 20.6872 38.9461C20.14 38.7875 19.6 38.5568 19.0528 38.2469C18.664 38.0162 18.196 37.7783 17.7352 37.627C15.9496 37.0791 16.2592 36.2286 15.3304 34.4409C15.0208 34.0517 14.7112 33.7417 14.4016 33.4318C14.092 33.2011 13.8544 32.9632 13.624 32.6533C13.3936 32.264 13.3144 31.7955 13.2352 31.3342C13.2352 30.7864 12.9256 30.4043 12.3784 30.2457C9.736 29.3159 10.9024 25.9713 11.0608 25.5027C10.9816 24.9549 10.9024 24.335 10.672 23.7944C10.672 23.7151 10.5928 23.6358 10.5928 23.5637C10.5928 23.4051 10.5136 23.2537 10.5136 23.0952C10.5136 22.5473 10.744 22.0067 11.1328 21.5382C11.4424 21.2282 12.5296 20.6804 12.7672 20.4497C12.9976 20.1398 13.156 19.8298 13.3864 19.5199C14.0848 18.8207 14.9416 18.2008 15.8704 17.7322C16.648 17.343 16.7272 16.2545 17.0368 15.9446C17.5048 15.3968 18.2824 15.3968 18.8224 14.8561C19.132 14.6255 19.5208 14.4669 19.7512 14.2362C21.0688 13.0685 22.7032 12.29 24.4888 12.0594C24.7984 12.0594 25.036 12.0594 25.3456 12.0594C26.2744 12.0594 27.2104 12.2179 28.1392 12.4486C28.2976 12.4486 28.4488 12.5279 28.6864 12.5279C31.408 12.6072 34.6696 13.1478 35.836 14.3155C36.4552 14.8634 36.844 15.5626 37.0816 16.341C37.24 16.961 37.5496 17.5088 37.8592 18.0494L38.5576 19.2171C38.8672 19.765 39.0256 20.3849 39.0256 20.9255C39.0256 21.1561 39.0256 21.4733 38.9464 21.704C38.8672 21.9346 38.8672 22.1725 38.8672 22.4032C38.8672 22.6338 38.8672 22.7924 38.9464 23.0231C39.3352 23.5709 39.8032 24.1115 40.264 24.5801C40.4944 24.8107 40.6528 24.9693 40.8832 25.1279C41.4304 25.4378 41.9704 25.8271 42.5176 26.2163V26.2956C42.5176 26.6056 42.3592 26.8434 42.1288 26.9948C41.6608 27.3841 40.8112 28.0833 40.8112 28.0833C40.8112 28.2418 40.8904 28.4725 40.9696 28.6311C41.128 28.8618 41.4376 29.251 41.2792 29.561C41.2 29.8709 40.5016 30.1088 40.732 30.4908C40.8904 30.8801 41.3512 30.9594 41.2792 31.2693C41.1208 31.5793 40.5016 32.1271 40.5808 32.3578C40.66 32.5884 41.2 34.7653 39.9616 35.1545C38.4856 35.4645 36.9304 35.6231 35.3752 35.7024C34.9072 35.7024 34.4464 36.0123 34.2088 36.4809C33.9784 36.9494 33.82 37.4107 33.7408 37.8793C33.2728 39.6669 32.7328 41.3825 31.9552 43.0115C31.2568 44.6478 31.876 43.0908 31.876 43.2422C31.7176 43.5521 31.6456 43.9414 31.5664 44.2513C31.6456 44.482 31.7968 44.7199 32.0344 44.9505C32.1928 45.1091 32.4232 45.2605 32.6536 45.2605C32.7328 45.2605 32.812 45.2605 32.884 45.2605C40.8112 42.4637 46.168 34.996 46.168 26.5191C46.168 26.4398 46.168 26.2884 46.168 26.1298H46.312V26.1154Z" fill="#9AA6BA"/>
<path d="M63.7861 16.4707H68.2933L73.2685 24.4863L78.2365 16.4707H82.7437V35.45H78.6253V23.0807L73.2685 31.1755H73.1101L67.8253 23.1599V35.45H63.7861V16.4707Z" fill="#9AA6BA"/>
<path d="M97.583 16.4707H111.875V20.2046H101.701V24.0177H110.709V27.7516H101.701V31.7161H112.033V35.45H97.583V16.4707Z" fill="#9AA6BA"/>
<path d="M130.444 20.3632H124.698V16.4707H140.387V20.3632H134.641V35.45H130.444V20.3632Z" fill="#9AA6BA"/>
<path d="M154.061 16.4707H158.258V35.45H154.061V16.4707Z" fill="#9AA6BA"/>
<path d="M172.01 32.7253L174.494 29.7699C176.049 31.1683 178.065 32.0261 180.167 32.1054C181.874 32.1054 182.889 31.4062 182.889 30.3177V30.2384C182.889 29.15 182.27 28.6022 179.08 27.8309C175.199 26.901 172.787 25.8054 172.787 21.9994V21.9201C172.787 18.4962 175.509 16.168 179.39 16.168C179.469 16.168 179.469 16.168 179.548 16.168C182.032 16.168 184.444 17.0257 186.46 18.5755L184.286 21.6895C182.889 20.601 181.175 19.9018 179.39 19.8225C177.755 19.8225 176.985 20.5217 176.985 21.4588V21.5381C176.985 22.7851 177.763 23.1744 181.103 24.0249C184.984 25.0341 187.087 26.4325 187.087 29.705V29.7843C187.087 33.5182 184.214 35.6951 180.095 35.6951C180.016 35.6951 179.937 35.6951 179.865 35.6951C176.992 35.6951 174.119 34.6066 172.017 32.6604V32.7253H172.01Z" fill="#9AA6BA"/>
</g>
<defs>
<clipPath id="clip0_1681_6806">
<rect width="180" height="38.3478" fill="white" transform="translate(7 6.82617)"/>
</clipPath>
</defs>
</svg>
