<svg width="194" height="52" viewBox="0 0 194 52" fill="none" xmlns="http://www.w3.org/2000/svg">
<mask id="mask0_1681_6415" style="mask-type:luminance" maskUnits="userSpaceOnUse" x="7" y="3" width="181" height="47">
<path d="M187.708 3H7.29297V49.4742H187.708V3Z" fill="white"/>
</mask>
<g mask="url(#mask0_1681_6415)">
<path d="M68.0576 30.211H72.012C72.012 31.5422 72.6776 32.4427 75.2225 32.4427C77.5326 32.4427 78.3548 31.7771 78.3548 30.72C78.3548 30.211 78.0807 29.7803 77.3368 29.6237C76.5929 29.4671 75.4183 29.3496 73.9697 29.2322C71.8946 29.0756 70.2893 28.7232 69.428 28.1359C68.6058 27.5486 68.0576 26.4915 68.0576 25.3169C68.0576 22.1847 71.2681 20.462 75.2617 20.462C79.9992 20.462 82.1526 22.263 82.1526 25.6301H78.2373C78.1981 24.1032 77.4934 23.3201 75.34 23.3201C73.3432 23.3201 72.4819 23.9857 72.4819 24.9645C72.4819 25.591 72.7168 26.0608 73.539 26.2566C74.2829 26.4132 75.5358 26.5306 77.1019 26.6872C78.8637 26.8439 80.1166 27.0396 81.2129 27.6661C82.1526 28.175 82.8182 29.2713 82.8182 30.5242C82.8182 33.539 80.2341 35.34 75.3009 35.34C70.1719 35.2617 68.0576 33.1083 68.0576 30.211ZM85.9504 30.0935V24.1032H83.8361V20.6577H85.5588C86.2244 20.6577 86.4594 20.2662 86.5377 19.4049L86.7334 17.4081H90.3746V20.6577H94.9946V24.1032H90.3746V29.8586C90.3746 31.3464 91.0794 31.8162 92.8021 31.8162C93.4285 31.8162 94.329 31.7379 94.7989 31.6205V34.9876C94.4073 35.0659 93.1936 35.3008 92.019 35.3008C87.5556 35.2617 85.9504 33.304 85.9504 30.0935Z" fill="#9AA6BA"/>
<path fill-rule="evenodd" clip-rule="evenodd" d="M96.2861 30.9158C96.2861 28.5666 97.9697 26.8439 101.807 26.8439H106.505V25.8651C106.505 24.1032 105.526 23.3985 103.49 23.3985C101.846 23.3985 100.867 24.1032 100.867 25.2778C100.867 25.3561 100.867 25.591 100.906 25.9042H96.8343C96.7951 25.6301 96.7951 25.3561 96.756 25.0429C96.756 22.1456 99.34 20.4229 103.686 20.4229C108.267 20.4229 110.929 22.4588 110.929 26.2957V35.0268H106.466C106.544 34.2829 106.662 32.9908 106.662 32.1295H106.622C106.192 34.1654 104.547 35.2617 101.924 35.2617C98.5961 35.2617 96.2861 33.813 96.2861 30.9158ZM106.466 29.5063V29.2322H102.198C100.984 29.2322 100.28 29.7803 100.28 30.6025C100.28 31.6988 101.259 32.2861 102.825 32.2861C105.135 32.2861 106.466 31.2681 106.466 29.5063Z" fill="#9AA6BA"/>
<path d="M112.966 20.6578H117.39L117.233 24.7688H117.312C117.938 22.0281 119.465 20.4229 122.284 20.4229C125.221 20.4229 126.943 22.3022 126.943 26.0608C126.943 26.883 126.865 28.1751 126.787 28.919H122.754C122.793 28.2142 122.832 27.5095 122.832 27.0396C122.832 24.9254 121.971 24.1032 120.601 24.1032C118.721 24.1032 117.39 25.6301 117.39 28.8407V35.0659H112.966C112.966 35.0268 112.966 20.6578 112.966 20.6578Z" fill="#9AA6BA"/>
<path fill-rule="evenodd" clip-rule="evenodd" d="M144.091 36.2406C144.091 39.5294 141.155 41.2913 136.183 41.2913C131.093 41.2913 128.117 39.8818 128.117 37.4935C128.117 35.9665 129.096 35.066 130.701 34.8702V34.8311C129.84 34.283 129.37 33.4999 129.37 32.4819C129.37 31.1116 130.075 30.2502 131.132 29.7804V29.7413C129.605 28.8799 128.783 27.4313 128.783 25.5911C128.783 22.3414 131.289 20.4229 135.517 20.4229C137.201 20.4229 138.61 20.697 139.667 21.2843L139.706 21.206C139.119 20.697 138.845 20.1097 138.845 19.5616C138.845 18.387 140.059 17.6823 141.86 17.6823C142.643 17.6823 143.073 17.7606 143.465 17.8389V20.6187C143.191 20.5404 142.878 20.5404 142.604 20.5404C141.664 20.5404 141.233 20.9319 141.233 21.6367C141.233 21.989 141.351 22.4197 141.547 22.9679C142.016 23.7118 142.251 24.5731 142.251 25.5911C142.251 28.8407 139.746 30.7201 135.478 30.7201C134.617 30.7201 133.833 30.6418 133.09 30.4852C132.933 30.7592 132.816 31.0724 132.816 31.4248C132.816 32.0513 133.324 32.4428 134.225 32.4428H138.884C142.173 32.4036 144.091 33.8523 144.091 36.2406ZM139.667 36.867C139.667 36.084 139.08 35.6533 137.788 35.6533H134.382C133.168 35.6533 132.502 36.1623 132.502 36.9845C132.502 38.0808 133.833 38.6289 136.104 38.6289C138.336 38.5897 139.667 38.0025 139.667 36.867ZM132.933 25.5911C132.933 27.0397 133.912 27.9402 135.517 27.9402C137.161 27.9402 138.101 27.0789 138.101 25.5911C138.101 24.1033 137.122 23.2419 135.517 23.2419C133.873 23.2028 132.933 24.1033 132.933 25.5911ZM145.07 30.9158C145.07 28.5667 146.754 26.844 150.591 26.844H155.289V25.8651C155.289 24.1033 154.31 23.3985 152.274 23.3985C150.63 23.3985 149.651 24.1033 149.651 25.2779C149.651 25.3562 149.651 25.5911 149.69 25.9043H145.618C145.579 25.6302 145.579 25.3562 145.54 25.0429C145.54 22.1457 148.124 20.4229 152.47 20.4229C157.051 20.4229 159.713 22.4589 159.713 26.2958V35.0269H155.289C155.367 34.283 155.485 32.9909 155.485 32.1296H155.446C155.015 34.1655 153.371 35.2618 150.747 35.2618C147.419 35.2618 145.07 33.8131 145.07 30.9158ZM155.289 29.5063V29.2323H151.021C149.808 29.2323 149.103 29.7804 149.103 30.6026C149.103 31.6989 150.082 32.2862 151.648 32.2862C153.958 32.2862 155.289 31.2682 155.289 29.5063Z" fill="#9AA6BA"/>
<path d="M163.002 30.0935V24.1032H160.888V20.6577H162.61C163.276 20.6577 163.511 20.2662 163.589 19.4049L163.785 17.4081H167.426V20.6577H172.046V24.1032H167.426V29.8586C167.426 31.3464 168.131 31.8162 169.893 31.8162C170.519 31.8162 171.42 31.7379 171.89 31.6205V34.9876C171.498 35.0659 170.284 35.3008 169.11 35.3008C164.607 35.2617 163.002 33.304 163.002 30.0935Z" fill="#9AA6BA"/>
<path fill-rule="evenodd" clip-rule="evenodd" d="M187.708 28.684H177.489C177.685 31.0332 178.898 32.0511 180.856 32.0511C182.579 32.0511 183.675 31.4247 183.792 30.0544H187.708C187.629 33.3432 184.889 35.2617 180.778 35.2617C176.001 35.2617 173.025 32.5601 173.025 27.9793C173.025 23.2418 176.001 20.3837 180.856 20.3837C184.889 20.3837 187.708 22.6937 187.708 27.392V28.684ZM183.832 26.1C183.832 24.4555 182.735 23.6333 180.895 23.6333C179.016 23.6333 177.998 24.4555 177.645 26.3349H183.871V26.1H183.832Z" fill="#9AA6BA"/>
<mask id="mask1_1681_6415" style="mask-type:luminance" maskUnits="userSpaceOnUse" x="7" y="3" width="46" height="47">
<path d="M52.8284 3.46997H7.29395V49.0045H52.8284V3.46997Z" fill="white"/>
</mask>
<g mask="url(#mask1_1681_6415)">
<mask id="mask2_1681_6415" style="mask-type:luminance" maskUnits="userSpaceOnUse" x="7" y="3" width="46" height="47">
<path d="M52.8294 3.47009H7.29492V49.0046H52.8294V3.47009Z" fill="white"/>
</mask>
<g mask="url(#mask2_1681_6415)">
<path d="M34.5834 5.27108L35.7971 8.12922C38.1854 13.6889 42.6097 18.1523 48.2085 20.5406L51.0667 21.7543C51.8106 22.0675 52.3978 22.5374 52.8677 23.0855C51.4582 12.945 43.4319 4.91871 33.2914 3.50921C33.8004 3.93989 34.2702 4.52718 34.5834 5.27108ZM9.09506 21.7152L11.9532 20.5014C17.5129 18.1131 21.9763 13.6889 24.3646 8.09007L25.5783 5.23192C25.8524 4.52718 26.3222 3.90074 26.9095 3.43091C16.769 4.8404 8.74268 12.8667 7.33319 23.0072C7.76387 22.4982 8.35116 22.0284 9.09506 21.7152ZM51.0275 30.7594L48.1694 31.9732C42.6097 34.3615 38.1463 38.7857 35.758 44.3845L34.5443 47.2035C34.2702 47.9083 33.8004 48.5347 33.2131 49.0045C43.3536 47.5951 51.3799 39.5688 52.7894 29.4282C52.3587 30.0155 51.7322 30.4854 51.0275 30.7594ZM25.5392 47.2035L24.3254 44.3845C21.9371 38.8249 17.5129 34.3615 11.914 31.9732L9.0559 30.7594C8.35116 30.4854 7.72471 30.0155 7.25488 29.4282C8.66438 39.5688 16.6907 47.5951 26.8312 49.0045C26.2831 48.5347 25.8524 47.9083 25.5392 47.2035Z" fill="#9AA6BA"/>
</g>
<path d="M19.7446 24.0251L21.1541 23.4378C23.8948 22.2632 26.0873 20.0707 27.2619 17.33L27.8492 15.9205C28.6714 13.9629 31.4512 13.9629 32.3126 15.9205L32.8999 17.33C34.0744 20.0707 36.267 22.2632 39.0077 23.4378L40.4172 24.0251C42.3748 24.8473 42.3748 27.6271 40.4172 28.4885L39.0077 29.0758C36.267 30.2504 34.0744 32.4429 32.8999 35.1836L32.3126 36.5931C31.4904 38.5507 28.7105 38.5507 27.8492 36.5931L27.2619 35.1836C26.0873 32.4429 23.8948 30.2504 21.1541 29.0758L19.7446 28.4885C17.787 27.6271 17.787 24.8473 19.7446 24.0251Z" fill="#9AA6BA"/>
</g>
</g>
</svg>
