<svg width="194" height="52" viewBox="0 0 194 52" fill="none" xmlns="http://www.w3.org/2000/svg">
<path d="M93.6788 15.3897H85.8998L82.5323 43.0941H75.8098L79.1648 15.3897H70.7715L71.4478 9.82446H94.3552L93.6788 15.3897Z" fill="#9AA6BA"/>
<path d="M97.7601 31.7308L98.338 27.108H103.733L104.176 23.5607C104.458 21.1999 103.659 20.552 101.337 20.552C99.0134 20.552 97.8221 20.9918 97.5021 23.5607L96.0892 35.0217C95.794 37.3454 96.9251 37.7853 99.0631 37.7853H107.347L106.695 43.094H95.7816C90.5341 43.094 89.0964 40.7826 89.723 35.7551L91.3824 22.3009C92.0951 16.4906 96.5067 15.5615 101.509 15.5615C106.842 15.5615 111.242 16.0014 110.468 22.3009L109.239 31.7555L97.7601 31.7308Z" fill="#9AA6BA"/>
<path fill-rule="evenodd" clip-rule="evenodd" d="M132.182 43.4122C125.755 43.4122 122.953 42.0793 123.789 35.2421L125.214 23.7193C126.062 16.8697 129.147 15.4998 135.624 15.4998C142.1 15.4998 144.791 16.9191 143.956 23.7193L142.53 35.2421C141.756 42.067 138.61 43.4122 132.182 43.4122ZM137.664 23.8419C137.959 21.4811 137.479 20.5396 135.009 20.5396C132.539 20.5396 131.777 21.3956 131.482 23.8419L130.081 35.1803C129.786 37.6266 130.327 38.4712 132.797 38.4712C135.267 38.4712 135.98 37.5411 136.262 35.1803L137.664 23.8419Z" fill="#9AA6BA"/>
<path d="M159.943 40.7333C159.588 41.1342 159.189 41.4942 158.752 41.8049C158.316 42.1155 157.845 42.3749 157.349 42.5791C156.853 42.7825 156.335 42.9297 155.806 43.0162C155.277 43.1036 154.739 43.1292 154.204 43.0941H144.064L144.728 37.7854H151.451C153.331 37.7854 154.597 37.5897 154.855 35.4255C155.064 33.7497 154.253 33.5046 153.036 32.6116L149.582 30.1045C146.671 27.9888 145.896 26.8507 146.4 23.0221C146.916 18.8392 148.857 15.8789 153.405 15.8789H162.708L162.057 21.2H156.12C154.437 21.2 153.085 21.4935 152.828 23.4629C152.631 24.8936 153.847 25.4684 154.892 26.2512C156.391 27.3893 157.952 28.3802 159.39 29.5174C161.848 31.3889 161.909 32.0245 161.516 35.2298C161.319 36.7954 161 39.3633 159.943 40.7333Z" fill="#9AA6BA"/>
<path d="M117.238 43.094C116.779 43.1396 116.317 43.1253 115.862 43.0531C115.407 42.98 114.963 42.8489 114.542 42.6636C114.12 42.4774 113.724 42.2389 113.364 41.952C113.005 41.6661 112.683 41.3345 112.409 40.9659C111.462 39.4373 111.671 37.7121 111.904 35.89L115.051 10.326L121.577 7.94141L118.258 34.8507C117.853 38.1035 118.725 37.81 121.601 37.81L120.949 43.0702L117.238 43.094Z" fill="#9AA6BA"/>
<path d="M66.9624 21.3956C65.9545 20.5757 65.3775 19.9763 64.5044 19.1935C63.3743 18.4724 58.1143 17.6041 54.6733 17.5547C52.3013 17.6525 50.3964 17.4568 51.859 22.1176C53.6903 27.9764 52.9031 36.1959 51.3546 40.5746C55.5703 34.7766 59.1709 31.6453 66.2622 26.7167C68.2654 25.2489 68.6829 22.7532 66.9624 21.3956Z" fill="#9AA6BA"/>
<path d="M44.6683 25.0654C43.4397 22.6191 40.6741 17.8728 38.7568 17.5916C34.8372 17.3835 30.0071 18.2395 28.9744 18.9491C27.9427 19.6588 27.0944 20.5395 26.0741 21.3954C24.366 22.7901 24.772 25.2848 26.8489 26.7165C34.9346 32.3548 39.3472 36.7335 44.2259 44.0239C44.4438 44.4419 44.7724 44.7925 45.1765 45.0376C45.5806 45.2817 46.0449 45.4119 46.5177 45.4119C46.9906 45.4119 47.4549 45.2817 47.859 45.0376C48.2631 44.7925 48.5927 44.4419 48.8095 44.0239C49.0312 43.6809 49.2642 43.3636 49.4859 43.033C49.3903 41.475 49.2174 39.9236 48.9662 38.3836C48.7149 36.8427 48.3873 35.316 47.9822 33.8084C47.5781 32.3007 47.0986 30.8139 46.5454 29.3537C45.9914 27.8945 45.3656 26.4628 44.6683 25.0654Z" fill="#9AA6BA"/>
<path d="M46.3401 6.71777C41.424 6.71777 33.4969 13.5303 32.084 14.8271C32.5569 14.602 33.0374 14.393 33.5246 14.2001C34.0118 14.0073 34.5057 13.8306 35.0053 13.671C35.504 13.5113 36.0094 13.3688 36.5176 13.2434C37.0268 13.118 37.5398 13.0097 38.0566 12.9195C38.5734 12.8283 39.4456 12.6373 41.3629 12.3932C41.7928 12.3428 42.2236 12.2991 42.6554 12.2602C43.0863 12.2222 43.519 12.1899 43.9508 12.1633C44.3836 12.1367 44.8163 12.1158 45.2491 12.1015C45.6819 12.0863 46.1156 12.0778 46.5483 12.0749C47.8141 12.0426 49.0808 12.0825 50.3419 12.1937C51.6029 12.3048 52.8562 12.4882 54.0972 12.7418C55.3372 12.9964 56.5609 13.3204 57.7637 13.7137C58.9673 14.107 60.1462 14.5687 61.2964 15.096C59.723 13.7261 51.2188 6.71777 46.3401 6.71777Z" fill="#9AA6BA"/>
<path fill-rule="evenodd" clip-rule="evenodd" d="M169.002 18.1542C169.002 19.0842 168.439 19.9231 167.575 20.2784C166.713 20.6347 165.718 20.438 165.058 19.7806C164.397 19.1222 164.199 18.1333 164.557 17.2745C164.915 16.4147 165.757 15.8551 166.692 15.8551C166.996 15.8494 167.299 15.9055 167.581 16.0195C167.864 16.1335 168.121 16.3026 168.337 16.5173C168.552 16.732 168.722 16.9876 168.836 17.2688C168.95 17.55 169.006 17.8511 169.002 18.1542ZM164.737 18.1542C164.748 18.9389 165.23 19.64 165.961 19.9336C166.692 20.2271 167.528 20.0542 168.082 19.4965C168.636 18.9379 168.798 18.1038 168.494 17.3799C168.191 16.656 167.48 16.1848 166.692 16.1848C166.432 16.1829 166.176 16.2332 165.936 16.332C165.696 16.4308 165.479 16.5762 165.297 16.7595C165.115 16.9429 164.972 17.1614 164.876 17.4008C164.779 17.6402 164.732 17.8967 164.737 18.1542ZM166.175 19.487H165.856V16.8336H166.876C167.478 16.8336 167.748 17.0902 167.748 17.5671C167.752 17.6592 167.737 17.7514 167.705 17.8378C167.673 17.9243 167.624 18.0041 167.561 18.0715C167.499 18.1399 167.423 18.195 167.339 18.234C167.255 18.2739 167.165 18.2967 167.073 18.3014L167.871 19.5241H167.49L166.728 18.3014H166.175V19.487ZM166.618 18.0316C167.023 18.0316 167.417 18.0316 167.417 17.5671C167.417 17.1025 167.109 17.1025 166.79 17.1025H166.175V18.0316H166.618Z" fill="#9AA6BA"/>
</svg>
