<svg width="194" height="52" viewBox="0 0 194 52" fill="none" xmlns="http://www.w3.org/2000/svg">
<g clip-path="url(#clip0_1681_6814)">
<path d="M17.7628 34.4762L24.8777 17.614H30.3056V39.5639H26.7115V21.0301L18.7897 39.6366H16.2225L8.37408 21.1027V39.5639H5V17.614H10.5746L17.7628 34.4762Z" fill="#9AA6BA"/>
<path d="M49.6692 36.0026C48.9357 37.529 46.7353 40.0001 43.0678 40.0001C38.2267 40.0001 34.7793 36.3661 34.7793 31.351V20.2307H38.4468V30.6969C38.4468 34.331 40.5739 36.7295 43.8746 36.7295C47.1754 36.7295 49.5959 34.2583 49.5959 30.6969V20.2307H53.19V39.4914H49.5959V35.93H49.6692V36.0026Z" fill="#9AA6BA"/>
<path d="M79.6698 39.5639H74.9754C70.3544 39.5639 68.0805 37.3835 68.0805 33.0952V23.4286H63.7529V20.2306H68.0805V15.4336H71.6747V20.2306H79.5964V23.4286H71.6747V32.2231C71.6747 35.0577 72.6282 36.2206 75.7089 36.2206H79.5964L79.6698 39.4912V39.5639Z" fill="#9AA6BA"/>
<path d="M100.648 39.9273H97.7137L88.4717 20.3032H92.5059L99.2541 35.0576L105.929 20.3032H109.743L100.648 39.9273Z" fill="#9AA6BA"/>
<path d="M129.694 30.3333H113.337C113.557 33.8947 116.198 36.7293 120.012 36.7293C123.9 36.7293 125.513 34.6215 125.88 33.9674H129.474C129.181 35.639 126.614 39.9999 120.012 39.9999C113.924 39.9999 109.67 35.5664 109.67 29.8972C109.67 24.228 113.924 19.7944 119.645 19.7944C125.367 19.7944 129.621 24.01 129.621 30.3333H129.694ZM113.631 27.3533H125.733C124.78 24.4461 122.726 22.7744 119.792 22.7744C116.491 22.7744 114.364 24.5187 113.631 27.3533Z" fill="#9AA6BA"/>
<path d="M136.882 39.564H133.288V20.3033H136.882V23.8647C137.469 22.4838 139.083 20.158 143.777 20.158H145.904V23.7194H143.704C138.643 23.7194 136.882 25.2457 136.882 28.7344V39.6367V39.564Z" fill="#9AA6BA"/>
<path d="M153.753 31.0602C150.012 30.6241 147.298 28.8797 147.298 25.3183C147.298 21.7569 150.599 19.6492 155.366 19.6492C161.968 19.6492 164.168 22.9925 164.828 24.9549H160.941C160.501 24.3735 159.034 22.7018 155.366 22.7018C152.432 22.7018 150.892 23.792 150.892 25.173C150.892 26.5539 151.919 27.3534 154.193 27.6442C155.733 27.8622 156.687 27.9349 158.447 28.0802C163.141 28.6617 165.049 30.6241 165.049 34.1855C165.049 37.4562 162.041 40 156.393 40C149.498 40 147.005 35.7845 146.564 34.1128H150.452C150.672 34.767 152.212 36.9474 156.393 36.9474C159.694 36.9474 161.381 35.7845 161.381 34.1855C161.381 32.6592 160.574 31.7143 157.86 31.4236L153.753 31.0602Z" fill="#9AA6BA"/>
<path d="M82.3838 11H86.1246V16.5238H82.3838V11ZM82.4571 20.3033H86.0513V39.5639H82.4571V20.3033Z" fill="#9AA6BA"/>
<path d="M57.8848 14.3433H61.4789V39.5638H57.8848V14.3433Z" fill="#9AA6BA"/>
<path d="M179.572 22.7017L188.374 18.1227L186.907 15.3608L178.838 18.5588C178.618 18.6315 178.398 18.6315 178.178 18.5588L170.11 15.3608L168.643 18.1227L177.445 22.7017L168.643 27.2806L170.11 30.0425L178.178 26.8445C178.398 26.7719 178.618 26.7719 178.838 26.8445L186.907 30.0425L188.374 27.2806L179.572 22.7017Z" fill="#9AA6BA"/>
</g>
<defs>
<clipPath id="clip0_1681_6814">
<rect width="183.374" height="29" fill="white" transform="translate(5 11)"/>
</clipPath>
</defs>
</svg>
