<svg width="194" height="52" viewBox="0 0 194 52" fill="none" xmlns="http://www.w3.org/2000/svg">
<g clip-path="url(#clip0_1681_6848)">
<path d="M31.4856 26.8228C31.3375 26.6549 31.0314 26.4476 30.6167 26.2303C30.5772 26.2106 30.5279 26.1908 30.4884 26.1612C29.8466 25.8354 28.9777 25.4997 28.089 25.2133H28.0989C28.2964 24.1371 28.4445 23.0214 28.2766 21.9451C28.0989 20.2765 27.5262 19.7729 25.8082 20.1975C25.5515 20.2567 25.275 20.3456 24.9887 20.4443C24.7912 20.1185 24.5937 19.8124 24.4061 19.5458C22.5993 16.9194 18.5905 11.8147 16.9811 11.8147C15.816 11.7555 15.2631 12.0714 14.335 12.6145C14.2461 12.6638 14.1474 12.7231 14.0486 12.7823C13.3871 13.1575 12.8835 13.5229 12.3405 13.9079C11.9258 14.2041 11.4815 14.5102 10.9384 14.8558C10.889 14.8854 10.8397 14.9151 10.8002 14.9447C10.6718 15.0237 10.5336 15.1125 10.4052 15.2014C10.0399 15.4285 9.68443 15.6852 9.33885 15.9617C9.20062 16.0802 9.06239 16.2085 8.9439 16.3467C8.91428 16.3862 8.85504 16.4554 8.82542 16.5146C8.44034 16.4159 7.65045 16.6232 7.65045 16.6232C7.65045 16.6232 7.14689 15.4877 6.77169 15.5371C6.39648 15.5963 6.4656 16.7911 6.4656 16.7911C6.4656 16.7911 5.26101 16.8799 5.17214 17.1761C5.09315 17.4723 6.25825 17.966 6.25825 17.966C6.25825 17.966 5.96204 19.1904 6.2385 19.3286C6.50509 19.4668 7.33449 18.5387 7.33449 18.5387C7.33449 18.5387 8.4206 19.2101 8.6082 18.9929C8.7958 18.7757 8.1935 17.6994 8.1935 17.6994C8.1935 17.6994 8.73656 17.2847 8.95378 16.949C8.99327 16.9885 9.04264 17.0379 9.09201 17.0774C9.55607 17.3934 10.0399 17.6599 10.5533 17.8969C10.5533 17.8969 10.5533 17.8969 10.5533 17.9068C10.5237 17.966 10.2966 18.3709 10.0201 18.8744C10.0103 18.8942 10.0004 18.9139 9.98064 18.9337C9.88191 19.1114 9.7733 19.299 9.67456 19.4866C9.59557 19.6248 9.52645 19.7532 9.45734 19.8815C9.40797 19.9704 9.36847 20.0494 9.31911 20.1284C9.26974 20.2172 9.23024 20.2962 9.18087 20.3752C8.96365 20.3061 8.7563 20.2469 8.5687 20.1975C6.85068 19.7729 6.278 20.2765 6.10027 21.9451C5.93242 23.0214 6.08052 24.1272 6.278 25.2035C5.27088 25.5096 4.39212 25.8848 3.77007 26.2007C3.7602 26.2106 3.75033 26.2106 3.74045 26.2205C3.25664 26.4772 2.93081 26.6944 2.85182 26.8129C2.69384 27.0499 3.16778 27.277 3.83919 27.4646C3.85894 27.4744 3.87869 27.4744 3.89843 27.4843C4.323 27.5929 4.81669 27.6916 5.28075 27.7706C5.49798 27.8003 5.84356 27.8398 6.29775 27.8694C6.17926 28.4124 6.12002 28.9752 6.12002 29.5479C6.12002 30.1798 6.19901 30.792 6.33724 31.3844C5.7152 31.493 5.1129 31.651 4.52048 31.8781C4.46124 31.8979 4.42174 31.9275 4.39212 31.9867C4.3625 32.046 4.35262 32.0953 4.37237 32.1546C4.39212 32.2138 4.42174 32.2533 4.47111 32.2829C4.52048 32.3125 4.57972 32.3224 4.63896 32.3027C5.22151 32.0756 5.83368 31.9176 6.45573 31.809C6.58408 32.2434 6.75194 32.668 6.94941 33.0728C6.89017 33.0926 6.82105 33.1123 6.76181 33.1321C6.24838 33.29 5.68558 33.4974 5.28075 33.8726C5.07341 34.0602 5.37949 34.3762 5.58684 34.1787C5.92255 33.8726 6.44585 33.6751 6.90004 33.5468C6.98891 33.5171 7.0679 33.4974 7.15676 33.4776C7.35423 33.8331 7.58133 34.1886 7.83805 34.5144C7.7788 34.5539 7.71956 34.5835 7.66032 34.623C7.2555 34.8698 6.90004 35.1957 6.60383 35.5709C6.57421 35.6202 6.56434 35.6795 6.58408 35.7387C6.59396 35.798 6.63345 35.8473 6.68282 35.877C6.73219 35.9066 6.79143 35.9165 6.85068 35.8967C6.90992 35.8868 6.95929 35.8473 6.98891 35.798C7.23575 35.4623 7.5912 35.1957 7.93678 34.9686C7.99603 34.9291 8.05527 34.8995 8.11451 34.86C10.1189 37.279 13.4661 38.8588 17.2378 38.8588C21.0392 38.8588 24.3864 37.2692 26.4006 34.8303C26.4698 34.8698 26.5389 34.9093 26.608 34.9587C26.9634 35.1858 27.3288 35.4623 27.5756 35.8078C27.6052 35.8572 27.6546 35.8967 27.7138 35.9066C27.7731 35.9165 27.8323 35.9165 27.8817 35.8868C27.9311 35.8572 27.9706 35.8078 27.9804 35.7486C27.9903 35.6894 27.9903 35.6301 27.9607 35.5807C27.625 35.1167 27.1708 34.7711 26.6771 34.4749C26.9239 34.1491 27.1412 33.8035 27.3386 33.4579C27.4374 33.4875 27.546 33.5171 27.6447 33.5468C27.9014 33.6159 28.1483 33.7146 28.3853 33.8232C28.5926 33.9121 28.7901 34.0306 28.9579 34.1787C29.1653 34.3663 29.4714 34.0602 29.264 33.8726C28.8592 33.4974 28.3063 33.29 27.783 33.1321C27.704 33.1024 27.6151 33.0827 27.5361 33.063C27.7336 32.6581 27.9014 32.2336 28.0298 31.7991C28.6716 31.8979 29.2936 32.0657 29.9058 32.3027C29.9651 32.3224 30.0243 32.3125 30.0737 32.2829C30.123 32.2533 30.1625 32.2039 30.1724 32.1546C30.1823 32.0953 30.1823 32.0361 30.1527 31.9867C30.123 31.9373 30.0737 31.8979 30.0243 31.888C29.4121 31.651 28.7901 31.4832 28.1483 31.3844C28.2865 30.792 28.3655 30.1897 28.3655 29.5677C28.3655 28.9555 28.2964 28.3532 28.1582 27.7706C28.4149 27.741 28.6321 27.7213 28.8 27.6916C29.0073 27.6522 29.2048 27.6225 29.4121 27.5929C29.738 27.5435 30.044 27.4843 30.3205 27.4349C30.3699 27.4251 30.4192 27.4152 30.4686 27.4053C30.6562 27.3658 30.8241 27.3263 30.9722 27.2868C31.4066 27.1486 31.6436 27.0104 31.4856 26.8228ZM9.83254 21.6489L10.8002 19.8914C10.9878 19.5557 11.1754 19.22 11.3136 18.9633C11.3926 18.8152 11.4617 18.6868 11.5111 18.598C11.5308 18.5585 11.5604 18.519 11.5703 18.4893C11.5802 18.4795 11.5901 18.4597 11.5901 18.44C11.5901 18.4301 11.5999 18.4202 11.6098 18.4005C11.6098 18.3906 11.6296 18.361 11.6394 18.3215C11.6493 18.3116 11.6691 18.2425 11.6888 18.1536C11.6987 18.0944 11.7184 17.9265 11.7184 17.8179C11.6789 17.6007 11.3728 17.1366 11.0075 16.8701L11.0273 16.8207C10.8495 16.7417 10.6817 16.6528 10.504 16.564C10.6718 16.4455 10.8495 16.327 11.0273 16.2085L11.0371 16.1986L11.047 16.1888C11.1655 16.1098 11.284 16.0407 11.4123 15.9518C11.4617 15.9222 11.5111 15.8926 11.5703 15.8531C12.143 15.4877 12.6071 15.1619 13.0218 14.8657C13.0909 14.8163 13.1501 14.7768 13.2094 14.7275C13.6734 14.4016 14.1079 14.1054 14.6312 13.7993C14.7497 13.7302 14.8484 13.671 14.9471 13.6117C15.3519 13.3748 15.5988 13.2365 15.8654 13.1279C16.1221 13.0292 16.4084 12.9699 16.9021 12.9897H16.9219C16.9416 12.9996 17.0009 13.0094 17.0996 13.0687C17.2773 13.1674 17.5044 13.3254 17.7908 13.5525C18.3536 14.0165 19.0151 14.688 19.7161 15.468C21.1281 17.0478 22.5499 18.9435 23.4385 20.2271C23.794 20.7504 24.1988 21.4218 24.6036 22.1327C23.1226 21.8958 20.5751 21.6094 17.149 21.6094C13.5154 21.6094 10.9878 21.9451 9.53633 22.2117C9.62519 22.0143 9.72393 21.8267 9.83254 21.6489ZM10.4151 31.6806C9.1315 30.9697 9.03277 28.8765 9.03277 28.8765C9.03277 28.8765 11.2642 28.7284 12.5676 29.3011C14.5127 30.1601 14.7595 32.1151 14.7595 32.1151C14.7595 32.1151 11.9258 32.5199 10.4151 31.6806ZM17.3168 33.8726C16.9614 33.8726 16.675 33.7442 16.675 33.5961C16.675 33.4382 16.9614 33.3197 17.3168 33.3197C17.6723 33.3197 17.9586 33.448 17.9586 33.5961C17.9586 33.7442 17.6723 33.8726 17.3168 33.8726ZM24.1396 31.6905C22.619 32.5298 19.805 32.1151 19.805 32.1151V32.1052C19.805 32.1052 20.042 30.1601 21.997 29.3109C23.3003 28.7383 25.5318 28.8864 25.5318 28.8864C25.5318 28.8864 25.4231 30.9598 24.1396 31.6905ZM24.2482 26.7931C22.1747 26.8623 19.6668 26.9018 17.2082 26.9215C14.7595 26.9412 12.1035 26.9018 9.90165 26.8425C7.95653 26.7931 6.45573 26.7141 5.73494 26.6352C6.21876 26.4574 6.76181 26.2797 7.32461 26.1316L7.93678 25.9736L8.14413 25.3812C8.21325 25.1837 8.29224 24.9862 8.36135 24.7888C10.0991 24.5518 13.3772 24.1865 17.2181 24.1865C20.1703 24.1964 23.1127 24.4136 26.0353 24.8283C26.1834 25.1245 26.3118 25.3713 26.4105 25.5787L26.6574 26.0625L27.1807 26.1908C27.2991 26.2205 27.3979 26.2501 27.4867 26.2698C27.7632 26.3488 28.0397 26.4476 28.3063 26.5364C27.5559 26.645 26.1044 26.724 24.2482 26.7931Z" fill="#9AA6BA"/>
<path d="M42.8049 29.1173C43.7374 29.1173 44.3963 28.9593 44.7816 28.6434C45.1862 28.3082 45.3866 27.9151 45.3866 27.4566C45.3866 27.0328 45.2286 26.7014 44.9126 26.4548C44.6121 26.1928 44.1574 25.9616 43.5409 25.7689L42.1961 25.3451C41.4563 25.1177 40.7897 24.8711 40.1925 24.6053C39.5953 24.324 39.0828 24.0003 38.6628 23.6304C38.2389 23.2451 37.9076 22.7943 37.661 22.2857C37.4336 21.7578 37.318 21.1259 37.318 20.3861C37.318 18.9103 37.8729 17.7389 38.9788 16.8758C40.1039 16.0127 41.6606 15.585 43.6488 15.585C44.404 15.585 45.1014 15.639 45.7333 15.743C46.3845 15.847 46.9394 16.0166 47.3941 16.2439C47.8526 16.4558 48.2109 16.7179 48.4768 17.0338C48.7427 17.3498 48.8737 17.7197 48.8737 18.1435C48.8737 18.5674 48.7696 18.9103 48.5577 19.2263C48.365 19.5268 48.1339 19.7811 47.8718 19.993C47.4673 19.7118 46.9317 19.4729 46.2612 19.2802C45.5946 19.0876 44.8625 18.9912 44.0726 18.9912C43.2288 18.9912 42.6046 19.1222 42.2 19.3881C41.7954 19.6501 41.595 19.9853 41.595 20.3899C41.595 20.7406 41.7261 21.0141 41.9919 21.2068C42.2539 21.384 42.6701 21.569 43.2326 21.7616L44.6583 22.2356C45.4867 22.5169 46.2073 22.8251 46.8199 23.1603C47.4518 23.4763 47.9797 23.8462 48.4036 24.2701C48.8274 24.6746 49.1434 25.1486 49.3515 25.6957C49.5634 26.2236 49.6674 26.8285 49.6674 27.5144C49.6674 28.2542 49.5171 28.9285 49.2204 29.545C48.9392 30.1423 48.5076 30.6624 47.9296 31.1017C47.3671 31.541 46.662 31.8839 45.8181 32.1305C44.9897 32.3771 44.0341 32.5004 42.9437 32.5004C42.1345 32.5004 41.387 32.431 40.7011 32.2885C40.0153 32.1652 39.418 31.9802 38.9055 31.7336C38.4123 31.487 38.0193 31.1903 37.7188 30.8358C37.4375 30.4659 37.2949 30.0536 37.2949 29.5951C37.2949 29.1366 37.4259 28.7243 37.6918 28.4083C37.9731 28.0924 38.2813 27.8381 38.6166 27.6416C39.0905 28.0269 39.68 28.3698 40.3852 28.6704C41.1057 28.9709 41.9149 29.1173 42.8126 29.1173H42.8049ZM58.9766 32.4426C58.5181 32.4426 58.0981 32.4002 57.709 32.3116C57.3236 32.2422 56.9692 32.1459 56.6532 32.0226V36.7427C56.4759 36.7967 56.2293 36.8468 55.9134 36.9007C55.5974 36.9547 55.2468 36.9816 54.8576 36.9816C54.0677 36.9816 53.4936 36.8506 53.143 36.5847C52.7923 36.3227 52.6151 35.818 52.6151 35.082V22.0237C52.6151 21.5651 52.7114 21.1952 52.9041 20.9139C53.0967 20.6134 53.3703 20.3514 53.7209 20.1241C54.2488 19.7888 54.927 19.5191 55.7516 19.3072C56.58 19.0798 57.4932 18.9643 58.495 18.9643C59.4968 18.9643 60.4486 19.0953 61.2924 19.3611C62.1555 19.6077 62.8915 20.0046 63.508 20.5479C64.1245 21.0912 64.5984 21.7886 64.9336 22.6325C65.2843 23.4763 65.4615 24.4781 65.4615 25.6379C65.4615 26.7977 65.2958 27.7302 64.9606 28.5933C64.6446 29.4371 64.1938 30.15 63.6158 30.7318C63.034 31.2944 62.3482 31.7259 61.5583 32.0226C60.7684 32.3039 59.9053 32.4465 58.9728 32.4465L58.9766 32.4426ZM58.3717 29.2522C59.3196 29.2522 60.0517 28.9516 60.5603 28.3544C61.0882 27.7572 61.3502 26.8517 61.3502 25.6379C61.3502 24.4242 61.0959 23.4917 60.5834 22.9484C60.0902 22.4051 59.3966 22.1315 58.4989 22.1315C58.0943 22.1315 57.7436 22.1855 57.4431 22.2895C57.1425 22.3782 56.8728 22.4822 56.6262 22.6055V28.8052C56.8728 28.9478 57.1348 29.0595 57.4161 29.1482C57.6974 29.2175 58.0134 29.2522 58.364 29.2522H58.3717ZM81.4329 25.6919C81.4329 26.7284 81.2749 27.6685 80.9589 28.5162C80.643 29.3447 80.1844 30.0459 79.5872 30.6278C79.0054 31.2096 78.3041 31.6566 77.4757 31.9725C76.6472 32.2885 75.7263 32.4465 74.7052 32.4465C73.6842 32.4465 72.7517 32.2962 71.9078 31.9995C71.0794 31.6835 70.3704 31.2327 69.7693 30.6547C69.1875 30.0729 68.7405 29.3716 68.4246 28.5432C68.1086 27.6994 67.9507 26.7476 67.9507 25.6957C67.9507 24.6438 68.1086 23.7537 68.4246 22.9253C68.7598 22.0815 69.2145 21.3686 69.7963 20.7868C70.3936 20.205 71.1064 19.758 71.9348 19.442C72.7787 19.1261 73.7034 18.9681 74.7052 18.9681C75.7071 18.9681 76.6241 19.1261 77.4487 19.442C78.2771 19.758 78.9784 20.2165 79.5602 20.8138C80.1575 21.3956 80.616 22.0969 80.9319 22.9253C81.2672 23.7537 81.4329 24.6746 81.4329 25.6957V25.6919ZM74.7052 22.1315C73.8768 22.1315 73.2372 22.4398 72.7787 23.0563C72.3201 23.6728 72.0928 24.5513 72.0928 25.6957C72.0928 26.8401 72.3124 27.7726 72.7517 28.3852C73.2102 28.9825 73.8614 29.283 74.7052 29.283C75.5491 29.283 76.1926 28.9748 76.6318 28.3583C77.0903 27.7417 77.3177 26.8555 77.3177 25.6957C77.3177 24.5359 77.0903 23.6998 76.6318 23.0833C76.1733 22.4514 75.5337 22.1354 74.7052 22.1354V22.1315ZM97.3926 25.6919C97.3926 26.7284 97.2347 27.6685 96.9187 28.5162C96.6027 29.3447 96.1442 30.0459 95.547 30.6278C94.9651 31.2096 94.2639 31.6566 93.4354 31.9725C92.607 32.2885 91.6861 32.4465 90.665 32.4465C89.6439 32.4465 88.7115 32.2962 87.8676 31.9995C87.0392 31.6835 86.3302 31.2327 85.7291 30.6547C85.1473 30.0729 84.7003 29.3716 84.3844 28.5432C84.0684 27.6994 83.9104 26.7476 83.9104 25.6957C83.9104 24.6438 84.0684 23.7537 84.3844 22.9253C84.7196 22.0815 85.1743 21.3686 85.7561 20.7868C86.3533 20.205 87.0662 19.758 87.8946 19.442C88.7384 19.1261 89.6632 18.9681 90.665 18.9681C91.6668 18.9681 92.5839 19.1261 93.4085 19.442C94.2369 19.758 94.9382 20.2165 95.52 20.8138C96.1172 21.3956 96.5758 22.0969 96.8917 22.9253C97.227 23.7537 97.3926 24.6746 97.3926 25.6957V25.6919ZM90.665 22.1315C89.8366 22.1315 89.197 22.4398 88.7384 23.0563C88.2799 23.6728 88.0526 24.5513 88.0526 25.6957C88.0526 26.8401 88.2722 27.7726 88.7115 28.3852C89.17 28.9825 89.8212 29.283 90.665 29.283C91.5089 29.283 92.1523 28.9748 92.5916 28.3583C93.0501 27.7417 93.2775 26.8555 93.2775 25.6957C93.2775 24.5359 93.0501 23.6998 92.5916 23.0833C92.1331 22.4514 91.4935 22.1354 90.665 22.1354V22.1315ZM107.973 25.5339L112.536 29.965C112.447 30.7048 112.22 31.2751 111.85 31.6797C111.499 32.065 110.987 32.2615 110.32 32.2615C109.811 32.2615 109.361 32.1382 108.975 31.8916C108.59 31.645 108.158 31.2404 107.684 30.6779L104.544 26.9596V32.0226C104.367 32.0766 104.12 32.1189 103.804 32.1536C103.488 32.2076 103.138 32.2345 102.749 32.2345C101.959 32.2345 101.385 32.1112 101.034 31.8646C100.683 31.6026 100.506 31.0978 100.506 30.3619V14.8722C100.699 14.8183 100.953 14.7682 101.273 14.7142C101.589 14.6603 101.939 14.6333 102.329 14.6333C103.118 14.6333 103.681 14.7643 104.016 15.0302C104.367 15.2922 104.544 15.797 104.544 16.5329V24.0003L109.318 19.1453C110.147 19.1453 110.805 19.3303 111.295 19.7002C111.788 20.0701 112.035 20.5286 112.035 21.0719C112.035 21.5459 111.869 21.9697 111.534 22.3396C111.218 22.6903 110.717 23.168 110.031 23.7653L107.973 25.5339ZM117.086 28.8823C116.682 28.0038 116.215 26.8594 115.687 25.453C115.179 24.0273 114.639 22.1893 114.077 19.9391C114.289 19.7118 114.578 19.5153 114.948 19.3573C115.333 19.18 115.749 19.0953 116.188 19.0953C116.751 19.0953 117.209 19.2186 117.56 19.4652C117.911 19.6925 118.184 20.1241 118.377 20.756C118.762 22.0391 119.151 23.3068 119.537 24.5552C119.941 25.8036 120.346 27.0597 120.75 28.3274H120.855C121.066 27.7302 121.286 27.079 121.513 26.3739C121.741 25.6533 121.96 24.9135 122.172 24.1583C122.384 23.3838 122.577 22.6093 122.754 21.8387C122.947 21.0488 123.116 20.282 123.255 19.5422C123.798 19.2417 124.372 19.0953 124.97 19.0953C125.532 19.0953 126.018 19.2186 126.422 19.4652C126.827 19.7118 127.027 20.1163 127.027 20.6789C127.027 21.3108 126.912 22.12 126.684 23.1064C126.472 24.0735 126.183 25.0946 125.814 26.1658C125.463 27.2216 125.058 28.2773 124.6 29.3331C124.161 30.3696 123.702 31.2867 123.228 32.0766C122.242 33.7488 121.355 34.9857 120.566 35.7948C119.776 36.6233 118.974 37.0356 118.165 37.0356C117.514 37.0356 116.978 36.8352 116.554 36.4306C116.131 36.0453 115.876 35.5444 115.788 34.9279C116.35 34.4347 116.932 33.8567 117.529 33.1863C118.146 32.5351 118.662 31.8762 119.086 31.2096C118.785 31.121 118.469 30.9283 118.138 30.6278C117.822 30.3118 117.471 29.73 117.082 28.8861L117.086 28.8823ZM135.026 29.1212C135.959 29.1212 136.618 28.9632 137.003 28.6472C137.408 28.312 137.608 27.919 137.608 27.4605C137.608 27.0366 137.45 26.7052 137.134 26.4586C136.834 26.1966 136.379 25.9654 135.762 25.7728L134.418 25.3489C133.678 25.1216 133.011 24.875 132.414 24.6091C131.817 24.3278 131.304 24.0042 130.884 23.6343C130.46 23.249 130.129 22.7981 129.882 22.2895C129.655 21.7616 129.54 21.1297 129.54 20.3899C129.54 18.9142 130.094 17.7428 131.2 16.8797C132.325 16.0166 133.882 15.5889 135.87 15.5889C136.626 15.5889 137.323 15.6428 137.955 15.7469C138.606 15.8509 139.161 16.0204 139.616 16.2478C140.074 16.4597 140.432 16.7217 140.698 17.0377C140.964 17.3536 141.095 17.7235 141.095 18.1474C141.095 18.5712 140.991 18.9142 140.779 19.2301C140.587 19.5307 140.355 19.785 140.093 19.9969C139.689 19.7156 139.153 19.4767 138.483 19.2841C137.816 19.0914 137.084 18.9951 136.294 18.9951C135.45 18.9951 134.826 19.1261 134.421 19.392C134.017 19.654 133.817 19.9892 133.817 20.3938C133.817 20.7444 133.948 21.018 134.213 21.2106C134.475 21.3879 134.892 21.5728 135.454 21.7655L136.88 22.2394C137.708 22.5207 138.429 22.829 139.041 23.1642C139.673 23.4802 140.201 23.8501 140.625 24.2739C141.049 24.6785 141.365 25.1524 141.573 25.6996C141.785 26.2275 141.889 26.8324 141.889 27.5183C141.889 28.2581 141.739 28.9324 141.442 29.5489C141.161 30.1461 140.729 30.6663 140.151 31.1056C139.589 31.5448 138.883 31.8877 138.04 32.1343C137.211 32.381 136.256 32.5043 135.165 32.5043C134.356 32.5043 133.608 32.4349 132.923 32.2923C132.237 32.169 131.64 31.9841 131.127 31.7375C130.634 31.4909 130.241 31.1942 129.94 30.8397C129.659 30.4698 129.516 30.0575 129.516 29.599C129.516 29.1404 129.647 28.7282 129.913 28.4122C130.195 28.0962 130.503 27.8419 130.838 27.6454C131.312 28.0307 131.902 28.3737 132.607 28.6742C133.327 28.9748 134.136 29.1212 135.034 29.1212H135.026ZM153.576 24.5051C153.418 25.1563 153.24 25.8229 153.048 26.5087C152.855 27.1946 152.662 27.8612 152.466 28.5124C152.273 29.1636 152.088 29.7608 151.911 30.308C151.734 30.8512 151.595 31.3021 151.487 31.6527C151.013 32.0766 150.258 32.2846 149.218 32.2846C148.586 32.2846 148.031 32.196 147.557 32.0226C147.083 31.8454 146.767 31.5833 146.609 31.2327C146.416 30.8089 146.185 30.1423 145.923 29.2291C145.661 28.3159 145.395 27.3102 145.133 26.2236C144.887 25.1332 144.648 24.0234 144.42 22.8983C144.193 21.7732 144.008 20.7868 143.866 19.943C144.078 19.7156 144.367 19.5191 144.736 19.3611C145.122 19.1839 145.538 19.0991 145.977 19.0991C146.54 19.0991 146.998 19.2301 147.349 19.496C147.699 19.7426 147.919 20.1741 148.008 20.7868C148.185 22.016 148.331 23.0717 148.455 23.9541C148.597 24.8326 148.717 25.5801 148.825 26.1966C148.929 26.8131 149.017 27.314 149.087 27.6994C149.175 28.0693 149.237 28.3583 149.272 28.5702H149.376C149.445 28.2889 149.553 27.865 149.692 27.3025C149.83 26.7399 150 26.108 150.192 25.4029C150.385 24.6823 150.589 23.9156 150.797 23.1064C151.025 22.278 151.244 21.4534 151.456 20.625C151.757 20.4477 152.061 20.3167 152.381 20.2281C152.716 20.1241 153.109 20.0701 153.568 20.0701C154.13 20.0701 154.604 20.1664 154.994 20.3591C155.398 20.5363 155.652 20.8061 155.76 21.176C155.988 21.9659 156.207 22.7481 156.419 23.5225C156.631 24.2778 156.824 24.9829 157.001 25.6341C157.178 26.2853 157.325 26.8632 157.448 27.3757C157.591 27.8843 157.695 28.2812 157.764 28.5625H157.895C158.142 27.1715 158.38 25.7227 158.608 24.2084C158.835 22.6787 159.047 21.1297 159.24 19.5653C159.521 19.4074 159.822 19.2918 160.137 19.2224C160.453 19.1338 160.769 19.0914 161.085 19.0914C161.629 19.0914 162.079 19.2147 162.43 19.4613C162.8 19.6886 162.985 20.0932 162.985 20.6751C162.985 20.9371 162.931 21.3532 162.827 21.9158C162.738 22.4783 162.615 23.1103 162.457 23.8154C162.315 24.5205 162.149 25.268 161.956 26.0579C161.764 26.8324 161.571 27.5799 161.374 28.3005C161.182 29.021 160.989 29.6799 160.793 30.2771C160.615 30.8744 160.469 31.3329 160.346 31.6488C160.153 31.8415 159.825 31.9918 159.371 32.0958C158.912 32.2191 158.423 32.2808 157.895 32.2808C156.558 32.2808 155.776 31.9571 155.548 31.3059C155.425 30.9553 155.275 30.5237 155.101 30.0151C154.924 29.5065 154.739 28.9516 154.547 28.3544C154.369 27.7379 154.196 27.106 154.019 26.4548C153.841 25.7882 153.695 25.137 153.572 24.5012L153.576 24.5051ZM171.1 29.4911C171.485 29.4911 171.867 29.4564 172.233 29.387C172.618 29.2984 172.911 29.1944 173.103 29.0711V26.6436L170.942 26.8285C170.379 26.8825 169.921 27.0135 169.57 27.2254C169.235 27.4181 169.069 27.7186 169.069 28.1232C169.069 28.5278 169.227 28.8784 169.543 29.125C169.859 29.3716 170.379 29.4949 171.1 29.4949V29.4911ZM170.942 18.9643C171.855 18.9643 172.683 19.0606 173.423 19.2532C174.178 19.4305 174.822 19.7118 175.35 20.0971C175.878 20.4824 176.282 20.9756 176.563 21.5728C176.864 22.1701 177.01 22.8752 177.01 23.6844V29.6452C177.01 30.1037 176.887 30.4736 176.641 30.7549C176.413 31.0169 176.132 31.2481 175.797 31.4408C175.253 31.776 174.583 32.0303 173.793 32.2076C173.003 32.3848 172.105 32.4696 171.104 32.4696C169.293 32.4696 167.851 32.1266 166.776 31.4408C165.705 30.7357 165.166 29.6722 165.166 28.2504C165.166 27.0366 165.528 26.1119 166.249 25.4799C166.969 24.848 168.079 24.4511 169.574 24.2932L173.084 23.9233V23.6343C173.084 23.0717 172.857 22.6594 172.398 22.3936C171.94 22.1315 171.281 21.9967 170.422 21.9967C169.755 21.9967 169.092 22.0776 168.445 22.2356C167.813 22.3936 167.239 22.5785 166.73 22.7904C166.518 22.6479 166.333 22.4398 166.175 22.1585C166.033 21.858 165.963 21.542 165.963 21.2106C165.963 20.4362 166.368 19.8813 167.177 19.5499C167.686 19.3573 168.275 19.2147 168.946 19.1261C169.632 19.022 170.298 18.9681 170.949 18.9681L170.942 18.9643ZM186.959 32.4426C186.501 32.4426 186.081 32.4002 185.692 32.3116C185.306 32.2422 184.952 32.1459 184.636 32.0226V36.7427C184.459 36.7967 184.212 36.8468 183.896 36.9007C183.58 36.9547 183.229 36.9816 182.84 36.9816C182.05 36.9816 181.476 36.8506 181.126 36.5847C180.775 36.3227 180.598 35.818 180.598 35.082V22.0237C180.598 21.5651 180.694 21.1952 180.887 20.9139C181.079 20.6134 181.353 20.3514 181.704 20.1241C182.232 19.7888 182.91 19.5191 183.734 19.3072C184.563 19.0798 185.476 18.9643 186.478 18.9643C187.479 18.9643 188.431 19.0953 189.275 19.3611C190.138 19.6077 190.874 20.0046 191.491 20.5479C192.107 21.0912 192.581 21.7886 192.916 22.6325C193.267 23.4763 193.444 24.4781 193.444 25.6379C193.444 26.7977 193.279 27.7302 192.943 28.5933C192.627 29.4371 192.177 30.15 191.599 30.7318C191.017 31.2944 190.331 31.7259 189.541 32.0226C188.751 32.3039 187.888 32.4465 186.955 32.4465L186.959 32.4426ZM186.354 29.2522C187.302 29.2522 188.034 28.9516 188.543 28.3544C189.071 27.7572 189.333 26.8517 189.333 25.6379C189.333 24.4242 189.079 23.4917 188.566 22.9484C188.073 22.4051 187.379 22.1315 186.482 22.1315C186.077 22.1315 185.726 22.1855 185.426 22.2895C185.125 22.3782 184.855 22.4822 184.609 22.6055V28.8052C184.855 28.9478 185.118 29.0595 185.399 29.1482C185.68 29.2175 185.996 29.2522 186.347 29.2522H186.354Z" fill="#9AA6BA"/>
</g>
<defs>
<clipPath id="clip0_1681_6848">
<rect width="193.278" height="33.85" fill="white" transform="translate(0.166016 9)"/>
</clipPath>
</defs>
</svg>
