<svg width="194" height="52" viewBox="0 0 194 52" fill="none" xmlns="http://www.w3.org/2000/svg">
<g clip-path="url(#clip0_1681_6416)">
<path d="M20.2362 1.48059C21.4285 0.843872 23.2418 0.843872 24.4379 1.48059L36.606 7.99622C37.3229 8.37903 37.7177 8.95325 37.7906 9.547H37.8021V42.3009C37.7867 42.9454 37.388 43.5861 36.606 44.004L24.4379 50.5197C23.2456 51.1564 21.4323 51.1564 20.2362 50.5197L8.06811 44.004C7.28988 43.5861 6.91801 42.9415 6.89884 42.3009C6.89884 42.2384 6.89884 42.1837 6.89884 42.1407V9.75403C6.89884 9.71887 6.89884 9.68372 6.89884 9.64856V9.54309H6.90651C6.96018 8.94544 7.33588 8.38684 8.07195 7.99231L20.2362 1.48059ZM35.8852 27.8204L24.4379 33.9493C23.2456 34.5861 21.4323 34.5861 20.2362 33.9493L8.81185 27.8322V42.2345L20.2362 48.3204C20.8802 48.6681 21.5511 49.0118 22.2067 49.0548H22.337C23.0194 49.0626 23.6827 48.7111 24.3535 48.379L35.8852 42.1837V27.8204ZM4.91684 41.5861C4.91684 42.84 5.06252 43.6642 5.34621 44.2462C5.58389 44.7267 5.93659 45.0939 6.58832 45.5431L6.62665 45.5665C6.7685 45.6642 6.92568 45.7657 7.11736 45.8868L7.34355 46.0275L8.03361 46.4493L7.04069 48.1095L6.26629 47.6368L6.13594 47.5548C5.91359 47.4142 5.72574 47.2931 5.55322 47.1759C3.70156 45.9181 3.01533 44.5392 3 41.6759V41.59H4.91684V41.5861ZM21.3786 19.0392C21.2904 19.0704 21.2061 19.1056 21.1294 19.1447L8.96136 25.6603C8.96136 25.6603 8.93452 25.672 8.92302 25.6798L8.91152 25.6876L8.93069 25.6993L8.95753 25.715L21.1256 32.2306C21.2023 32.2697 21.2828 32.3087 21.3748 32.3361V19.0353L21.3786 19.0392ZM23.2955 19.0392V32.34C23.3836 32.3087 23.468 32.2736 23.5446 32.2345L35.7165 25.7189C35.7165 25.7189 35.7434 25.7072 35.7549 25.6993L35.7664 25.6915L35.7472 25.6798L35.7204 25.6642L23.5485 19.1486C23.4718 19.1095 23.3913 19.0704 23.2993 19.0431L23.2955 19.0392ZM35.8852 11.8673L24.9669 17.7111L35.8852 23.5587V11.8673ZM8.81185 11.879V23.5431L19.7033 17.7111L8.81185 11.879ZM23.5408 3.19543C22.9083 2.85559 21.762 2.85559 21.1294 3.19543L8.95753 9.71106C8.95753 9.71106 8.93069 9.72278 8.91919 9.73059L8.90769 9.7384L8.92686 9.75012L8.95369 9.76575L21.1218 16.2814C21.7543 16.6212 22.9006 16.6212 23.5331 16.2814L35.705 9.76575C35.705 9.76575 35.7319 9.75403 35.7434 9.74622L35.7549 9.7384L35.7357 9.72668L35.7089 9.71106L23.5408 3.19543ZM37.6832 3.91028L38.4576 4.38293L38.588 4.46497C38.8103 4.60559 38.9982 4.72668 39.1707 4.84387C41.0185 6.10559 41.7086 7.4845 41.7239 10.3517V10.4376H39.8071C39.8071 9.18372 39.6614 8.3595 39.3777 7.77747C39.14 7.297 38.7873 6.9259 38.1356 6.48059L38.0973 6.45325C37.9554 6.35559 37.7982 6.25403 37.6065 6.13293L37.3804 5.99231L36.6903 5.57043L37.6832 3.91028Z" fill="#9AA6BA"/>
<path d="M61.18 40.9336V22.668H66.1522V19.3242H61.18V16.9219C61.18 14.207 62.3454 12.8477 64.6763 12.8477C65.351 12.8477 66.0679 12.9609 66.8231 13.1914V9.63281C65.8954 9.34766 64.8718 9.20312 63.7485 9.20312C61.5863 9.20312 59.9072 9.83203 58.7149 11.0898C57.5226 12.3477 56.9246 14.1758 56.9246 16.5781V19.3242H52.8379V22.668H56.9246V40.9336H61.18ZM78.4545 41.2344C80.0838 41.2344 81.5099 40.8906 82.729 40.2031C83.952 39.5156 84.872 38.5313 85.4893 37.2461V40.9336H89.7025V19.3203H85.4893V22.8359C84.8414 21.5508 83.9175 20.5547 82.7099 19.8555C81.5022 19.1563 80.0838 18.8047 78.4545 18.8047C76.6297 18.8047 75.0003 19.2773 73.5666 20.2188C72.1328 21.1641 71.0172 22.4922 70.2159 24.207C69.4147 25.9219 69.016 27.8945 69.016 30.125C69.016 32.3555 69.4109 34.3047 70.1968 35.9766C70.9827 37.6484 72.0868 38.9414 73.5052 39.8555C74.9237 40.7695 76.5722 41.2266 78.4545 41.2266V41.2344ZM79.4666 37.8047C77.5267 37.8047 76.0201 37.1328 74.939 35.7891C73.8579 34.4453 73.3174 32.5586 73.3174 30.1289C73.3174 27.6992 73.8579 25.7461 74.939 24.3633C76.0201 22.9766 77.5152 22.2852 79.4244 22.2852C81.3336 22.2852 82.8594 22.957 83.9098 24.3008C84.9641 25.6445 85.4893 27.5586 85.4893 30.0469C85.4893 32.5352 84.9641 34.4141 83.9098 35.7695C82.8555 37.1289 81.3757 37.8047 79.4666 37.8047ZM100.153 40.9336V28.625C100.153 26.7109 100.694 25.1797 101.775 24.0352C102.856 22.8906 104.297 22.3203 106.095 22.3203C107.667 22.3203 108.813 22.75 109.53 23.6055C110.247 24.4648 110.604 25.8359 110.604 27.7227V40.9297H114.859V27.4648C114.859 21.6914 112.317 18.8047 107.234 18.8047C105.605 18.8047 104.152 19.168 102.871 19.8984C101.595 20.6289 100.617 21.6797 99.9422 23.0508L99.5627 19.3203H95.6025C95.8287 21.1211 95.9399 23.1523 95.9399 25.4102V40.9336H100.153ZM129.097 41.2344C130.278 41.2344 131.328 41.0781 132.256 40.7617V37.2461C131.497 37.4766 130.753 37.5898 130.025 37.5898C128.902 37.5898 128.024 37.2812 127.391 36.668C126.759 36.0547 126.444 35.0039 126.444 33.5156V22.668H132.302V19.3242H126.444V12.4219L122.189 13.9219V19.3242H118.06V22.668H122.189V33.8594C122.189 36.2617 122.795 38.0898 124.002 39.3477C125.21 40.6055 126.908 41.2344 129.101 41.2344H129.097ZM145.36 41.2344C147.411 41.2344 149.22 40.7773 150.796 39.8633C152.368 38.9492 153.583 37.6484 154.442 35.9609C155.3 34.2734 155.726 32.3008 155.726 30.043C155.726 27.7852 155.297 25.8047 154.442 24.1055C153.587 22.4063 152.371 21.0977 150.796 20.1836C149.224 19.2695 147.411 18.8125 145.36 18.8125C143.309 18.8125 141.457 19.2695 139.881 20.1836C138.31 21.0977 137.094 22.4063 136.236 24.1055C135.381 25.8047 134.951 27.7852 134.951 30.043C134.951 32.3008 135.381 34.2734 136.236 35.9609C137.094 37.6484 138.306 38.9492 139.881 39.8633C141.453 40.7773 143.282 41.2344 145.36 41.2344ZM145.318 37.8047C143.378 37.8047 141.883 37.1484 140.832 35.832C139.778 34.5156 139.253 32.5859 139.253 30.043C139.253 27.5 139.786 25.6406 140.855 24.2969C141.925 22.9531 143.424 22.2812 145.364 22.2812C147.303 22.2812 148.756 22.9531 149.807 24.2969C150.861 25.6406 151.386 27.5547 151.386 30.043C151.386 32.5312 150.865 34.5156 149.826 35.832C148.787 37.1484 147.284 37.8047 145.318 37.8047ZM164.908 40.9336V28.7109C164.908 26.7383 165.387 25.1797 166.341 24.0352C167.296 22.8906 168.588 22.3203 170.217 22.3203C171.62 22.3203 172.64 22.75 173.273 23.6055C173.905 24.4648 174.22 25.8203 174.22 27.6797V40.9297H178.475V28.707C178.475 26.7344 178.947 25.1758 179.886 24.0312C180.825 22.8867 182.113 22.3164 183.742 22.3164C185.146 22.3164 186.165 22.7461 186.798 23.6016C187.43 24.4609 187.745 25.8164 187.745 27.6758V40.9258H192V27.4609C192 21.6875 189.642 18.8008 184.923 18.8008C183.351 18.8008 181.941 19.1719 180.691 19.9141C179.441 20.6562 178.494 21.6719 177.846 22.957C176.834 20.1836 174.687 18.7969 171.398 18.7969C169.853 18.7969 168.504 19.1523 167.353 19.8672C166.203 20.582 165.318 21.5977 164.701 22.9102L164.321 19.3086H160.361C160.587 21.1094 160.698 23.1406 160.698 25.3984V40.9219H164.911L164.908 40.9336Z" fill="#9AA6BA"/>
</g>
<defs>
<clipPath id="clip0_1681_6416">
<rect width="189" height="50" fill="white" transform="translate(3 1)"/>
</clipPath>
</defs>
</svg>
