<svg width="194" height="52" viewBox="0 0 194 52" fill="none" xmlns="http://www.w3.org/2000/svg">
<g clip-path="url(#clip0_1681_6418)">
<path d="M66.1769 47.5502V23.6019H69.7543L70.0675 25.5436H70.2554C71.2577 24.2283 73.0116 23.2887 75.3989 23.2887C79.7906 23.2887 83.3611 26.866 83.3611 32.1902C83.3611 37.5143 79.8463 41.0916 75.3919 41.0916C73.0116 41.0916 71.376 40.0894 70.499 38.962H70.3111V47.4876H66.1699V47.5502H66.1769ZM79.2199 32.1902C79.2199 29.0583 77.2154 27.1096 74.7655 27.1096C72.3156 27.1096 70.3111 29.0513 70.3111 32.1902C70.3111 35.329 72.3156 37.2707 74.7655 37.2707C77.2154 37.2707 79.2199 35.329 79.2199 32.1902Z" fill="#9AA6BA"/>
<path d="M85.4287 32.1902C85.4287 26.9843 89.1941 23.2887 94.1426 23.2887C99.1608 23.2887 102.857 27.0539 102.857 32.1902C102.857 37.396 99.0912 41.0916 94.1426 41.0916C89.1245 41.0916 85.4287 37.3334 85.4287 32.1902ZM98.7154 32.1902C98.7154 29.1209 96.7109 27.1096 94.1357 27.1096C91.6301 27.1096 89.556 29.114 89.556 32.1902C89.556 35.2664 91.6231 37.2707 94.1357 37.2707C96.6482 37.2707 98.7154 35.2664 98.7154 32.1902Z" fill="#9AA6BA"/>
<path d="M105.863 40.7784V17.0179H110.004V40.7784H105.863Z" fill="#9AA6BA"/>
<path d="M125.427 23.6018H129.819L122.358 44.4809C121.606 46.548 120.604 47.5502 117.903 47.5502H113.895V43.7223H117.277C117.903 43.7223 118.217 43.4091 118.405 42.908L118.78 41.7806L111.758 23.5948H116.15L120.604 35.5099H121.293L125.309 23.5948H125.427V23.6018Z" fill="#9AA6BA"/>
<path d="M130.634 41.6623H134.838C135.026 42.7898 136.153 44.2931 138.791 44.2931C141.297 44.2931 142.932 42.7272 142.932 40.34V37.9598H142.744C141.805 38.962 140.113 39.8389 137.977 39.8389C133.585 39.8389 130.14 36.4565 130.14 31.5638C130.14 26.6711 133.522 23.2887 137.977 23.2887C140.232 23.2887 141.93 24.2283 142.995 25.481H143.183L143.496 23.6019H147.073V40.34C147.073 44.9195 144.004 47.9261 138.798 47.9261C132.951 47.9261 130.759 44.1052 130.634 41.6623ZM142.863 31.5638C142.863 28.8704 140.983 26.9843 138.533 26.9843C136.153 26.9843 134.267 28.8634 134.267 31.5638C134.267 34.2642 136.146 36.1433 138.533 36.1433C140.921 36.1433 142.863 34.2572 142.863 31.5638Z" fill="#9AA6BA"/>
<path d="M149.885 32.1902C149.885 26.9843 153.65 23.2887 158.599 23.2887C163.617 23.2887 167.313 27.0539 167.313 32.1902C167.313 37.396 163.547 41.0916 158.599 41.0916C153.581 41.0916 149.885 37.3334 149.885 32.1902ZM163.178 32.1902C163.178 29.1209 161.111 27.1096 158.599 27.1096C156.093 27.1096 154.019 29.114 154.019 32.1902C154.019 35.2664 156.086 37.2707 158.599 37.2707C161.104 37.2707 163.178 35.2664 163.178 32.1902Z" fill="#9AA6BA"/>
<path d="M170.201 40.7784V23.6019H173.779L174.092 25.2305H174.28C174.969 24.4788 176.66 23.2887 179.235 23.2887C183.189 23.2887 186.007 26.1074 186.007 30.499V40.8411H181.866V31.0627C181.866 28.8704 180.3 27.2349 178.163 27.2349C176.027 27.2349 174.335 28.9261 174.335 31.0627V40.8411H170.201V40.7784Z" fill="#9AA6BA"/>
<path d="M43.8559 38.774L54.0106 32.8791C54.5743 32.5659 54.8875 32.0022 54.8875 31.3758V19.5861C54.8875 18.9597 54.5743 18.396 54.0106 18.0828L43.8559 12.1879C43.2922 11.8747 42.6658 11.8747 42.102 12.1879L31.9404 18.0828C31.3766 18.396 31.0634 18.9597 31.0634 19.5861V40.5905L23.9155 44.7315L16.7676 40.5905V32.378L23.9155 28.237L28.6205 30.9304V25.4113L24.7925 23.219C24.5419 23.0938 24.2287 22.9685 23.9155 22.9685C23.6023 22.9685 23.2891 23.0311 23.0386 23.219L12.877 29.1209C12.3132 29.434 12 29.9978 12 30.6242V42.4139C12 43.0403 12.3132 43.604 12.877 43.9172L23.0316 49.8121C23.5954 50.1253 24.2218 50.1253 24.7855 49.8121L34.9402 43.9172C35.5039 43.604 35.8171 43.0403 35.8171 42.4139V21.4095L35.9424 21.3469L42.972 17.2685L50.1199 21.4095V29.622L42.972 33.756L38.267 31.0626V36.5817L42.095 38.774C42.6588 39.0872 43.2852 39.0872 43.8559 38.774Z" fill="#9AA6BA"/>
</g>
<defs>
<clipPath id="clip0_1681_6418">
<rect width="174" height="38" fill="white" transform="translate(12 12)"/>
</clipPath>
</defs>
</svg>
