<svg width="194" height="52" viewBox="0 0 194 52" fill="none" xmlns="http://www.w3.org/2000/svg">
<g clip-path="url(#clip0_1681_6451)">
<path fill-rule="evenodd" clip-rule="evenodd" d="M21.3033 0.10667C32.4566 -0.557546 42.3541 7.01451 44.6381 17.8295C45.3053 20.7677 45.3053 23.8621 44.7088 26.8707C43.2332 34.2239 38.2099 40.3972 31.2714 43.2651C26.5464 45.2499 21.0835 45.5468 16.2093 44.0777C9.49066 42.0929 4.01996 37.0214 1.51616 30.473C-0.257701 25.7688 -0.406831 20.4707 1.14726 15.6962C3.94932 6.79571 11.9945 0.622414 21.3739 0.10667H21.3033ZM20.7852 11.7968C21.3032 11.578 21.8213 11.3592 22.2608 10.9841C22.2819 10.9841 22.2967 10.9904 22.3071 10.9992C22.2884 11.0074 22.2686 11.025 22.2686 11.0623C22.3006 11.0623 22.3181 11.0623 22.3277 11.0688C21.8848 12.7487 20.631 13.8524 18.8622 13.9926C18.6778 13.9926 18.511 14.0102 18.3442 14.0278C18.2224 14.0406 18.1004 14.0535 17.9717 14.0595C18.4673 13.9173 18.9598 13.7723 19.3804 13.5629C20.0476 13.1956 20.5654 12.6095 20.7852 11.7968C20.7338 11.8159 20.683 11.8351 20.6325 11.8543C20.6548 11.8294 20.6803 11.8049 20.7067 11.7812H20.7852V11.7968ZM17.873 13.9859C17.7817 13.6606 17.9236 13.3897 18.1246 13.1253C18.3444 12.8284 18.7133 12.6096 19.0822 12.4611C19.3532 12.3581 19.6081 12.2568 19.8607 12.1563C20.1154 12.055 20.368 11.9545 20.6325 11.8543C20.5887 11.9032 20.5576 11.9533 20.5576 12C20.2593 12.7345 19.8198 13.1799 19.1526 13.5472C18.7837 13.6957 18.4148 13.8442 18.0459 13.9145C17.9906 13.9145 17.9304 13.9145 17.873 13.9859ZM17.8983 14.0621C17.8745 14.0627 17.8505 14.063 17.8262 14.063C17.8415 14.0308 17.8571 14.0057 17.873 13.9859C17.88 14.011 17.8884 14.0364 17.8983 14.0621ZM17.8983 14.0621L17.9048 14.0787L17.9717 14.0595C17.9475 14.0606 17.923 14.0615 17.8983 14.0621ZM22.3277 11.0688C22.3392 11.0768 22.3392 11.0942 22.3392 11.1326C22.3392 11.1326 22.4098 11.0623 22.3392 10.9919C22.3392 10.9919 22.3236 10.9919 22.3071 10.9992C22.3315 11.0199 22.3315 11.0545 22.3315 11.0545L22.3277 11.0688ZM35.5568 15.5477L35.494 15.4774C35.3346 15.3241 35.1443 15.2437 34.9421 15.1583C34.8557 15.1217 34.7671 15.0843 34.6777 15.0398C34.7261 15.1414 34.7781 15.2431 34.8288 15.3197C34.8253 15.3224 34.8219 15.3255 34.8184 15.329C34.8184 15.3641 34.8361 15.4012 34.8538 15.4384C34.8714 15.4755 34.8891 15.5126 34.8891 15.5478C34.9294 15.6102 34.9767 15.6726 35.0255 15.7369C35.1475 15.8978 35.2781 16.0701 35.3286 16.2823C34.3711 15.6962 33.335 15.329 32.2283 15.032C31.051 14.6647 29.4262 14.4459 28.9082 14.5163C28.9082 14.5866 28.9082 14.5866 28.9788 14.5866C30.6036 14.8054 32.2283 15.3915 33.6333 16.2042C34.0728 16.4308 34.5202 16.7199 34.9597 17.0168L34.9764 17.0169L34.9683 17.0246C35.8552 17.681 36.6637 18.4156 37.3308 19.2283C38.0686 20.1894 38.7358 21.1428 39.2538 22.2446C40.0623 23.9325 40.5097 25.6985 40.5803 27.5349L40.7373 27.4098C40.7373 27.4802 40.7373 27.4802 40.8079 27.4802C42.4326 21.3772 40.8079 14.907 36.5224 10.2027C34.8977 8.51486 32.9747 7.04577 30.8319 6.01428C30.7256 6.06444 30.6951 6.15434 30.6607 6.25564C30.6469 6.29638 30.6324 6.33897 30.6122 6.38155L30.5965 6.42757C30.4525 6.85036 30.3062 7.2799 30.0941 7.70217C29.5986 8.64165 29.0039 9.4789 28.3077 10.24C28.6667 9.84386 28.9901 9.4309 29.2778 8.99927C29.945 8.04593 30.3139 7.09258 30.6828 6.0611H30.6043C30.6749 5.99077 30.6749 5.91262 30.6749 5.8423C30.9732 4.59201 31.193 3.34172 31.193 2.09143C31.0438 2.09143 31.0438 2.2399 31.0438 2.38837C30.5258 4.15441 29.5683 5.8423 28.3831 7.24106L28.3832 7.24946C28.3648 7.27012 28.3203 7.32593 28.3203 7.38175L28.5401 7.31142L28.5298 7.31141L28.5322 7.31138C28.7166 7.31138 28.8834 7.25668 29.0502 7.20198C29.217 7.14728 29.3838 7.09258 29.5682 7.09258C29.5233 7.15848 29.4855 7.21799 29.4506 7.27305C29.3695 7.40079 29.3036 7.50458 29.1994 7.60833C27.9435 9.22589 26.3894 10.4684 24.3958 11.2811C24.2467 11.2811 24.176 11.4295 24.176 11.4999C23.9563 12.3125 23.5874 13.0471 22.9202 13.6332C22.8988 13.6569 22.8773 13.6734 22.8598 13.6869C22.8197 13.7178 22.8004 13.7327 22.8496 13.7816H22.9202C24.0348 13.344 25.1415 12.8283 26.099 12.1641C26.1947 12.0939 26.2822 12.0238 26.3669 11.9559C26.5462 11.8122 26.7127 11.6788 26.9153 11.578L27.0644 11.4295L27.0912 11.4071C27.0745 11.4326 27.0645 11.4675 27.0645 11.5234C27.2136 11.5937 27.4334 11.5937 27.5825 11.5937C29.6546 11.8906 31.6482 12.4767 33.4927 13.3597C34.8192 14.0239 36.075 14.7585 37.2602 15.7118C38.2256 16.4464 39.1832 17.3294 39.921 18.2827V18.3531C39.8503 18.3531 39.8503 18.2827 39.8503 18.2827C39.7891 18.2507 39.7398 18.2318 39.6981 18.2157C39.6381 18.1927 39.5937 18.1757 39.5521 18.1343C39.493 18.1049 39.437 18.0755 39.3829 18.0467C38.2207 17.1209 36.9263 16.2637 35.5568 15.5477ZM35.5568 15.5477C35.4842 15.5475 35.411 15.5122 35.3393 15.4679C35.4044 15.4951 35.4762 15.5219 35.5568 15.5477ZM34.8678 15.3003C34.8629 15.3164 34.8696 15.3282 34.8779 15.3426C34.8868 15.3581 34.8975 15.3767 34.8975 15.4071C34.8752 15.3849 34.8522 15.3549 34.8288 15.3197C34.8416 15.3094 34.8546 15.3034 34.8678 15.3003ZM34.8678 15.3003C34.9003 15.2927 34.9336 15.3032 34.9664 15.3136C34.9908 15.3213 35.0149 15.329 35.0382 15.329C35.0617 15.3401 35.0853 15.3513 35.1091 15.3628C35.1808 15.3972 35.255 15.4328 35.3393 15.4679C35.3124 15.4513 35.2857 15.4335 35.2591 15.4157C35.2112 15.3837 35.1638 15.3521 35.1173 15.3289C35.082 15.3289 35.0447 15.3113 35.0074 15.2938C34.9701 15.2762 34.9328 15.2586 34.8975 15.2586C34.8799 15.2761 34.8711 15.2892 34.8678 15.3003ZM39.4729 18.2003V18.189C39.5049 18.189 39.5224 18.189 39.5254 18.1824C39.529 18.1745 39.5114 18.1571 39.4729 18.1187L39.3829 18.0467L39.3336 18.0203C39.1348 17.9142 38.9569 17.8191 38.7358 17.767C37.6291 17.3919 36.4518 17.1028 35.2666 16.9543C35.1231 16.9543 35.045 16.9543 34.9764 17.0169C35.1961 17.0192 35.421 17.0651 35.6781 17.1176C35.7547 17.1332 35.8343 17.1495 35.9173 17.1653C37.1025 17.3841 38.3583 17.7514 39.465 18.2671H39.4729L39.4737 18.3452C39.52 18.3683 39.5672 18.3922 39.6149 18.4164L39.6158 18.4169L39.6193 18.4186L39.6203 18.4191C39.7163 18.4678 39.8149 18.5177 39.9132 18.564L39.7641 18.3452L39.4729 18.2003ZM39.4729 18.2044C39.4688 18.1997 39.4658 18.1968 39.4658 18.1968L39.4729 18.2003V18.2044ZM39.4729 18.2044V18.2671C39.5191 18.2635 39.4881 18.2218 39.4729 18.2044ZM27.1819 11.3301C27.1736 11.3362 27.1655 11.3418 27.1577 11.3472C27.1311 11.3656 27.1078 11.3817 27.0912 11.4071C27.1216 11.3815 27.1519 11.3558 27.1819 11.3301ZM27.4242 11.1176C27.3548 11.1805 27.2846 11.2428 27.2136 11.3046C27.2028 11.3142 27.1922 11.3225 27.1819 11.3301C27.264 11.2598 27.3447 11.189 27.4242 11.1176ZM27.4242 11.1176C27.735 10.8361 28.0295 10.5441 28.3077 10.24C28.0339 10.542 27.7394 10.8343 27.4242 11.1176ZM28.5298 7.31141C28.5119 7.3118 28.4936 7.31647 28.4763 7.32089C28.4271 7.33344 28.3855 7.34403 28.3832 7.24946C28.3879 7.24408 28.391 7.24109 28.391 7.24109C28.391 7.30833 28.4555 7.31128 28.5298 7.31141ZM10.1462 36.7569C10.0798 36.6993 10.0187 36.6464 9.92969 36.6464C10.0788 36.7948 10.1494 36.8651 10.2985 36.9354C10.2098 36.9352 10.1489 36.8824 10.0825 36.8249C10.0376 36.786 9.99028 36.745 9.93018 36.7166C7.34788 34.4349 5.57403 31.567 4.53797 28.3319C4.01994 26.7143 3.80017 25.0968 3.72168 23.4089V22.9713C3.85086 23.2285 3.92115 23.4271 3.98866 23.6178L4.01994 23.7058C4.97751 25.761 6.16269 27.6052 7.78742 29.1446C9.56128 30.7621 11.5549 31.864 13.9881 32.3094C16.798 32.747 19.4509 32.3094 21.8134 30.7621C22.4279 30.3813 23.0002 29.9417 23.481 29.4214C23.8865 29.0072 24.2459 28.5494 24.5449 28.0428C24.9138 27.3786 25.1335 26.5737 25.1335 25.761C25.0728 24.7459 24.739 23.8984 24.1271 23.1192C24.6272 23.5932 25.0679 24.1741 25.3972 24.8102C25.8719 25.8789 26.003 27.0124 25.73 28.2616C25.6991 28.3589 25.6713 28.4524 25.6443 28.5431C25.5477 28.8674 25.4622 29.1546 25.2905 29.4415C25.3536 29.4142 25.4147 29.3854 25.474 29.3554L25.4538 29.3973L25.4318 29.4415C25.5024 29.4415 25.5809 29.4415 25.6516 29.3712C26.0205 29.1524 26.3187 28.9336 26.6091 28.707C26.6223 28.6939 26.6357 28.6782 26.6497 28.6616C26.7114 28.5891 26.786 28.5013 26.9074 28.5585C26.8368 29.1446 26.6876 29.7385 26.5385 30.3245C26.9074 30.1057 27.2763 29.8869 27.6452 29.59C27.7943 29.4806 27.9238 29.3517 28.0533 29.2227C28.1828 29.0938 28.3124 28.9649 28.4615 28.8555C28.4794 28.8639 28.4952 28.8725 28.5091 28.8813C28.6423 29.4814 28.7541 30.0926 28.6897 30.7622C28.6112 31.5749 28.3914 32.3094 28.0225 33.044C27.3553 34.4427 26.3978 35.4742 25.2126 36.4275C24.0352 37.3809 22.6303 38.1154 21.2253 38.6312C19.8282 39.2173 18.2035 39.4361 16.6494 39.3657L16.7985 39.4439C17.0968 39.5142 17.3872 39.5142 17.6855 39.5142C17.9314 39.5611 18.1773 39.5455 18.4233 39.5298C18.5462 39.522 18.6692 39.5142 18.7922 39.5142C19.1868 39.4766 19.604 39.4166 20.0196 39.3462C19.8803 39.3832 19.7404 39.4183 19.6001 39.4517C18.6425 39.6705 17.6771 39.7486 16.6489 39.6001C16.5743 39.565 16.4997 39.565 16.435 39.565C16.3702 39.565 16.3153 39.565 16.28 39.5298V39.3657C15.7172 39.3064 15.2102 39.1914 14.6649 39.0678L14.6634 39.0675C14.5628 39.0447 14.4608 39.0215 14.357 38.9984C13.1718 38.6312 12.0651 38.1154 11.0369 37.4512C10.9605 37.3996 10.8842 37.3395 10.8045 37.2769C10.6549 37.1592 10.4931 37.0323 10.2985 36.9354L10.2986 36.8652C10.2385 36.8368 10.1911 36.7958 10.1462 36.7569ZM20.0196 39.3462C20.3808 39.285 20.7409 39.216 21.0841 39.1469C22.2614 38.8578 23.4466 38.4124 24.5533 37.8263C25.4402 37.3106 26.3271 36.7245 27.0649 36.0603C27.9519 35.2554 28.6897 34.3724 29.2783 33.3409C29.8749 32.3094 30.2437 31.1373 30.3144 29.9573C30.3923 29.2981 30.246 28.6467 30.098 27.9876L30.0946 27.9725L30.079 27.9265C29.935 27.5037 29.7887 27.0741 29.5766 26.6519C29.5766 26.687 29.5589 26.7241 29.5413 26.7613C29.5236 26.7984 29.506 26.8355 29.506 26.8707C29.3568 27.3864 29.1371 27.9021 28.7682 28.3397C28.727 28.3807 28.6859 28.4157 28.6478 28.4481C28.5481 28.533 28.4699 28.5995 28.4699 28.707C28.4831 28.765 28.4962 28.8231 28.5091 28.8813C28.6106 28.9456 28.6106 29.0218 28.6106 29.1524C29.0502 30.77 28.7597 32.2391 27.9435 33.6378C26.9859 35.3257 25.5809 36.6541 23.9562 37.6856C22.7502 38.4245 21.4143 38.9761 20.0196 39.3462ZM23.5548 22.5054C22.9741 22.1428 22.3179 21.928 21.5937 21.7132C20.7852 21.4944 19.8983 21.2678 19.0114 21.1975C17.9047 21.1193 16.798 21.1193 15.7619 21.4163C15.7274 21.4261 15.6926 21.436 15.6576 21.446C15.1665 21.5855 14.6307 21.7377 14.2863 22.0805C13.9959 22.3774 13.9959 22.8228 14.2157 23.2604C14.2903 23.3698 14.3275 23.4441 14.3648 23.5183C14.4021 23.5925 14.4394 23.6668 14.5139 23.7762C14.3545 23.7545 14.2024 23.7395 14.0533 23.7248C13.7179 23.6918 13.3969 23.6601 13.0384 23.5574C11.8532 23.2682 10.8956 22.6744 10.1578 21.721C10.1578 21.6429 10.0793 21.5725 10.0087 21.5725C9.7889 21.721 9.49064 21.9398 9.27087 22.1586C9.12174 22.3071 9.04325 22.3071 8.97261 22.0883C8.37609 19.3689 8.89412 16.798 11.186 15.1804C11.3134 15.1203 11.4122 15.0446 11.5068 14.972C11.6336 14.8747 11.753 14.7831 11.9238 14.7428C11.9162 14.7899 11.906 14.8447 11.8947 14.9052C11.801 15.4066 11.6343 16.2982 12.2927 16.4307C13.3209 16.8761 15.2439 15.1804 15.7619 14.5944C15.8055 14.551 15.8708 14.5976 15.975 14.672C16.2085 14.8388 16.6377 15.1453 17.4573 14.8913C16.4997 14.6647 15.9817 14.2974 15.9817 13.3441L15.8326 13.1878C15.8326 11.6474 17.8113 10.8745 19.4624 10.2296C20.0896 9.98464 20.6695 9.75814 21.0756 9.51507C22.4728 8.63205 23.6579 7.09264 23.6579 6.94417C23.7721 7.18743 23.8617 7.35895 23.9369 7.50275C24.1562 7.92248 24.2521 8.10596 24.4742 9.1478C26.2481 7.97565 28.54 5.91268 28.9795 5.17813C26.3266 4.21697 23.5952 3.92784 20.7852 4.14664C19.0114 4.29512 17.3082 4.73272 15.6128 5.39693C10.0793 7.60838 5.94292 12.2344 4.38099 17.9701C4.09058 19.2204 3.86296 20.5489 3.79232 21.8695C3.79232 22.2675 3.76695 22.399 3.74662 22.5043C3.73302 22.5748 3.72168 22.6335 3.72168 22.7525C3.79834 23.3249 4.78844 25.0229 5.30989 25.9172L5.34641 25.9798C6.53159 27.8162 8.00719 29.4337 9.85169 30.6137C12.1436 32.0046 14.5767 32.5985 17.2375 32.3016C18.7131 32.1609 20.1181 31.7155 21.4445 30.981C22.1916 30.544 22.8858 30.0297 23.481 29.4214C23.9277 28.9383 24.2954 28.3855 24.5449 27.7458C25.212 26.1283 24.9844 24.6592 23.9562 23.2604C23.92 23.1843 23.8631 23.1287 23.8058 23.0726C23.7512 23.0193 23.6962 22.9655 23.6579 22.8931C23.8023 22.8251 23.8731 22.8887 23.9486 22.9567L23.9562 22.9635C24.0139 23.014 24.0709 23.0659 24.1271 23.1192C24.0358 23.003 23.9384 22.8883 23.8348 22.7748C23.8477 22.7852 23.863 22.8005 23.8855 22.8228C23.9852 22.9221 24.0928 23.0126 24.2001 23.1029C24.4137 23.2827 24.6261 23.4614 24.7724 23.7058C25.0213 24.0674 25.2305 24.4348 25.3972 24.8102C25.4089 24.8327 25.4204 24.8553 25.4318 24.878C25.7301 25.6125 25.9498 26.3471 25.9498 27.1598C25.9498 27.9407 25.8121 28.6495 25.474 29.3554C25.857 29.162 26.1658 28.9185 26.4703 28.6784C26.617 28.5627 26.7627 28.4478 26.9152 28.3397C26.9152 28.2198 26.9227 28.0924 26.9304 27.9624C26.9462 27.6942 26.9628 27.4149 26.9152 27.1676C26.8367 26.5034 26.6954 25.8391 26.3972 25.2531C25.8085 24.0809 24.8509 23.1979 23.6657 22.5337C23.6352 22.5337 23.6166 22.5231 23.601 22.5142C23.5854 22.5053 23.573 22.4982 23.5548 22.5054ZM23.5548 22.5054C23.5444 22.5094 23.5323 22.5181 23.5166 22.5337L23.7364 22.7525C23.7899 22.7525 23.8069 22.7525 23.8348 22.7748C23.8256 22.7648 23.8164 22.7547 23.8071 22.7447L23.5873 22.5259C23.5765 22.519 23.5656 22.5122 23.5548 22.5054ZM40.5803 27.5349L40.6507 27.6052C40.6507 27.6756 40.6507 27.7537 40.5801 27.9022L40.5803 27.5349ZM10.4257 18.6201L10.4401 18.6344L10.4401 18.6422C10.4103 18.6421 10.3948 18.6415 10.3867 18.6334C10.3997 18.6312 10.4124 18.6263 10.4257 18.6201ZM10.3779 18.5719C10.4348 18.3752 10.5122 18.19 10.611 18.0195C10.7548 17.8207 10.9296 17.6628 11.1071 17.5326C11.1487 17.4911 11.1931 17.4741 11.2531 17.4511C11.2948 17.4351 11.3441 17.4162 11.4053 17.3841C11.8449 17.3138 12.0725 17.4544 11.994 17.8999V17.9334C11.9793 17.5305 11.7622 17.3995 11.4061 17.6107C10.984 17.8208 10.6922 18.1679 10.4751 18.5896C10.4585 18.6019 10.442 18.6123 10.4257 18.6201L10.3779 18.5719ZM10.3489 18.6077C10.3538 18.6166 10.3604 18.6256 10.3693 18.6344C10.3749 18.6344 10.381 18.6343 10.3867 18.6334C10.3784 18.6245 10.3779 18.606 10.3779 18.5719L10.3695 18.5641C10.3618 18.5793 10.355 18.5938 10.3489 18.6077ZM11.9948 18.1976C12.0362 18.2398 12.0019 18.2848 11.968 18.3292C11.9456 18.3586 11.9234 18.3877 11.9234 18.4156C11.8527 18.1187 11.7036 18.0483 11.4053 18.0483C11.1071 18.1187 10.8167 18.2671 10.5891 18.4859C10.5524 18.5224 10.5137 18.5609 10.4751 18.5896C10.4661 18.607 10.4573 18.6245 10.4486 18.6422L10.4401 18.6422C10.44 18.7049 10.4374 18.7077 10.3695 18.7829L10.2988 18.9314C10.2988 18.7989 10.2988 18.7225 10.3489 18.6077C10.3153 18.5457 10.3693 18.4859 10.3693 18.4859C10.4297 18.3088 10.5132 18.1547 10.611 18.0195C10.7713 17.7429 10.988 17.5053 11.2649 17.3216C11.3098 17.3004 11.3476 17.2785 11.3825 17.2583C11.4637 17.2113 11.5295 17.1731 11.6338 17.1731C11.8535 17.1028 12.0733 17.2434 12.0733 17.4701C12.1316 17.6506 12.0937 17.8844 11.9948 18.0836V17.978C11.9948 17.9628 11.9945 17.9479 11.994 17.9334V18.0852C11.9733 18.1268 11.9499 18.1669 11.9242 18.2046H11.9948V18.1976ZM11.9948 18.1976L11.994 18.1968V18.0852L11.9948 18.0836V18.1976ZM33.2656 37.6076C33.2656 37.4608 33.3327 37.3773 33.3982 37.2958C33.4303 37.2558 33.4621 37.2163 33.4854 37.17C34.3723 35.9197 34.8904 34.5209 35.1808 33.0518C35.3299 32.0985 35.4005 31.2155 35.3299 30.2543C35.2593 28.8555 34.8904 27.4568 34.2938 26.1362C33.8543 25.1828 33.3363 24.2217 32.7397 23.4168C32.0726 22.5338 31.2642 21.7289 30.4479 20.9865C29.1214 19.8847 27.5673 19.072 25.9426 18.5563C25.0557 18.2593 24.1687 18.1187 23.2112 17.9702C23.1438 17.9702 23.0764 17.9559 23.0026 17.9401C22.9129 17.921 22.8136 17.8999 22.6931 17.8999C22.1045 17.4623 21.5079 17.0872 20.8486 16.7199V16.6496H21.5864C24.985 16.5793 28.0853 17.3841 30.7461 19.4471C33.556 21.5804 35.322 24.3701 35.9892 27.8319C36.5779 30.77 36.1383 33.5676 34.4351 36.1385C34.1369 36.6542 33.768 37.17 33.3284 37.5372L33.2656 37.6076ZM23.0793 19.3719C23.0564 19.3689 23.0308 19.3689 23.0062 19.3689C22.0486 19.1501 21.0125 19.0017 20.055 18.9313C18.0613 18.7829 16.1383 18.861 14.2938 19.4471C12.9674 19.8925 11.7116 20.5489 10.5264 21.3616C10.5264 21.3967 10.5264 21.3967 10.5352 21.388C10.544 21.3792 10.5617 21.3616 10.597 21.3616C10.9659 21.0646 11.3427 20.8458 11.7822 20.6974C13.1793 20.1035 14.5843 19.8143 15.9892 19.6659C16.2146 19.6659 16.431 19.6579 16.6444 19.6499C17.063 19.6344 17.4704 19.6193 17.9122 19.6659C18.1302 19.6891 18.3567 19.7047 18.5864 19.7205C19.0516 19.7524 19.5299 19.7853 19.9765 19.8847C21.3029 20.1035 22.6373 20.4707 23.9637 20.9865C23.9942 20.9865 24.0129 20.9971 24.0284 21.006C24.0529 21.0199 24.0697 21.0295 24.1129 20.9865C24.157 20.9377 24.146 20.9193 24.1315 20.8953C24.1228 20.8809 24.1129 20.8644 24.1129 20.838C23.8153 20.3235 23.4474 19.8089 23.0793 19.3719L23.1553 19.4393C23.1553 19.3938 23.1216 19.3776 23.0793 19.3719Z" fill="#9AA6BA"/>
<path d="M68.4497 35.55V36C66.3867 36 64.2451 35.3973 62.1036 34.1838C60.2602 33.2034 58.856 31.9899 57.899 30.6317C56.2046 30.1817 54.8005 29.0405 53.6944 27.377C52.5883 25.6412 52 23.8249 52 21.9364C52 19.4371 52.8158 17.3959 54.3612 15.66C55.9144 13.9242 57.9068 13.0884 60.268 13.0884C62.6292 13.0884 64.5511 13.9242 66.1749 15.66C67.7987 17.3959 68.536 19.4371 68.536 21.9364C68.536 23.9776 67.9477 25.7938 66.7632 27.5297C65.5787 29.2655 64.0333 30.3263 62.2605 30.7041C62.6292 31.9175 63.3666 32.9703 64.5511 33.9588C65.8062 35.0196 67.1319 35.4696 68.4654 35.4696V35.55H68.4497ZM60.2602 30.1817C61.9546 29.9567 63.2881 29.1209 64.2451 27.6824C65.2022 26.2439 65.6493 24.3553 65.6493 21.9364C65.6493 19.5175 65.21 17.6289 64.2451 16.1904C63.2881 14.6796 61.9546 13.9242 60.2602 13.9242C58.5658 13.9242 57.2322 14.6796 56.2752 16.1181C55.3182 17.5566 54.8711 19.5175 54.8711 21.9444C54.8711 24.3714 55.3103 26.3323 56.1968 27.8431C57.1538 29.4263 58.4873 30.1817 60.2602 30.1817ZM71.7679 24.5884V16.2708C71.7679 15.3627 71.6189 14.76 71.2502 14.4546C70.8815 14.1492 70.2932 14.0045 69.4068 14.0045V13.5545H76.7178V14.0045C75.8313 14.0045 75.243 14.1572 74.8743 14.4546C74.5056 14.7519 74.3566 15.3627 74.3566 16.2708V24.6607C74.3566 26.1716 74.7959 27.385 75.6823 28.4378C76.5687 29.4986 77.6748 29.9486 79.0789 29.9486C80.4831 29.9486 81.6597 29.4182 82.4756 28.4378C83.362 27.4574 83.7307 26.1716 83.7307 24.6607V16.2708C83.7307 15.3627 83.5816 14.76 83.2129 14.4546C82.8443 14.1492 82.2559 14.0045 81.3695 14.0045V13.5545H87.1979V14.0045C86.3115 14.0045 85.7232 14.1572 85.3545 14.4546C84.9858 14.7519 84.8367 15.3627 84.8367 16.2708V24.6607C84.8367 26.5493 84.319 28.0601 83.2835 29.2013C82.099 30.4871 80.4046 31.0898 78.1925 31.0898C76.1294 31.0898 74.5762 30.4871 73.3917 29.2013C72.2857 27.9878 71.7679 26.4769 71.7679 24.5884ZM90.4455 27.9154V16.1904C90.4455 15.2823 90.2965 14.6796 89.9278 14.3742C89.5591 14.0688 88.9707 13.9242 88.0843 13.9242V13.4741H95.3953V13.9242C94.5089 13.9242 93.9206 14.0769 93.5519 14.3742C93.1832 14.6796 93.0342 15.2823 93.0342 16.1904V27.9074C93.0342 28.8155 93.1832 29.4182 93.5519 29.7236C93.9206 30.029 94.5089 30.1737 95.3953 30.1737V30.6237H88.0843V30.1737C88.9707 30.1737 89.5591 30.021 89.9278 29.7236C90.2965 29.4263 90.4455 28.8155 90.4455 27.9154ZM111.116 13.0884L111.555 18.9147H110.966C110.817 17.5566 110.229 16.4154 109.272 15.435C108.315 14.4546 107.209 13.9965 105.954 13.9965C104.11 13.9965 102.636 14.8323 101.451 16.4154C100.933 17.1709 100.494 18.0066 100.196 19.0594C99.898 20.1202 99.7568 21.173 99.7568 22.3864C99.7568 24.7331 100.424 26.6216 101.679 28.0601C102.863 29.4182 104.487 30.1013 106.33 30.1013C107.366 30.1013 108.323 29.7236 109.28 29.0405C110.166 28.4378 110.904 27.5297 111.571 26.4689L112.01 26.6939C111.343 27.9797 110.457 28.9602 109.351 29.7959C108.166 30.7041 106.84 31.1541 105.436 31.1541C102.926 31.1541 100.863 30.3183 99.2391 28.5825C97.6153 26.9189 96.7289 24.8054 96.7289 22.3784C96.7289 19.8791 97.6153 17.6932 99.3097 15.877C101.083 14.0608 103.075 13.1527 105.507 13.1527C106.464 13.1527 107.28 13.3054 107.946 13.5304C108.535 13.8358 109.201 14.0608 109.79 14.3662C109.939 14.3662 110.159 14.2135 110.308 14.0608C110.457 13.8358 110.606 13.5304 110.676 13.225H111.116V13.0884ZM115.61 27.9154V16.1904C115.61 15.2823 115.461 14.6796 115.093 14.3742C114.724 14.0688 114.136 13.9242 113.249 13.9242V13.4741H120.56V13.9242C119.674 13.9242 119.085 14.0769 118.717 14.3742C118.348 14.6796 118.199 15.2823 118.199 16.1904V21.0283L123.51 16.1101C123.808 15.8047 124.027 15.5797 124.247 15.3546C124.545 15.0493 124.686 14.7519 124.686 14.5189C124.686 14.2939 124.537 14.1412 124.318 14.0688C124.02 13.9965 123.651 13.9161 123.133 13.9161V13.4661H129.33V13.9161C128.593 13.9161 127.926 14.0688 127.338 14.3662C126.749 14.6716 126.083 15.202 125.275 15.9574L120.333 20.7229L127.126 27.6824C128.232 28.8155 129.048 29.4986 129.566 29.7959C130.083 30.0933 130.75 30.246 131.629 30.246V30.696H123.808V30.246C124.247 30.246 124.545 30.1737 124.694 30.021C124.843 29.8683 124.992 29.6433 124.992 29.3379C124.992 29.0325 124.694 28.5825 124.035 27.8994L118.277 22.0007V27.9717C118.277 28.8798 118.427 29.4825 118.795 29.7879C119.164 30.0933 119.752 30.2379 120.639 30.2379V30.688H113.328V30.2379C114.214 30.2379 114.802 30.0853 115.171 29.7879C115.54 29.4825 115.689 28.8798 115.689 27.9717L115.61 27.9154ZM142.705 19.0674H142.266C142.117 17.4762 141.677 16.2708 140.862 15.3627C140.054 14.4546 139.018 14.0769 137.685 14.0769C136.798 14.0769 136.061 14.3822 135.543 14.9126C134.955 15.5154 134.735 16.1261 134.735 16.8012C134.735 17.7816 135.543 18.7701 137.096 19.7505C138.571 20.6586 140.046 21.4864 141.528 22.3222C143.152 23.4553 143.89 24.7411 143.89 26.0992C143.89 27.5377 143.372 28.6709 142.415 29.579C141.458 30.4871 140.054 30.9371 138.351 30.9371C137.834 30.9371 137.394 30.8648 136.947 30.7844C136.508 30.7121 136.139 30.5594 135.841 30.479C135.543 30.3263 135.253 30.254 134.955 30.1013C134.657 30.029 134.437 29.9486 134.217 29.9486C133.998 29.9486 133.849 30.021 133.7 30.1737C133.551 30.3263 133.48 30.5514 133.402 30.8567H132.962V25.0304H133.402C133.402 26.5412 133.919 27.6744 135.025 28.5825C135.982 29.4182 137.167 29.8683 138.571 29.8683C139.457 29.8683 140.195 29.6433 140.783 29.1129C141.45 28.5825 141.74 27.8994 141.74 27.0716C141.74 25.9385 141.003 24.8777 139.45 23.8973C137.975 23.0615 136.571 22.2338 135.167 21.398C133.613 20.2649 132.876 18.979 132.876 17.5405C132.876 16.2547 133.315 15.1216 134.28 14.2858C135.237 13.3777 136.422 13 137.826 13C138.265 13 138.642 13.0723 139.01 13.1527C139.081 13.1527 139.379 13.225 139.967 13.4581C140.187 13.5304 140.407 13.6108 140.775 13.7635C141.144 13.9161 141.364 13.9885 141.591 13.9885C141.811 13.9885 142.03 13.9161 142.179 13.6831C142.399 13.4581 142.478 13.2331 142.478 13.0804H142.917V19.0514H142.705V19.0674ZM144.329 13.4661H150.526V13.9161C149.938 13.9161 149.569 13.9885 149.271 14.2215C148.973 14.3742 148.902 14.5992 148.902 14.9046C148.902 15.1296 148.902 15.3546 148.973 15.5073C149.043 15.66 149.122 16.0377 149.341 16.5681L152.809 26.4769L155.617 18.4647L154.95 16.5762C154.652 15.5957 154.283 14.9126 154.064 14.6073C153.695 14.1572 153.107 13.9242 152.369 13.9242V13.4741H158.865V13.9242C158.276 13.9242 157.907 13.9965 157.609 14.2296C157.311 14.3822 157.17 14.6073 157.17 14.9126C157.17 15.3627 157.319 15.8931 157.539 16.6485L160.857 26.5573L164.254 16.5762C164.403 16.0458 164.552 15.5957 164.552 15.218C164.552 14.3822 163.963 14.0045 162.779 14.0045V13.5545H167.721V14.0045C166.913 14.0045 166.395 14.3822 166.026 15.0653C165.877 15.3707 165.658 15.9011 165.438 16.6565L160.637 31.0978H160.049L156.213 20.2086L152.448 31.0978H151.859L146.839 16.7289C146.47 15.6681 146.172 14.993 145.953 14.6876C145.584 14.2376 145.145 14.0045 144.478 14.0045V13.5545L144.329 13.4661ZM172.961 13.0884H173.549L179.676 27.9074C180.044 28.8155 180.413 29.3459 180.711 29.6433C181.08 30.021 181.668 30.1737 182.484 30.1737V30.6237H175.62V30.1737C176.805 30.1737 177.464 29.7959 177.464 29.0405C177.464 28.7352 177.393 28.3574 177.166 27.9074L175.91 24.8857H169.415L168.09 27.9074C167.87 28.3574 167.791 28.7432 167.791 29.0405C167.791 29.4182 167.941 29.6433 168.231 29.8763C168.529 30.1013 169.047 30.1817 169.705 30.1817V30.6317H164.395V30.1817C164.983 30.1817 165.43 29.9567 165.799 29.579C166.097 29.2736 166.466 28.6709 166.756 27.9154L172.961 13.0884ZM172.592 17.0262L169.713 23.9053H175.393L172.592 17.0262ZM185.512 27.9154V16.1904C185.512 15.2823 185.363 14.6796 184.994 14.3742C184.626 14.0688 184.037 13.9242 183.151 13.9242V13.4741H190.313C191.937 13.4741 193.341 13.9242 194.376 14.76C195.482 15.5957 196 16.8012 196 18.312C196 19.8229 195.482 20.956 194.447 21.7918C193.49 22.5472 192.384 22.9249 190.98 22.9249C190.391 22.9249 189.795 22.9249 189.356 22.8526C188.838 22.7802 188.399 22.6999 188.03 22.6275V27.8431C188.03 28.7512 188.179 29.3539 188.548 29.6593C188.916 29.9647 189.505 30.1094 190.391 30.1094V30.5594H183.08V30.1094C183.967 30.1094 184.555 29.9567 184.924 29.6593C185.292 29.3539 185.441 28.7512 185.441 27.8431L185.512 27.9154ZM188.093 14.6796V21.7114C188.532 21.8641 188.909 21.9364 189.199 22.0168C189.489 22.0971 189.787 22.0891 190.015 22.0891C191.05 22.0891 191.858 21.7837 192.454 21.1087C193.043 20.4256 193.262 19.5978 193.262 18.537C193.262 17.4039 192.964 16.4235 192.305 15.5877C191.639 14.8323 190.831 14.3742 189.866 14.3742C189.497 14.3742 189.199 14.3742 188.979 14.4465C188.76 14.4546 188.462 14.5269 188.093 14.6796Z" fill="#9AA6BA"/>
</g>
<defs>
<clipPath id="clip0_1681_6451">
<rect width="194" height="52" fill="white"/>
</clipPath>
</defs>
</svg>
