<svg width="194" height="52" viewBox="0 0 194 52" fill="none" xmlns="http://www.w3.org/2000/svg">
<path d="M58.3955 7.89183H66.4101C68.4466 7.89183 69.9356 8.44085 70.8991 9.38519C71.8407 10.1978 72.2568 11.2958 72.2568 12.3719C72.2568 12.7892 72.2568 13.3162 72.1254 13.7335C71.8626 14.4143 71.4465 15.0951 70.8991 15.6441C70.6363 15.9077 70.3517 16.0614 70.0889 16.1932C71.0305 16.4567 71.8626 17.0057 72.5414 17.6865C73.0889 18.3673 73.3517 19.1799 73.3517 20.4097C73.3517 21.0905 73.2203 21.9031 72.9356 22.4521C72.6728 23.0011 72.1254 23.5502 71.5779 23.9455C70.8991 24.3627 70.2203 24.6263 69.5414 24.8898C68.7312 25.1533 67.7677 25.1533 66.8261 25.1533H58.5269V7.8479H58.3955V7.89183ZM65.7312 14.9633C66.4101 14.9633 67.0889 14.8316 67.7677 14.5461C68.3152 14.2825 68.5779 13.7335 68.5779 13.1845C68.5779 12.6355 68.3152 12.0864 67.8991 11.8229C67.3517 11.4056 66.6728 11.2739 65.994 11.4056H62.1838V15.0731H65.7093V14.9633H65.7312ZM66.6728 21.925C67.3517 21.925 68.0305 21.7933 68.7093 21.5078C69.2568 21.2442 69.5195 20.6952 69.3882 20.0144C69.3882 19.4654 69.1254 18.9164 68.7093 18.6528C68.2933 18.3893 67.4831 18.1038 66.5415 18.1038H62.0524V21.925H66.6728Z" fill="#9AA6BA"/>
<path d="M78.0811 7.89172H81.8913V25.3289H78.0811V7.89172Z" fill="#9AA6BA"/>
<path d="M87.7383 7.89172H91.2638L99.4098 18.6527V7.89172H103.198V25.3289H99.9572L91.3952 14.2824V25.3289H87.7383V7.89172Z" fill="#9AA6BA"/>
<path d="M114.76 7.76001H118.286L125.753 25.329H121.811L120.191 21.376H112.855L111.235 25.329H107.293L114.76 7.76001ZM118.833 18.1037L116.534 12.3938L114.235 18.1037H118.833Z" fill="#9AA6BA"/>
<path d="M129.825 7.89172H133.351L141.497 18.6527V7.89172H145.307V25.3289H142.044L133.614 14.2824V25.3289H129.825V7.89172Z" fill="#9AA6BA"/>
<path d="M159.147 25.5926C157.92 25.5926 156.694 25.329 155.621 24.9118C153.453 23.9674 151.811 22.3204 150.869 20.1462C150.453 19.0481 150.19 17.8403 150.19 16.6104C150.19 14.3045 151.132 11.9766 152.774 10.2197C153.585 9.40716 154.548 8.72636 155.621 8.3091C156.847 7.76006 158.074 7.6283 159.278 7.6283C159.957 7.6283 160.767 7.6283 161.446 7.76006C162.125 7.89183 162.672 8.0236 163.22 8.3091C163.767 8.57263 164.314 8.85813 164.709 9.12166C165.125 9.3852 165.65 9.80246 166.066 10.2197L163.767 13.0747C163.088 12.5257 162.409 11.9766 161.731 11.5813C161.052 11.186 160.241 11.0323 159.431 11.0323C158.752 11.0323 158.074 11.1641 157.395 11.4495C156.716 11.7131 156.169 12.1303 155.774 12.6794C155.38 13.2284 154.964 13.7774 154.679 14.4582C154.417 15.139 154.263 15.8198 154.263 16.5006C154.263 17.1814 154.395 17.994 154.679 18.6748C154.964 19.3556 155.227 19.9046 155.774 20.4536C156.716 21.5517 158.074 22.0788 159.431 22.0788C160.241 22.0788 161.205 21.947 162.015 21.5298C162.694 21.1125 163.504 20.5854 164.052 20.0364L166.482 22.4741C166.066 22.8913 165.541 23.4184 165.125 23.8357C164.577 24.2529 164.03 24.5165 163.504 24.78C162.957 25.0435 162.278 25.329 161.599 25.4608C160.636 25.5926 159.825 25.5926 159.147 25.5926Z" fill="#9AA6BA"/>
<path d="M170.84 7.89172H183.869V11.2957H174.497V14.8315H182.774V18.2355H174.497V21.9249H184V25.3289H170.84V7.89172Z" fill="#9AA6BA"/>
<path d="M63.2782 42.4807C62.3366 42.4807 61.3731 42.3489 60.5629 41.9316C59.7527 41.6681 58.9425 41.1191 58.1104 40.4383L59.468 38.9449C60.0154 39.4939 60.5629 39.7575 61.2417 40.1747C61.9206 40.4383 62.5994 40.592 63.2782 40.592C63.8257 40.592 64.3731 40.4602 64.8986 40.1747C65.3147 39.9112 65.4461 39.4939 65.4461 39.0767C65.4461 38.9449 65.4461 38.6594 65.3147 38.5276C65.1833 38.3959 65.0519 38.1104 64.8986 37.9786C64.6359 37.8468 64.3512 37.7151 64.0884 37.5613C63.6724 37.4296 63.1468 37.2978 62.7308 37.1441C62.1833 37.0123 61.5045 36.8805 60.9571 36.595C60.541 36.4633 60.0155 36.1778 59.7308 35.9143C59.468 35.6507 59.1833 35.3652 58.9206 34.9699C58.6578 34.4209 58.6578 33.8719 58.6578 33.4766C58.6578 32.9275 58.7892 32.5322 58.9206 31.9832C59.0519 31.5659 59.468 31.1706 59.7308 30.8851C60.1468 30.6216 60.541 30.3361 61.0884 30.2043C61.6359 30.0726 62.1833 29.9408 62.7089 29.9408C63.5191 29.9408 64.3293 30.0726 65.1614 30.3581C65.8402 30.6216 66.5191 31.0389 67.1979 31.4561L66.103 33.0812C65.5556 32.664 65.0081 32.4005 64.4826 32.1369C63.9351 31.8734 63.3877 31.8734 62.8622 31.8734C62.3147 31.8734 61.7673 32.0052 61.3731 32.2906C61.1103 32.5542 60.8257 32.9714 60.8257 33.3887C60.8257 33.6522 60.8257 33.806 60.9571 34.0695C61.0884 34.2013 61.2198 34.4868 61.3731 34.6185C61.6359 34.7503 61.9205 34.8821 62.3147 35.0358C62.7308 35.1676 63.1249 35.2993 63.8038 35.4531C64.3512 35.5848 64.8986 35.7166 65.5775 36.0021C65.9935 36.1339 66.3877 36.4194 66.8037 36.6829C67.0665 36.9464 67.3512 37.3637 67.4826 37.6272C67.614 38.0445 67.7453 38.4398 67.7453 38.9888C67.7453 39.5379 67.614 40.0869 67.4826 40.4822C67.2198 40.8994 66.9351 41.2947 66.541 41.712C66.1249 41.9755 65.7308 42.261 65.1833 42.3928C64.5045 42.3489 63.8257 42.4807 63.2782 42.4807Z" fill="#9AA6BA"/>
<path d="M70.0674 30.0946H72.3885L76.0455 35.8045L79.8557 30.0946H82.1549V42.349H79.987V33.4986L76.1768 39.2085H76.0455L72.2572 33.4986V42.349H70.0674V30.0946Z" fill="#9AA6BA"/>
<path d="M89.4902 29.9629H91.5267L96.826 42.2172H94.5267L93.3004 39.2305H87.607L86.3808 42.2172H84.2129L89.4902 29.9629ZM92.6216 37.4517L90.4537 32.5543L88.4173 37.4517H92.6216Z" fill="#9AA6BA"/>
<path d="M98.9937 30.0946H104.424C105.103 30.0946 105.782 30.2264 106.461 30.3581C107.008 30.4899 107.556 30.9072 107.95 31.3025C108.213 31.566 108.497 31.9833 108.76 32.5323C108.891 32.9496 109.023 33.4766 109.023 34.0257C109.023 34.4429 108.891 34.97 108.76 35.3873C108.629 35.8045 108.344 36.0681 108.213 36.4853C107.95 36.7488 107.665 37.0343 107.271 37.2979C106.855 37.5614 106.461 37.7151 106.045 37.8469L109.308 42.4807H106.724L103.745 38.2642H101.03V42.4807H98.8623L98.9937 30.0946ZM104.293 36.09C104.972 36.09 105.651 35.9582 106.067 35.541C106.483 35.1237 106.745 34.5967 106.745 34.0476C106.745 33.4986 106.483 32.9496 106.067 32.5543C105.519 32.137 104.84 32.0052 104.162 32.0052H101.03V36.09H104.293Z" fill="#9AA6BA"/>
<path d="M114.607 32.0052H110.665V30.0946H120.585V32.0052H116.643V42.349H114.475L114.607 32.0052Z" fill="#9AA6BA"/>
<path d="M133.767 42.4807C132.957 42.4807 132.147 42.3489 131.314 41.9317C129.825 41.2509 128.599 40.1528 128.052 38.6594C127.789 37.8469 127.504 37.0343 127.636 36.1998C127.636 35.3872 127.767 34.5747 128.052 33.7401C128.599 32.2468 129.825 31.0169 131.314 30.3361C132.125 30.0726 132.935 29.7871 133.898 29.7871C134.446 29.7871 134.993 29.7871 135.387 29.9189C135.803 30.0506 136.198 30.1824 136.614 30.3361C137.03 30.4679 137.293 30.7534 137.709 30.8852C137.971 31.1487 138.387 31.4342 138.65 31.6977L137.293 33.3229C136.876 32.9056 136.351 32.5103 135.803 32.2248C135.256 31.9613 134.577 31.8075 133.898 31.8075C133.351 31.8075 132.804 31.9393 132.278 32.0711C131.731 32.3346 131.336 32.6201 130.92 33.0154C130.504 33.4327 130.241 33.828 130.11 34.377C129.979 34.926 129.847 35.4751 129.847 36.0021C129.847 36.5512 129.979 37.1002 130.11 37.6273C130.241 38.1543 130.526 38.5716 130.92 38.9889C131.336 39.4061 131.731 39.6697 132.278 39.9332C132.825 40.1967 133.373 40.3505 133.898 40.1967C134.577 40.1967 135.256 40.065 135.803 39.7795C136.351 39.5159 136.898 39.0987 137.424 38.5496L138.782 39.9112C138.519 40.1748 138.103 40.592 137.84 40.8556C137.424 41.1191 137.161 41.4046 136.745 41.5364C136.329 41.6681 135.935 41.9536 135.387 41.9536C134.84 42.4807 134.293 42.4807 133.767 42.4807Z" fill="#9AA6BA"/>
<path d="M140.949 30.0946H142.986V35.1237H148.832V30.0946H151V42.349H148.832V37.1661H142.986V42.349H140.949V30.0946Z" fill="#9AA6BA"/>
<path d="M158.468 29.9629H160.504L165.804 42.2172H163.504L162.278 39.2305H156.585L155.358 42.2172H153.19L158.468 29.9629ZM161.468 37.4517L159.431 32.5543L157.395 37.4517H161.468Z" fill="#9AA6BA"/>
<path d="M167.972 30.0946H170.161V42.349H167.972V30.0946Z" fill="#9AA6BA"/>
<path d="M173.401 30.0946H175.306L181.832 38.5277V30.0946H184V42.349H182.226L175.591 33.6304V42.349H173.401V30.0946Z" fill="#9AA6BA"/>
<path d="M34.5047 41.5364V46.851L29.8843 49.5742L25.3953 46.851V41.5364L29.8843 44.2596L34.5047 41.5364ZM9.78223 23.1548L14.2713 25.878V34.9919L22.0012 39.6258V44.9404L9.78223 37.7151V23.1548ZM49.9864 23.1548V37.7371L37.6361 44.9623V39.6477L45.366 35.0139V25.9L49.9864 23.1548ZM37.6142 15.9296L42.2346 18.6528V23.9674L34.5047 28.6012V37.8469L30.0157 40.5701L25.5486 37.8469V28.5793L17.534 23.9455V18.6308L22.1544 15.9076L29.8843 20.5415L37.6142 15.9296ZM17.534 27.7667L22.0231 30.4899V35.8045L17.534 33.0813V27.7667ZM42.2346 27.7667V33.0813L37.7456 35.8045V30.4899L42.2346 27.7667ZM14.2713 11.2958L18.8917 14.019L14.2713 16.7422V22.0568L9.78223 19.3336V14.019L14.2713 11.2958ZM45.4974 11.2958L50.1178 14.019V19.3336L45.4974 22.0568V16.7422L41.0084 14.019L45.4974 11.2958ZM29.8843 11.2958L34.5047 14.019L29.8843 16.7422L25.3953 14.019L29.8843 11.2958ZM29.8843 2.18188L42.2346 9.40712L37.7456 12.1303L30.0157 7.4965L22.1325 12.1303L17.6435 9.40712L29.8843 2.18188Z" fill="#9AA6BA"/>
</svg>
