<svg width="194" height="52" viewBox="0 0 194 52" fill="none" xmlns="http://www.w3.org/2000/svg">
<g clip-path="url(#clip0_1681_6472)">
<path d="M38.2161 33.8491C37.7672 33.8491 37.4499 33.753 37.2642 33.5611C37.0939 33.369 37.0088 33.0649 37.0088 32.6488V18.7501C37.0088 18.334 37.1016 18.03 37.2874 17.838C37.4731 17.6299 37.7826 17.5259 38.2161 17.5259H43.9041C46.0709 17.5259 47.6651 17.998 48.6867 18.9422C49.7082 19.8863 50.219 21.2946 50.219 23.167C50.219 25.0233 49.7082 26.4236 48.6867 27.3678C47.6806 28.2961 46.0864 28.7601 43.9041 28.7601H41.6985V32.6488C41.6985 33.0649 41.6057 33.369 41.4199 33.5611C41.2342 33.753 40.9168 33.8491 40.468 33.8491H38.2161ZM43.5327 25.2794C44.1673 25.2794 44.6548 25.1034 44.9953 24.7513C45.3512 24.3992 45.5293 23.8711 45.5293 23.167C45.5293 22.4468 45.3512 21.9107 44.9953 21.5587C44.6548 21.2066 44.1673 21.0306 43.5327 21.0306H41.6985V25.2794H43.5327Z" fill="#9AA6BA"/>
<path d="M55.7012 34.2092C54.2464 34.2092 53.0779 33.7291 52.1956 32.769C51.3288 31.7927 50.8955 30.4245 50.8955 28.6641C50.8955 27.3198 51.1896 26.1436 51.7776 25.1354C52.3813 24.1272 53.2249 23.3511 54.3083 22.807C55.4073 22.2469 56.6686 21.9668 58.0926 21.9668C59.2689 21.9668 60.306 22.1028 61.2036 22.3749C62.1168 22.6309 62.9525 23.007 63.7109 23.5031V33.105C63.7109 33.4091 63.6569 33.6091 63.5484 33.7051C63.4401 33.8012 63.2234 33.8492 62.8984 33.8492H60.5303C60.36 33.8492 60.2285 33.8252 60.1357 33.777C60.0427 33.7132 59.9655 33.617 59.9035 33.489L59.6016 32.769C59.1528 33.265 58.6111 33.6251 57.9765 33.8492C57.3575 34.0892 56.599 34.2092 55.7012 34.2092ZM57.4426 30.9445C58.0461 30.9445 58.5182 30.7925 58.8587 30.4885C59.1992 30.1845 59.3694 29.7523 59.3694 29.1921V25.4475C59.0755 25.3035 58.7039 25.2314 58.2551 25.2314C57.4348 25.2314 56.777 25.5275 56.2817 26.1196C55.8019 26.7117 55.562 27.5439 55.562 28.6161C55.562 30.1684 56.1888 30.9445 57.4426 30.9445Z" fill="#9AA6BA"/>
<path d="M66.9424 33.8492C66.4934 33.8492 66.1761 33.753 65.9905 33.5611C65.8047 33.369 65.7119 33.065 65.7119 32.6489V23.071C65.7119 22.783 65.7583 22.5909 65.8511 22.4949C65.9595 22.3829 66.1761 22.3269 66.5012 22.3269H68.8926C69.0782 22.3269 69.2176 22.3589 69.3104 22.4229C69.4187 22.4709 69.4806 22.5669 69.4961 22.711L69.6121 23.4311C70.0456 22.983 70.6106 22.6309 71.307 22.3749C72.019 22.1028 72.8083 21.9668 73.6751 21.9668C74.9288 21.9668 75.9426 22.3349 76.7164 23.071C77.4903 23.7912 77.8772 24.8634 77.8772 26.2877V32.6489C77.8772 33.065 77.7844 33.369 77.5987 33.5611C77.4284 33.753 77.1188 33.8492 76.67 33.8492H74.418C73.9692 33.8492 73.6442 33.753 73.4429 33.5611C73.2571 33.369 73.1643 33.065 73.1643 32.6489V26.5997C73.1643 26.1196 73.0637 25.7756 72.8626 25.5675C72.6613 25.3595 72.344 25.2554 71.9107 25.2554C71.4463 25.2554 71.0748 25.3835 70.7962 25.6395C70.5331 25.8956 70.4016 26.2476 70.4016 26.6958V32.6489C70.4016 33.065 70.3087 33.369 70.123 33.5611C69.9528 33.753 69.6432 33.8492 69.1944 33.8492H66.9424Z" fill="#9AA6BA"/>
<path d="M86.0839 34.2092C83.9171 34.2092 82.2455 33.689 81.0691 32.6489C79.8929 31.6087 79.3047 30.0964 79.3047 28.112C79.3047 26.8958 79.5756 25.8236 80.1172 24.8954C80.659 23.9672 81.4406 23.2471 82.4621 22.735C83.4992 22.2229 84.7219 21.9668 86.1304 21.9668C87.1983 21.9668 88.0961 22.0708 88.8235 22.2789C89.5664 22.4869 90.2242 22.807 90.7968 23.2391C90.9671 23.3511 91.0522 23.4951 91.0522 23.6711C91.0522 23.7992 90.9903 23.9672 90.8665 24.1752L89.9146 25.8795C89.8062 26.1037 89.6747 26.2157 89.52 26.2157C89.427 26.2157 89.28 26.1517 89.0788 26.0236C88.6609 25.7516 88.2663 25.5515 87.8948 25.4235C87.5388 25.2954 87.0899 25.2314 86.5483 25.2314C85.7743 25.2314 85.1476 25.4875 84.6677 25.9996C84.2034 26.5117 83.9712 27.2158 83.9712 28.112C83.9712 29.0242 84.211 29.7283 84.6909 30.2243C85.1708 30.7045 85.8286 30.9445 86.6643 30.9445C87.1595 30.9445 87.6085 30.8725 88.0109 30.7284C88.4134 30.5845 88.8235 30.3845 89.2414 30.1284C89.4581 30.0003 89.6128 29.9363 89.7057 29.9363C89.845 29.9363 89.9688 30.0483 90.0771 30.2725L91.1218 32.1208C91.1993 32.2808 91.238 32.4088 91.238 32.5048C91.238 32.6489 91.145 32.7849 90.9594 32.9129C90.3093 33.3451 89.5973 33.665 88.8235 33.8731C88.065 34.0972 87.1518 34.2092 86.0839 34.2092Z" fill="#9AA6BA"/>
<path d="M97.1242 34.2092C95.6693 34.2092 94.5007 33.7291 93.6186 32.769C92.7518 31.7927 92.3184 30.4245 92.3184 28.6641C92.3184 27.3198 92.6124 26.1436 93.2006 25.1354C93.8042 24.1272 94.6478 23.3511 95.7312 22.807C96.8301 22.2469 98.0916 21.9668 99.5156 21.9668C100.692 21.9668 101.729 22.1028 102.626 22.3749C103.54 22.6309 104.376 23.007 105.134 23.5031V33.105C105.134 33.4091 105.08 33.6091 104.971 33.7051C104.863 33.8012 104.646 33.8492 104.321 33.8492H101.953C101.783 33.8492 101.651 33.8252 101.559 33.777C101.466 33.7132 101.388 33.617 101.326 33.489L101.025 32.769C100.576 33.265 100.034 33.6251 99.3994 33.8492C98.7803 34.0892 98.0219 34.2092 97.1242 34.2092ZM98.8654 30.9445C99.4691 30.9445 99.9412 30.7925 100.282 30.4885C100.622 30.1845 100.792 29.7523 100.792 29.1921V25.4475C100.498 25.3035 100.127 25.2314 99.678 25.2314C98.8578 25.2314 98.2 25.5275 97.7046 26.1196C97.2249 26.7117 96.9849 27.5439 96.9849 28.6161C96.9849 30.1684 97.6118 30.9445 98.8654 30.9445Z" fill="#9AA6BA"/>
<path d="M119.717 32.9369C119.825 33.0649 119.88 33.209 119.88 33.369C119.88 33.5129 119.833 33.633 119.74 33.729C119.647 33.8091 119.524 33.8491 119.369 33.8491H115.77C115.554 33.8491 115.391 33.8331 115.283 33.8011C115.19 33.753 115.089 33.665 114.981 33.5371L111.823 29.0961V32.6488C111.823 33.0649 111.731 33.369 111.545 33.5611C111.359 33.753 111.042 33.8491 110.593 33.8491H108.341C107.892 33.8491 107.575 33.753 107.389 33.5611C107.219 33.369 107.134 33.0649 107.134 32.6488V18.7501C107.134 18.334 107.227 18.03 107.412 17.838C107.598 17.6299 107.908 17.5259 108.341 17.5259H110.593C111.042 17.5259 111.359 17.6299 111.545 17.838C111.731 18.03 111.823 18.334 111.823 18.7501V26.7917L114.888 22.6629C114.981 22.5349 115.082 22.4468 115.19 22.3988C115.298 22.3508 115.461 22.3268 115.677 22.3268H119.276C119.431 22.3268 119.547 22.3748 119.624 22.4708C119.717 22.5509 119.764 22.6629 119.764 22.8069C119.764 22.967 119.709 23.111 119.601 23.239L115.631 27.944L119.717 32.9369Z" fill="#9AA6BA"/>
<path d="M127.256 34.2092C125.956 34.2092 124.795 33.9852 123.773 33.5371C122.767 33.089 121.97 32.4168 121.382 31.5207C120.794 30.6245 120.5 29.5283 120.5 28.2321C120.5 26.1996 121.057 24.6473 122.172 23.5751C123.286 22.5029 124.888 21.9668 126.977 21.9668C129.02 21.9668 130.568 22.4949 131.621 23.5511C132.689 24.5913 133.223 26.0397 133.223 27.8959C133.223 28.6961 132.882 29.0962 132.201 29.0962H124.911C124.911 29.7843 125.159 30.3125 125.654 30.6805C126.165 31.0486 126.931 31.2325 127.952 31.2325C128.587 31.2325 129.113 31.1766 129.531 31.0646C129.965 30.9366 130.398 30.7526 130.831 30.5125C131.017 30.4325 131.141 30.3924 131.203 30.3924C131.342 30.3924 131.458 30.4885 131.551 30.6805L132.34 32.2168C132.418 32.3769 132.457 32.4968 132.457 32.5769C132.457 32.7209 132.364 32.857 132.178 32.9849C131.543 33.417 130.824 33.7291 130.019 33.9211C129.214 34.1132 128.293 34.2092 127.256 34.2092ZM129.044 26.7198C129.044 26.1116 128.873 25.6395 128.533 25.3035C128.192 24.9674 127.682 24.7994 127.001 24.7994C126.32 24.7994 125.801 24.9754 125.445 25.3275C125.089 25.6636 124.911 26.1277 124.911 26.7198H129.044Z" fill="#9AA6BA"/>
<path d="M141.179 34.2091C139.879 34.2091 138.649 34.0731 137.488 33.8011C136.327 33.5129 135.391 33.1129 134.679 32.6008C134.416 32.4248 134.284 32.2407 134.284 32.0487C134.284 31.9207 134.331 31.7847 134.423 31.6406L135.561 29.7683C135.685 29.5762 135.809 29.4802 135.932 29.4802C136.01 29.4802 136.141 29.5362 136.327 29.6482C136.9 29.9843 137.55 30.2563 138.277 30.4643C139.005 30.6724 139.724 30.7765 140.437 30.7765C141.164 30.7765 141.698 30.6645 142.038 30.4403C142.394 30.2163 142.572 29.8563 142.572 29.3601C142.572 28.88 142.379 28.504 141.992 28.232C141.62 27.9598 140.916 27.6159 139.879 27.1998C138.316 26.5916 137.093 25.9115 136.211 25.1593C135.344 24.3912 134.911 23.351 134.911 22.0387C134.911 20.4544 135.46 19.2462 136.559 18.414C137.658 17.5819 139.121 17.1658 140.947 17.1658C142.216 17.1658 143.3 17.2858 144.198 17.5258C145.111 17.7499 145.885 18.102 146.519 18.5821C146.782 18.7901 146.914 18.9821 146.914 19.1582C146.914 19.2702 146.867 19.3982 146.774 19.5422L145.637 21.4146C145.498 21.6066 145.374 21.7027 145.265 21.7027C145.188 21.7027 145.056 21.6466 144.871 21.5346C143.973 20.9265 142.905 20.6224 141.667 20.6224C141.001 20.6224 140.491 20.7345 140.135 20.9585C139.779 21.1826 139.601 21.5506 139.601 22.0627C139.601 22.4148 139.694 22.7029 139.879 22.9269C140.065 23.1509 140.313 23.351 140.622 23.527C140.947 23.687 141.443 23.8951 142.108 24.1511L142.549 24.3192C143.694 24.7833 144.592 25.2313 145.242 25.6635C145.908 26.0794 146.411 26.5996 146.751 27.2238C147.092 27.8318 147.262 28.5999 147.262 29.5282C147.262 30.9525 146.744 32.0888 145.707 32.9368C144.685 33.785 143.176 34.2091 141.179 34.2091Z" fill="#9AA6BA"/>
<path d="M152.196 33.8492C151.964 33.8492 151.786 33.8091 151.662 33.7291C151.538 33.6492 151.445 33.489 151.383 33.249L148.388 22.879C148.357 22.783 148.342 22.711 148.342 22.663C148.342 22.4389 148.497 22.3269 148.806 22.3269H151.87C152.072 22.3269 152.218 22.3669 152.312 22.4469C152.405 22.5109 152.467 22.6229 152.497 22.783L153.751 28.2321L155.33 23.8392C155.408 23.6472 155.485 23.5191 155.562 23.4551C155.655 23.3751 155.81 23.3351 156.027 23.3351H157.489C157.706 23.3351 157.853 23.3751 157.93 23.4551C158.023 23.5191 158.108 23.6472 158.186 23.8392L159.741 28.2321L161.019 22.783C161.064 22.6229 161.126 22.5109 161.204 22.4469C161.281 22.3669 161.421 22.3269 161.621 22.3269H164.71C165.019 22.3269 165.174 22.4389 165.174 22.663C165.174 22.711 165.159 22.783 165.127 22.879L162.109 33.249C162.048 33.489 161.954 33.6492 161.831 33.7291C161.722 33.8091 161.552 33.8492 161.32 33.8492H159.045C158.828 33.8492 158.665 33.8091 158.557 33.7291C158.448 33.6331 158.356 33.4731 158.278 33.249L156.746 28.9041L155.214 33.249C155.152 33.4731 155.058 33.6331 154.935 33.7291C154.826 33.8091 154.665 33.8492 154.448 33.8492H152.196Z" fill="#9AA6BA"/>
<path d="M171.058 34.2092C169.603 34.2092 168.435 33.7291 167.552 32.769C166.686 31.7927 166.252 30.4245 166.252 28.6641C166.252 27.3198 166.546 26.1436 167.135 25.1354C167.737 24.1272 168.581 23.3511 169.664 22.807C170.764 22.2469 172.025 21.9668 173.449 21.9668C174.626 21.9668 175.662 22.1028 176.56 22.3749C177.473 22.6309 178.31 23.007 179.067 23.5031V33.105C179.067 33.4091 179.013 33.6091 178.905 33.7051C178.796 33.8012 178.581 33.8492 178.255 33.8492H175.887C175.717 33.8492 175.586 33.8252 175.492 33.777C175.399 33.7132 175.322 33.617 175.26 33.489L174.959 32.769C174.51 33.265 173.967 33.6251 173.333 33.8492C172.714 34.0892 171.956 34.2092 171.058 34.2092ZM172.8 30.9445C173.402 30.9445 173.876 30.7925 174.216 30.4885C174.557 30.1845 174.727 29.7523 174.727 29.1921V25.4475C174.431 25.3035 174.061 25.2314 173.612 25.2314C172.791 25.2314 172.134 25.5275 171.638 26.1196C171.159 26.7117 170.918 27.5439 170.918 28.6161C170.918 30.1684 171.546 30.9445 172.8 30.9445Z" fill="#9AA6BA"/>
<path d="M182.275 38.6981C181.826 38.6981 181.51 38.6021 181.323 38.4101C181.153 38.218 181.068 37.9139 181.068 37.4978V23.7431C181.764 23.2311 182.64 22.807 183.691 22.4709C184.745 22.1348 185.843 21.9668 186.988 21.9668C191.663 21.9668 194 24.0152 194 28.112C194 29.9684 193.504 31.4486 192.514 32.5529C191.523 33.6571 190.123 34.2092 188.312 34.2092C187.802 34.2092 187.306 34.1451 186.825 34.0171C186.361 33.8892 185.974 33.7132 185.665 33.489V37.4978C185.665 37.9139 185.572 38.218 185.386 38.4101C185.201 38.6021 184.883 38.6981 184.434 38.6981H182.275ZM187.313 30.9685C187.979 30.9685 188.475 30.7126 188.799 30.2004C189.139 29.6723 189.31 28.9681 189.31 28.088C189.31 27.0479 189.109 26.3196 188.707 25.9035C188.32 25.4715 187.716 25.2554 186.896 25.2554C186.369 25.2554 185.951 25.3275 185.643 25.4715V29.2883C185.643 29.8324 185.789 30.2485 186.082 30.5365C186.378 30.8246 186.788 30.9685 187.313 30.9685Z" fill="#9AA6BA"/>
<path d="M15.7191 37.6904C9.52409 37.6904 2.70602 34.2267 2.69534 29.7429C2.69533 29.7498 2.69531 29.7568 2.69531 29.7638C2.69531 35.3145 7.27479 39.4986 15.7191 39.4986C24.1635 39.4986 28.7429 35.3145 28.7429 29.7638C28.7429 29.7568 28.7429 29.7498 28.7429 29.7429C28.7322 34.2267 21.9141 37.6904 15.7191 37.6904Z" fill="#9AA6BA"/>
<path fill-rule="evenodd" clip-rule="evenodd" d="M10.3848 11.1354C8.48257 11.1354 7.60693 12.6177 7.60693 14.6676C7.60693 16.2971 8.62434 19.5604 9.04179 20.8307C9.13568 21.1165 8.98815 21.4295 8.71908 21.5403C7.1945 22.1682 2.69531 24.4672 2.69531 29.7324C2.69531 35.2786 7.26751 39.4604 15.699 39.4671L15.7091 39.467L15.7191 39.4671C24.1506 39.4604 28.7228 35.2786 28.7228 29.7324C28.7228 24.4672 24.2236 22.1682 22.6991 21.5403C22.43 21.4295 22.2825 21.1165 22.3764 20.8307C22.7938 19.5604 23.8113 16.2971 23.8113 14.6676C23.8113 12.6177 22.9356 11.1354 21.0333 11.1354C18.2952 11.1354 17.6125 15.1867 17.5639 19.5348C17.5607 19.8251 17.3359 20.0606 17.0581 20.0606H14.3601C14.0822 20.0606 13.8575 19.8251 13.8543 19.5348C13.8056 15.1867 13.123 11.1354 10.3848 11.1354ZM12.2775 28.3657C12.2775 29.8796 11.5925 30.668 10.7476 30.668C9.90271 30.668 9.21777 29.8796 9.21777 28.3657C9.21777 26.8519 9.90271 26.0635 10.7476 26.0635C11.5925 26.0635 12.2775 26.8519 12.2775 28.3657ZM20.691 30.668C21.5359 30.668 22.2208 29.8796 22.2208 28.3657C22.2208 26.8519 21.5359 26.0635 20.691 26.0635C19.8461 26.0635 19.1611 26.8519 19.1611 28.3657C19.1611 29.8796 19.8461 30.668 20.691 30.668Z" fill="#9AA6BA"/>
</g>
<defs>
<clipPath id="clip0_1681_6472">
<rect width="193" height="31" fill="white" transform="translate(1 10)"/>
</clipPath>
</defs>
</svg>
